<svg width="36" height="36" viewBox="0 0 36 36" fill="none" xmlns="http://www.w3.org/2000/svg">
<path fill-rule="evenodd" clip-rule="evenodd" d="M7.53421 13.5C7.53421 7.695 12.2292 3 18.0342 3C23.8392 3 28.5342 7.695 28.5342 13.5C28.5342 15.675 27.8892 17.67 26.7792 19.335C25.1592 21.735 22.5942 23.43 19.6092 23.865C19.0992 23.955 18.5742 24 18.0342 24C17.4942 24 16.9692 23.955 16.4592 23.865C13.4742 23.43 10.9092 21.735 9.28921 19.335C8.17921 17.67 7.53421 15.675 7.53421 13.5ZM21.3792 14.415L22.6242 13.17C23.3592 12.435 23.1192 11.7 22.1142 11.535L20.5092 11.265C20.2242 11.22 19.9092 10.98 19.7892 10.74L18.9042 8.97C18.4242 8.01 17.6442 8.01 17.1642 8.97L16.2792 10.74C16.1592 10.98 15.8442 11.22 15.5742 11.265L13.9692 11.535C12.9492 11.7 12.7092 12.435 13.4442 13.17L14.7192 14.415C14.9292 14.625 15.0342 15.045 14.9742 15.33L14.6142 16.875C14.3292 18.09 14.9742 18.555 16.0542 17.925L17.5542 17.04C17.8242 16.875 18.2742 16.875 18.5442 17.04L20.0442 17.925C21.1242 18.57 21.7692 18.09 21.4842 16.875L21.1242 15.33C21.0492 15.03 21.1692 14.625 21.3792 14.415ZM4.08418 27.7052L6.55918 28.2902C7.11418 28.4252 7.54918 28.8452 7.66918 29.4002L8.19418 31.6052C8.47918 32.8052 10.0092 33.1802 10.8042 32.2352L15.2892 27.0752C15.6492 26.6552 15.4542 25.9952 14.9142 25.8602C12.2592 25.2152 9.87418 23.7302 8.11918 21.6152C7.83418 21.2702 7.32418 21.2252 7.00918 21.5402L3.67918 24.8702C2.53918 26.0102 2.94418 27.4352 4.08418 27.7052ZM31.9093 27.7052L29.4343 28.2902C28.8793 28.4252 28.4443 28.8452 28.3243 29.4002L27.7993 31.6052C27.5143 32.8052 25.9843 33.1802 25.1893 32.2352L20.7043 27.0752C20.3443 26.6552 20.5393 25.9952 21.0793 25.8602C23.7343 25.2152 26.1193 23.7302 27.8743 21.6152C28.1593 21.2702 28.6693 21.2252 28.9843 21.5402L32.3143 24.8702C33.4543 26.0102 33.0493 27.4352 31.9093 27.7052Z" fill="#FFB7B6"/>
</svg>
