<svg width="36" height="36" viewBox="0 0 36 36" fill="none" xmlns="http://www.w3.org/2000/svg">
<path fill-rule="evenodd" clip-rule="evenodd" d="M14.2964 3.48633C13.6214 5.46631 13.1414 7.52148 12.7664 9.57642C16.2464 9.18652 19.7564 9.18652 23.2364 9.57642C22.8614 7.52148 22.3814 5.48145 21.7064 3.48633C21.6764 3.36646 21.6764 3.27637 21.6614 3.15649C20.4914 2.87134 19.2614 2.69141 18.0014 2.69141C16.7264 2.69141 15.5114 2.87134 14.3264 3.15649C14.3114 3.27637 14.3264 3.36646 14.2964 3.48633ZM25.8017 9.89209C27.7367 10.2222 29.6417 10.687 31.5317 11.2571C30.0467 8.1521 27.5417 5.64722 24.4367 4.16211C25.0217 6.03711 25.4867 7.95703 25.8017 9.89209ZM11.4764 31.0562C11.454 31.0562 11.4277 31.0635 11.4015 31.071C11.3853 31.0757 11.369 31.0803 11.3536 31.0833L11.3419 31.0852L11.3365 31.0857L11.3264 31.0862C8.41644 29.6462 6.04645 27.2612 4.59143 24.3511C4.59143 24.3062 4.62146 24.2461 4.62146 24.2012C6.45142 24.7412 8.34143 25.1462 10.2164 25.4612C10.5464 27.3511 10.9364 29.2261 11.4764 31.0562ZM31.4117 24.3662C29.9267 27.3511 27.4517 29.7661 24.4367 31.2212C25.0067 29.3162 25.4867 27.3962 25.8017 25.4612C27.6917 25.1462 29.5517 24.7412 31.3817 24.2012C31.3759 24.2246 31.3792 24.248 31.3853 24.2708L31.3889 24.2825L31.3969 24.3064C31.4045 24.3281 31.4117 24.3484 31.4117 24.3662ZM11.4766 4.32617C10.9366 6.15625 10.5466 8.01636 10.2316 9.90625C8.29657 10.2063 6.37659 10.6863 4.47156 11.2563C5.92657 8.24121 8.34155 5.76636 11.3265 4.28125C11.3716 4.28125 11.4316 4.32617 11.4766 4.32617ZM9.88641 22.927C7.81641 22.552 5.77643 22.072 3.79639 21.397C3.67639 21.3669 3.58643 21.3821 3.46643 21.3669C3.1814 20.1821 3.0014 18.967 3.0014 17.6921C3.0014 16.4321 3.1814 15.2021 3.46643 14.032C3.58643 14.0171 3.67639 14.0171 3.79639 13.9871C5.79138 13.3271 7.81641 12.832 9.88641 12.457C9.51141 15.937 9.51141 19.447 9.88641 22.927ZM32.5366 21.3669C32.8217 20.1821 33.0016 18.967 33.0016 17.6921C33.0016 16.4321 32.8217 15.217 32.5366 14.032C32.4166 14.032 32.3267 14.0171 32.2067 13.9871C30.2266 13.312 28.1716 12.832 26.1166 12.457C26.5067 15.937 26.5067 19.447 26.1166 22.927C28.1716 22.552 30.2116 22.0571 32.2067 21.397C32.3267 21.3669 32.4166 21.3821 32.5366 21.3669ZM23.2364 25.8066C22.8614 27.8767 22.3814 29.9167 21.7064 31.8967C21.6764 32.0166 21.6764 32.1067 21.6614 32.2266C20.4914 32.5117 19.2614 32.6917 18.0014 32.6917C16.7264 32.6917 15.5114 32.5117 14.3264 32.2266C14.3204 32.179 14.3192 32.136 14.318 32.094C14.3162 32.0303 14.3145 31.969 14.2964 31.8967C13.6364 29.9016 13.1414 27.8767 12.7664 25.8066C14.5064 26.0017 16.2464 26.1367 18.0014 26.1367C19.7564 26.1367 21.5114 26.0017 23.2364 25.8066ZM12.3564 12.0464C11.8831 15.7981 11.8831 19.5847 12.3564 23.3364C16.108 23.8098 19.8948 23.8098 23.6464 23.3364C24.1198 19.5847 24.1198 15.7981 23.6464 12.0464C19.8948 11.573 16.108 11.573 12.3564 12.0464Z" fill="url(#paint0_linear_330_193)"/>
<defs>
<linearGradient id="paint0_linear_330_193" x1="15.8722" y1="11.797" x2="39.6195" y2="48.9653" gradientUnits="userSpaceOnUse">
<stop stop-color="white"/>
<stop offset="1" stop-color="white" stop-opacity="0"/>
</linearGradient>
</defs>
</svg>
