<svg width="36" height="36" viewBox="0 0 36 36" fill="none" xmlns="http://www.w3.org/2000/svg">
<path fill-rule="evenodd" clip-rule="evenodd" d="M14.295 3.795C13.62 5.775 13.14 7.83 12.765 9.885C16.245 9.495 19.755 9.495 23.235 9.885C22.86 7.83 22.38 5.79 21.705 3.795C21.6843 3.71215 21.6779 3.6436 21.671 3.5696C21.6679 3.53642 21.6647 3.50215 21.66 3.465C20.49 3.18 19.26 3 18 3C16.725 3 15.51 3.18 14.325 3.465C14.319 3.51272 14.3178 3.5557 14.3166 3.5977C14.3148 3.66133 14.3131 3.72272 14.295 3.795ZM25.8003 10.2007C27.7353 10.5307 29.6403 10.9957 31.5303 11.5657C30.0453 8.4607 27.5403 5.9557 24.4353 4.4707C25.0203 6.3457 25.4853 8.2657 25.8003 10.2007ZM11.475 31.3648C11.4525 31.3648 11.4263 31.3723 11.4 31.3798L11.4 31.3798C11.3738 31.3873 11.3475 31.3948 11.325 31.3948C8.41503 29.9548 6.04503 27.5698 4.59003 24.6598C4.59003 24.6373 4.59753 24.611 4.60503 24.5848C4.61253 24.5585 4.62003 24.5323 4.62003 24.5098C6.45003 25.0498 8.34003 25.4548 10.215 25.7698C10.545 27.6598 10.935 29.5348 11.475 31.3648ZM31.4103 24.6748C29.9253 27.6598 27.4503 30.0748 24.4353 31.5298C25.0053 29.6248 25.4853 27.7048 25.8003 25.7698C27.6903 25.4548 29.5503 25.0498 31.3803 24.5098C31.3713 24.5459 31.384 24.582 31.3955 24.6148C31.4032 24.6365 31.4103 24.6568 31.4103 24.6748ZM11.4752 4.63484C10.9352 6.46484 10.5452 8.32484 10.2302 10.2148C8.29515 10.5148 6.37515 10.9948 4.47015 11.5648C5.92515 8.54984 8.34015 6.07484 11.3252 4.58984C11.3477 4.58984 11.3739 4.60109 11.4002 4.61234C11.4264 4.62359 11.4527 4.63484 11.4752 4.63484ZM9.885 23.2356C7.815 22.8606 5.775 22.3806 3.795 21.7056C3.72273 21.6876 3.66134 21.6858 3.59773 21.684H3.59771H3.59768C3.55568 21.6828 3.51271 21.6816 3.465 21.6756C3.18 20.4906 3 19.2756 3 18.0006C3 16.7406 3.18 15.5106 3.465 14.3406C3.50214 14.336 3.5364 14.3328 3.56957 14.3297L3.5696 14.3297C3.6436 14.3228 3.71215 14.3163 3.795 14.2956C5.79 13.6356 7.815 13.1406 9.885 12.7656C9.51 16.2456 9.51 19.7556 9.885 23.2356ZM32.5352 21.6756C32.8202 20.4906 33.0002 19.2756 33.0002 18.0006C33.0002 16.7406 32.8202 15.5256 32.5352 14.3406C32.4152 14.3406 32.3252 14.3256 32.2052 14.2956C30.2252 13.6206 28.1702 13.1406 26.1152 12.7656C26.5052 16.2456 26.5052 19.7556 26.1152 23.2356C28.1702 22.8606 30.2102 22.3656 32.2052 21.7056C32.2775 21.6876 32.3389 21.6858 32.4025 21.684H32.4025H32.4025C32.4445 21.6828 32.4875 21.6816 32.5352 21.6756ZM23.235 26.1152C22.86 28.1852 22.38 30.2252 21.705 32.2052C21.6843 32.2881 21.6779 32.3566 21.671 32.4306C21.6679 32.4638 21.6647 32.4981 21.66 32.5352C20.49 32.8202 19.26 33.0002 18 33.0002C16.725 33.0002 15.51 32.8202 14.325 32.5352C14.319 32.4875 14.3178 32.4445 14.3166 32.4025C14.3148 32.3389 14.3131 32.2775 14.295 32.2052C13.635 30.2102 13.14 28.1852 12.765 26.1152C14.505 26.3102 16.245 26.4452 18 26.4452C19.755 26.4452 21.51 26.3102 23.235 26.1152ZM12.355 23.645C16.1066 24.1183 19.8934 24.1183 23.645 23.645C24.1183 19.8934 24.1183 16.1066 23.645 12.355C19.8934 11.8817 16.1066 11.8817 12.355 12.355C11.8817 16.1066 11.8817 19.8934 12.355 23.645Z" fill="#FFB7B6"/>
</svg>
