<svg width="37" height="37" viewBox="0 0 37 37" fill="none" xmlns="http://www.w3.org/2000/svg">
<path d="M27.8123 6.87117L19.5623 3.78117C18.7073 3.46617 17.3123 3.46617 16.4573 3.78117L8.20725 6.87117C6.61725 7.47117 5.32726 9.33117 5.32726 11.0262V23.1762C5.32726 24.3912 6.12226 25.9962 7.09726 26.7162L15.3473 32.8812C16.8023 33.9762 19.1873 33.9762 20.6423 32.8812L28.8923 26.7162C29.8673 25.9812 30.6623 24.3912 30.6623 23.1762V11.0262C30.6773 9.33117 29.3873 7.47117 27.8123 6.87117ZM23.2223 15.2712L16.7723 21.7212C16.5473 21.9462 16.2623 22.0512 15.9773 22.0512C15.6923 22.0512 15.4073 21.9462 15.1823 21.7212L12.7823 19.2912C12.3473 18.8562 12.3473 18.1362 12.7823 17.7012C13.2173 17.2662 13.9373 17.2662 14.3723 17.7012L15.9923 19.3212L21.6473 13.6662C22.0823 13.2312 22.8023 13.2312 23.2373 13.6662C23.6723 14.1012 23.6723 14.8362 23.2223 15.2712Z" fill="url(#paint0_linear_241_2098)"/>
<defs>
<linearGradient id="paint0_linear_241_2098" x1="16.1966" y1="12.6983" x2="33.6291" y2="41.9426" gradientUnits="userSpaceOnUse">
<stop stop-color="white"/>
<stop offset="1" stop-color="white" stop-opacity="0"/>
</linearGradient>
</defs>
</svg>
