<svg width="36" height="36" viewBox="0 0 36 36" fill="none" xmlns="http://www.w3.org/2000/svg">
<path fill-rule="evenodd" clip-rule="evenodd" d="M17.6044 4.35663L7.74977 9.28066C6.96867 9.67095 6.57812 9.8661 6.57812 10.1752C6.57812 10.4843 6.96867 10.6795 7.74977 11.0698L17.6044 15.9938C18.043 16.213 18.2624 16.3226 18.4983 16.3226C18.7342 16.3226 18.9536 16.213 19.3923 15.9938L29.2468 11.0698C30.0279 10.6795 30.4185 10.4843 30.4185 10.1752C30.4185 9.8661 30.0279 9.67095 29.2468 9.28066L19.3923 4.35663C18.9536 4.13743 18.7342 4.02783 18.4983 4.02783C18.2624 4.02783 18.043 4.13743 17.6044 4.35663ZM10.6662 15.6574L16.7147 18.6796C17.592 19.118 18.0307 19.3372 18.5026 19.3372C18.9744 19.3372 19.4131 19.118 20.2905 18.6796L26.3397 15.657L29.2518 17.1121C30.0329 17.5024 30.4234 17.6976 30.4234 18.0067C30.4234 18.3158 30.0329 18.5109 29.2518 18.9012L19.3972 23.8253C18.9585 24.0445 18.7392 24.1541 18.5032 24.1541C18.2673 24.1541 18.048 24.0445 17.6093 23.8253L7.7547 18.9012C6.9736 18.5109 6.58305 18.3158 6.58305 18.0067C6.58305 17.6976 6.9736 17.5024 7.7547 17.1121L10.6662 15.6574ZM16.7147 26.5113L10.6653 23.4886L7.7547 24.943C6.9736 25.3333 6.58305 25.5284 6.58305 25.8375C6.58305 26.1466 6.9736 26.3418 7.7547 26.7321L17.6093 31.6561L17.6093 31.6561C18.048 31.8753 18.2673 31.9849 18.5032 31.9849C18.7392 31.9849 18.9585 31.8753 19.3972 31.6561L29.2518 26.7321C30.0329 26.3418 30.4234 26.1466 30.4234 25.8375C30.4234 25.5284 30.0329 25.3333 29.2518 24.943L26.3405 23.4883L20.2905 26.5113C19.4131 26.9497 18.9744 27.1689 18.5026 27.1689C18.0307 27.1689 17.592 26.9497 16.7147 26.5113L16.7147 26.5113Z" fill="url(#paint0_linear_224_2325)"/>
<defs>
<linearGradient id="paint0_linear_224_2325" x1="18.5017" y1="15.1883" x2="30.724" y2="37.2433" gradientUnits="userSpaceOnUse">
<stop stop-color="white"/>
<stop offset="0.0001" stop-color="white"/>
<stop offset="1" stop-color="white" stop-opacity="0"/>
</linearGradient>
</defs>
</svg>
