<svg width="36" height="36" viewBox="0 0 36 36" fill="none" xmlns="http://www.w3.org/2000/svg">
<path fill-rule="evenodd" clip-rule="evenodd" d="M2.99994 16.6801V19.3201C2.99994 20.8801 4.27494 22.1701 5.84994 22.1701C8.56494 22.1701 9.67494 24.0901 8.30994 26.4451C7.52994 27.7951 7.99494 29.5501 9.35994 30.3302L11.9549 31.8152C13.1399 32.5202 14.6699 32.1002 15.3749 30.9152L15.5399 30.6302C16.9049 28.2752 19.1249 28.2752 20.4749 30.6302L20.6399 30.9152C21.3449 32.1002 22.8749 32.5202 24.0599 31.8152L26.6549 30.3302C28.0199 29.5501 28.4849 27.8101 27.7049 26.4451C26.3399 24.0901 27.4499 22.1701 30.1649 22.1701C31.7399 22.1701 33.0149 20.8801 33.0149 19.3201V16.6801C33.0149 15.1051 31.7249 13.8302 30.1649 13.8302C27.4499 13.8302 26.3399 11.9101 27.7049 9.55515C28.4849 8.20515 28.0199 6.45015 26.6549 5.67015L24.0599 4.18515C22.8749 3.48015 21.3449 3.90015 20.6399 5.08515L20.4749 5.37015C19.1099 7.72515 16.8899 7.72515 15.5399 5.37015L15.3749 5.08515C14.6699 3.90015 13.1399 3.48015 11.9549 4.18515L9.35994 5.67015C7.99494 6.45015 7.52994 8.20515 8.30994 9.55515C9.67494 11.9101 8.56494 13.8302 5.84994 13.8302C4.27494 13.8302 2.99994 15.1201 2.99994 16.6801ZM22.8749 18C22.8749 20.6924 20.6923 22.875 17.9999 22.875C15.3076 22.875 13.1249 20.6924 13.1249 18C13.1249 15.3076 15.3076 13.125 17.9999 13.125C20.6923 13.125 22.8749 15.3076 22.8749 18Z" fill="url(#paint0_linear_241_2109)"/>
<defs>
<linearGradient id="paint0_linear_241_2109" x1="12.6817" y1="4.09104" x2="38.0453" y2="60.5456" gradientUnits="userSpaceOnUse">
<stop stop-color="white"/>
<stop offset="1" stop-color="white" stop-opacity="0"/>
</linearGradient>
</defs>
</svg>
