<svg width="36" height="36" viewBox="0 0 36 36" fill="none" xmlns="http://www.w3.org/2000/svg">
<path d="M25.3636 17.8372V24.4974C25.3636 25.0865 25.2986 25.6429 25.1523 26.1502C24.5508 28.5557 22.5677 30.0612 19.8368 30.0612H15.4154L10.5063 33.3504C9.77481 33.8577 8.7995 33.3177 8.7995 32.434V30.0612C7.14146 30.0612 5.75976 29.5049 4.8007 28.5394C3.82538 27.5575 3.27271 26.1666 3.27271 24.4974V17.8372C3.27271 14.7281 5.19083 12.5844 8.14929 12.3062C8.3606 12.2898 8.57192 12.2734 8.7995 12.2734H19.8368C23.1529 12.2734 25.3636 14.499 25.3636 17.8372Z" fill="url(#paint0_linear_296_225)"/>
<path d="M28.9432 22.0367C30.8482 22.0367 32.4532 21.4067 33.5632 20.2817C34.6882 19.1717 35.3182 17.5667 35.3182 15.6617V8.01172C35.3182 4.48672 32.4682 1.63672 28.9432 1.63672H16.1932C12.6682 1.63672 9.81818 4.48672 9.81818 8.01172V9.13672C9.81818 9.55672 10.1482 9.88672 10.5682 9.88672H20.6032C24.6682 9.88672 27.9532 13.1717 27.9532 17.2367V21.2867C27.9532 21.7067 28.2832 22.0367 28.7032 22.0367H28.9432Z" fill="url(#paint1_linear_296_225)"/>
<path d="M9.7458 24.3691C9.6314 24.3691 9.5352 24.3301 9.4572 24.2521C9.3792 24.1741 9.3402 24.0779 9.3402 23.9635V18.6829C9.3402 18.5633 9.3792 18.4671 9.4572 18.3943C9.5352 18.3163 9.6314 18.2773 9.7458 18.2773H13.2714C13.391 18.2773 13.4872 18.3137 13.56 18.3865C13.6328 18.4541 13.6692 18.5451 13.6692 18.6595C13.6692 18.7687 13.6328 18.8571 13.56 18.9247C13.4872 18.9923 13.391 19.0261 13.2714 19.0261H10.1514V20.9215H12.39C12.5096 20.9215 12.6058 20.9579 12.6786 21.0307C12.7514 21.0983 12.7878 21.1867 12.7878 21.2959C12.7878 21.4051 12.7514 21.4961 12.6786 21.5689C12.6058 21.6365 12.5096 21.6703 12.39 21.6703H10.1514V23.6203H13.2714C13.391 23.6203 13.4872 23.6541 13.56 23.7217C13.6328 23.7893 13.6692 23.8777 13.6692 23.9869C13.6692 24.1013 13.6328 24.1949 13.56 24.2677C13.4872 24.3353 13.391 24.3691 13.2714 24.3691H9.7458ZM15.5115 24.3691C15.3971 24.3691 15.3009 24.3301 15.2229 24.2521C15.1501 24.1741 15.1137 24.0779 15.1137 23.9635V18.6829C15.1137 18.5633 15.1501 18.4671 15.2229 18.3943C15.3009 18.3163 15.3971 18.2773 15.5115 18.2773C15.6363 18.2773 15.7403 18.3267 15.8235 18.4255L19.2243 22.9495V18.6829C19.2243 18.5633 19.2633 18.4671 19.3413 18.3943C19.4193 18.3163 19.5155 18.2773 19.6299 18.2773C19.7495 18.2773 19.8457 18.3163 19.9185 18.3943C19.9913 18.4671 20.0277 18.5633 20.0277 18.6829V23.9635C20.0277 24.0779 19.9913 24.1741 19.9185 24.2521C19.8457 24.3301 19.7495 24.3691 19.6299 24.3691C19.5779 24.3691 19.5207 24.3587 19.4583 24.3379C19.4011 24.3119 19.3543 24.2755 19.3179 24.2287L15.9171 19.7047V23.9635C15.9171 24.0779 15.8781 24.1741 15.8001 24.2521C15.7273 24.3301 15.6311 24.3691 15.5115 24.3691Z" fill="#1C202A"/>
<path d="M9.4572 24.2521L9.10364 24.6057L9.10364 24.6057L9.4572 24.2521ZM9.4572 18.3943L9.79836 18.7599L9.80466 18.754L9.81075 18.7479L9.4572 18.3943ZM13.56 18.3865L13.2064 18.7401L13.213 18.7466L13.2198 18.7529L13.56 18.3865ZM13.56 18.9247L13.9002 19.2911L13.9002 19.2911L13.56 18.9247ZM10.1514 19.0261V18.5261H9.6514V19.0261H10.1514ZM10.1514 20.9215H9.6514V21.4215H10.1514V20.9215ZM12.6786 21.0307L12.325 21.3843L12.3316 21.3908L12.3384 21.3971L12.6786 21.0307ZM12.6786 21.5689L13.0188 21.9353L13.0256 21.929L13.0321 21.9225L12.6786 21.5689ZM10.1514 21.6703V21.1703H9.6514V21.6703H10.1514ZM10.1514 23.6203H9.6514V24.1203H10.1514V23.6203ZM13.56 23.7217L13.9002 23.3553L13.56 23.7217ZM13.56 24.2677L13.9002 24.6341L13.907 24.6278L13.9135 24.6213L13.56 24.2677ZM9.7458 23.8691C9.74567 23.8691 9.74879 23.8691 9.75445 23.8702C9.76022 23.8713 9.76754 23.8732 9.7757 23.8765C9.79345 23.8837 9.80543 23.8933 9.81075 23.8986L9.10364 24.6057C9.27922 24.7813 9.50428 24.8691 9.7458 24.8691V23.8691ZM9.81075 23.8986C9.81607 23.9039 9.82562 23.9159 9.83282 23.9336C9.83612 23.9418 9.83808 23.9491 9.83915 23.9549C9.8402 23.9605 9.8402 23.9637 9.8402 23.9635H8.8402C8.8402 24.2051 8.92806 24.4301 9.10364 24.6057L9.81075 23.8986ZM9.8402 23.9635V18.6829H8.8402V23.9635H9.8402ZM9.8402 18.6829C9.8402 18.6778 9.8409 18.689 9.83282 18.7089C9.82422 18.7302 9.81101 18.7481 9.79836 18.7599L9.11604 18.0288C8.92393 18.2081 8.8402 18.4433 8.8402 18.6829H9.8402ZM9.81075 18.7479C9.80543 18.7532 9.79345 18.7628 9.7757 18.77C9.76754 18.7733 9.76022 18.7752 9.75445 18.7763C9.74879 18.7773 9.74567 18.7773 9.7458 18.7773V17.7773C9.50428 17.7773 9.27922 17.8652 9.10364 18.0408L9.81075 18.7479ZM9.7458 18.7773H13.2714V17.7773H9.7458V18.7773ZM13.2714 18.7773C13.2804 18.7773 13.2731 18.7787 13.2563 18.7723C13.238 18.7654 13.2201 18.7538 13.2064 18.7401L13.9135 18.033C13.7318 17.8512 13.5004 17.7773 13.2714 17.7773V18.7773ZM13.2198 18.7529C13.2027 18.7371 13.1873 18.7153 13.1777 18.6912C13.1686 18.6686 13.1692 18.6555 13.1692 18.6595H14.1692C14.1692 18.4292 14.0907 18.197 13.9002 18.0201L13.2198 18.7529ZM13.1692 18.6595C13.1692 18.6581 13.1696 18.6415 13.1796 18.6174C13.19 18.5921 13.2054 18.5717 13.2198 18.5583L13.9002 19.2911C14.0856 19.119 14.1692 18.8924 14.1692 18.6595H13.1692ZM13.2198 18.5583C13.235 18.5442 13.2526 18.5343 13.2675 18.5291C13.281 18.5243 13.2843 18.5261 13.2714 18.5261V19.5261C13.49 19.5261 13.7168 19.4615 13.9002 19.2911L13.2198 18.5583ZM13.2714 18.5261H10.1514V19.5261H13.2714V18.5261ZM9.6514 19.0261V20.9215H10.6514V19.0261H9.6514ZM10.1514 21.4215H12.39V20.4215H10.1514V21.4215ZM12.39 21.4215C12.399 21.4215 12.3917 21.4229 12.3749 21.4165C12.3566 21.4096 12.3387 21.398 12.325 21.3843L13.0321 20.6772C12.8504 20.4954 12.619 20.4215 12.39 20.4215V21.4215ZM12.3384 21.3971C12.324 21.3838 12.3086 21.3634 12.2982 21.3381C12.2882 21.3139 12.2878 21.2974 12.2878 21.2959H13.2878C13.2878 21.063 13.2042 20.8365 13.0188 20.6643L12.3384 21.3971ZM12.2878 21.2959C12.2878 21.2942 12.2883 21.2803 12.2963 21.2604C12.3045 21.2399 12.316 21.2244 12.325 21.2154L13.0321 21.9225C13.2048 21.7498 13.2878 21.5288 13.2878 21.2959H12.2878ZM12.3384 21.2025C12.3536 21.1884 12.3712 21.1785 12.3861 21.1733C12.3996 21.1685 12.4029 21.1703 12.39 21.1703V22.1703C12.6086 22.1703 12.8354 22.1057 13.0188 21.9353L12.3384 21.2025ZM12.39 21.1703H10.1514V22.1703H12.39V21.1703ZM9.6514 21.6703V23.6203H10.6514V21.6703H9.6514ZM10.1514 24.1203H13.2714V23.1203H10.1514V24.1203ZM13.2714 24.1203C13.2843 24.1203 13.281 24.1222 13.2675 24.1174C13.2526 24.1122 13.235 24.1023 13.2198 24.0881L13.9002 23.3553C13.7168 23.185 13.49 23.1203 13.2714 23.1203V24.1203ZM13.2198 24.0881C13.2054 24.0748 13.19 24.0544 13.1796 24.0291C13.1696 24.0049 13.1692 23.9884 13.1692 23.9869H14.1692C14.1692 23.754 14.0856 23.5275 13.9002 23.3553L13.2198 24.0881ZM13.1692 23.9869C13.1692 23.9907 13.1687 23.9802 13.1759 23.9617C13.1835 23.9423 13.1951 23.9255 13.2064 23.9142L13.9135 24.6213C14.091 24.4439 14.1692 24.2178 14.1692 23.9869H13.1692ZM13.2198 23.9013C13.235 23.8872 13.2526 23.8773 13.2675 23.8721C13.281 23.8673 13.2843 23.8691 13.2714 23.8691V24.8691C13.49 24.8691 13.7168 24.8045 13.9002 24.6341L13.2198 23.9013ZM13.2714 23.8691H9.7458V24.8691H13.2714V23.8691ZM15.2229 24.2521L14.8574 24.5933L14.8633 24.5996L14.8694 24.6057L15.2229 24.2521ZM15.2229 18.3943L14.8694 18.0408V18.0408L15.2229 18.3943ZM15.8235 18.4255L16.2232 18.1251L16.2149 18.114L16.206 18.1035L15.8235 18.4255ZM19.2243 22.9495L18.8247 23.25L19.7243 24.4468V22.9495H19.2243ZM19.3413 18.3943L19.6825 18.7599L19.6888 18.754L19.6949 18.7479L19.3413 18.3943ZM19.9185 18.3943L19.553 18.7355L19.5589 18.7418L19.565 18.7479L19.9185 18.3943ZM19.4583 24.3379L19.2514 24.7931L19.2753 24.804L19.3002 24.8123L19.4583 24.3379ZM19.3179 24.2287L18.9182 24.5292L18.9232 24.5357L19.3179 24.2287ZM15.9171 19.7047L16.3168 19.4043L15.4171 18.2075V19.7047H15.9171ZM15.8001 24.2521L15.4466 23.8986L15.4405 23.9047L15.4346 23.911L15.8001 24.2521ZM15.5115 23.8691C15.5114 23.8691 15.5145 23.8691 15.5202 23.8702C15.5259 23.8713 15.5333 23.8732 15.5414 23.8765C15.5592 23.8837 15.5712 23.8933 15.5765 23.8986L14.8694 24.6057C15.0449 24.7813 15.27 24.8691 15.5115 24.8691V23.8691ZM15.5884 23.911C15.5948 23.9177 15.603 23.9295 15.6087 23.9445C15.6141 23.959 15.6137 23.967 15.6137 23.9635H14.6137C14.6137 24.1946 14.6916 24.4156 14.8574 24.5933L15.5884 23.911ZM15.6137 23.9635V18.6829H14.6137V23.9635H15.6137ZM15.6137 18.6829C15.6137 18.6739 15.615 18.6812 15.6087 18.698C15.6018 18.7163 15.5901 18.7342 15.5765 18.7479L14.8694 18.0408C14.6876 18.2226 14.6137 18.4539 14.6137 18.6829H15.6137ZM15.5765 18.7479C15.5712 18.7532 15.5592 18.7628 15.5414 18.77C15.5333 18.7733 15.5259 18.7752 15.5202 18.7763C15.5145 18.7773 15.5114 18.7773 15.5115 18.7773V17.7773C15.27 17.7773 15.0449 17.8652 14.8694 18.0408L15.5765 18.7479ZM15.5115 18.7773C15.506 18.7773 15.4891 18.7758 15.4686 18.766C15.4485 18.7565 15.4399 18.7462 15.4411 18.7476L16.206 18.1035C16.0316 17.8964 15.7896 17.7773 15.5115 17.7773V18.7773ZM15.4239 18.726L18.8247 23.25L19.624 22.6491L16.2232 18.1251L15.4239 18.726ZM19.7243 22.9495V18.6829H18.7243V22.9495H19.7243ZM19.7243 18.6829C19.7243 18.6778 19.725 18.689 19.7169 18.7089C19.7083 18.7302 19.6951 18.7481 19.6825 18.7599L19.0002 18.0288C18.8081 18.2081 18.7243 18.4433 18.7243 18.6829H19.7243ZM19.6949 18.7479C19.6896 18.7532 19.6776 18.7628 19.6598 18.77C19.6517 18.7733 19.6443 18.7752 19.6386 18.7763C19.6329 18.7773 19.6298 18.7773 19.6299 18.7773V17.7773C19.3884 17.7773 19.1633 17.8652 18.9878 18.0408L19.6949 18.7479ZM19.6299 18.7773C19.635 18.7773 19.6239 18.778 19.6039 18.77C19.5827 18.7614 19.5648 18.7482 19.553 18.7355L20.284 18.0532C20.1047 17.8611 19.8696 17.7773 19.6299 17.7773V18.7773ZM19.565 18.7479C19.5513 18.7342 19.5397 18.7163 19.5328 18.698C19.5264 18.6812 19.5277 18.6739 19.5277 18.6829H20.5277C20.5277 18.4539 20.4538 18.2226 20.2721 18.0408L19.565 18.7479ZM19.5277 18.6829V23.9635H20.5277V18.6829H19.5277ZM19.5277 23.9635C19.5277 23.967 19.5273 23.959 19.5328 23.9445C19.5385 23.9295 19.5467 23.9177 19.553 23.911L20.284 24.5933C20.4499 24.4156 20.5277 24.1946 20.5277 23.9635H19.5277ZM19.553 23.911C19.5648 23.8983 19.5827 23.8851 19.6039 23.8765C19.6239 23.8684 19.635 23.8691 19.6299 23.8691V24.8691C19.8696 24.8691 20.1047 24.7854 20.284 24.5933L19.553 23.911ZM19.6299 23.8691C19.6372 23.8691 19.64 23.8699 19.6375 23.8694C19.6349 23.8689 19.6281 23.8675 19.6164 23.8636L19.3002 24.8123C19.4007 24.8458 19.5121 24.8691 19.6299 24.8691V23.8691ZM19.6652 23.8828C19.6701 23.885 19.678 23.8893 19.6873 23.8965C19.6967 23.9037 19.7053 23.9124 19.7126 23.9218L18.9232 24.5357C19.0123 24.6502 19.1251 24.7357 19.2514 24.7931L19.6652 23.8828ZM19.7176 23.9283L16.3168 19.4043L15.5175 20.0052L18.9183 24.5292L19.7176 23.9283ZM15.4171 19.7047V23.9635H16.4171V19.7047H15.4171ZM15.4171 23.9635C15.4171 23.9637 15.4171 23.9605 15.4182 23.9549C15.4192 23.9491 15.4212 23.9418 15.4245 23.9336C15.4317 23.9159 15.4412 23.9039 15.4466 23.8986L16.1537 24.6057C16.3293 24.4301 16.4171 24.2051 16.4171 23.9635H15.4171ZM15.4346 23.911C15.4464 23.8983 15.4643 23.8851 15.4855 23.8765C15.5055 23.8684 15.5166 23.8691 15.5115 23.8691V24.8691C15.7512 24.8691 15.9863 24.7854 16.1656 24.5933L15.4346 23.911Z" fill="#1C202A"/>
<defs>
<linearGradient id="paint0_linear_296_225" x1="10.3984" y1="12.4607" x2="29.7116" y2="54.5757" gradientUnits="userSpaceOnUse">
<stop stop-color="white"/>
<stop offset="1" stop-color="white" stop-opacity="0"/>
</linearGradient>
<linearGradient id="paint1_linear_296_225" x1="18.0436" y1="1.81628" x2="34.3056" y2="44.5014" gradientUnits="userSpaceOnUse">
<stop stop-color="white"/>
<stop offset="1" stop-color="white" stop-opacity="0"/>
</linearGradient>
</defs>
</svg>
