<svg width="37" height="37" viewBox="0 0 37 37" fill="none" xmlns="http://www.w3.org/2000/svg">
<path d="M25.3652 18.5286V25.1888C25.3652 25.7779 25.3002 26.3343 25.1539 26.8416C24.5525 29.2471 22.5693 30.7526 19.8384 30.7526H15.417L10.5079 34.0418C9.77643 34.5491 8.80111 34.0091 8.80111 33.1254V30.7526C7.14308 30.7526 5.76138 30.1963 4.80232 29.2308C3.827 28.2489 3.27432 26.858 3.27432 25.1888V18.5286C3.27432 15.4195 5.19244 13.2758 8.1509 12.9976C8.36222 12.9812 8.57354 12.9648 8.80111 12.9648H19.8384C23.1545 12.9648 25.3652 15.1904 25.3652 18.5286Z" fill="#FFB7B6"/>
<path d="M28.9448 22.7281C30.8498 22.7281 32.4548 22.0981 33.5648 20.9731C34.6898 19.8631 35.3198 18.2581 35.3198 16.3531V8.70313C35.3198 5.17813 32.4698 2.32812 28.9448 2.32812H16.1948C12.6698 2.32812 9.81976 5.17813 9.81976 8.70313V9.82813C9.81976 10.2481 10.1498 10.5781 10.5698 10.5781H20.6048C24.6698 10.5781 27.9548 13.8631 27.9548 17.9281V21.9781C27.9548 22.3981 28.2848 22.7281 28.7048 22.7281H28.9448V22.7281Z" fill="#FFB7B6"/>
<path d="M9.74735 25.0605C9.63295 25.0605 9.53675 25.0215 9.45875 24.9435C9.38075 24.8655 9.34175 24.7693 9.34175 24.6549V19.3743C9.34175 19.2547 9.38075 19.1585 9.45875 19.0857C9.53675 19.0077 9.63295 18.9687 9.74735 18.9687H13.273C13.3926 18.9687 13.4888 19.0051 13.5616 19.0779C13.6344 19.1455 13.6708 19.2365 13.6708 19.3509C13.6708 19.4601 13.6344 19.5485 13.5616 19.6161C13.4888 19.6837 13.3926 19.7175 13.273 19.7175H10.153V21.6129H12.3916C12.5112 21.6129 12.6074 21.6493 12.6802 21.7221C12.753 21.7897 12.7894 21.8781 12.7894 21.9873C12.7894 22.0965 12.753 22.1875 12.6802 22.2603C12.6074 22.3279 12.5112 22.3617 12.3916 22.3617H10.153V24.3117H13.273C13.3926 24.3117 13.4888 24.3455 13.5616 24.4131C13.6344 24.4807 13.6708 24.5691 13.6708 24.6783C13.6708 24.7927 13.6344 24.8863 13.5616 24.9591C13.4888 25.0267 13.3926 25.0605 13.273 25.0605H9.74735ZM15.5131 25.0605C15.3987 25.0605 15.3025 25.0215 15.2245 24.9435C15.1517 24.8655 15.1153 24.7693 15.1153 24.6549V19.3743C15.1153 19.2547 15.1517 19.1585 15.2245 19.0857C15.3025 19.0077 15.3987 18.9687 15.5131 18.9687C15.6379 18.9687 15.7419 19.0181 15.8251 19.1169L19.2259 23.6409V19.3743C19.2259 19.2547 19.2649 19.1585 19.3429 19.0857C19.4209 19.0077 19.5171 18.9687 19.6315 18.9687C19.7511 18.9687 19.8473 19.0077 19.9201 19.0857C19.9929 19.1585 20.0293 19.2547 20.0293 19.3743V24.6549C20.0293 24.7693 19.9929 24.8655 19.9201 24.9435C19.8473 25.0215 19.7511 25.0605 19.6315 25.0605C19.5795 25.0605 19.5223 25.0501 19.4599 25.0293C19.4027 25.0033 19.3559 24.9669 19.3195 24.9201L15.9187 20.3961V24.6549C15.9187 24.7693 15.8797 24.8655 15.8017 24.9435C15.7289 25.0215 15.6327 25.0605 15.5131 25.0605Z" fill="#E41713"/>
<path d="M9.45875 24.9435L9.1052 25.2971L9.1052 25.2971L9.45875 24.9435ZM9.45875 19.0857L9.79991 19.4513L9.80621 19.4454L9.81231 19.4393L9.45875 19.0857ZM13.5616 19.0779L13.208 19.4315L13.2145 19.438L13.2213 19.4443L13.5616 19.0779ZM13.5616 19.6161L13.9018 19.9825L13.9018 19.9825L13.5616 19.6161ZM10.153 19.7175V19.2175H9.65295V19.7175H10.153ZM10.153 21.6129H9.65295V22.1129H10.153V21.6129ZM12.6802 21.7221L12.3266 22.0757L12.3331 22.0822L12.3399 22.0885L12.6802 21.7221ZM12.6802 22.2603L13.0204 22.6267L13.0272 22.6204L13.0337 22.6139L12.6802 22.2603ZM10.153 22.3617V21.8617H9.65295V22.3617H10.153ZM10.153 24.3117H9.65295V24.8117H10.153V24.3117ZM13.5616 24.4131L13.9018 24.0468L13.5616 24.4131ZM13.5616 24.9591L13.9018 25.3255L13.9086 25.3192L13.9151 25.3127L13.5616 24.9591ZM9.74735 24.5605C9.74723 24.5605 9.75034 24.5605 9.75601 24.5616C9.76178 24.5627 9.7691 24.5646 9.77725 24.5679C9.79501 24.5751 9.80699 24.5847 9.81231 24.59L9.1052 25.2971C9.28078 25.4727 9.50584 25.5605 9.74735 25.5605V24.5605ZM9.81231 24.59C9.81762 24.5953 9.82718 24.6073 9.83437 24.625C9.83768 24.6332 9.83964 24.6405 9.84071 24.6463C9.84176 24.652 9.84175 24.6551 9.84175 24.6549H8.84175C8.84175 24.8965 8.92962 25.1215 9.1052 25.2971L9.81231 24.59ZM9.84175 24.6549V19.3743H8.84175V24.6549H9.84175ZM9.84175 19.3743C9.84175 19.3692 9.84246 19.3804 9.83437 19.4003C9.82577 19.4216 9.81256 19.4395 9.79991 19.4513L9.11759 18.7202C8.92549 18.8995 8.84175 19.1347 8.84175 19.3743H9.84175ZM9.81231 19.4393C9.80699 19.4446 9.79501 19.4542 9.77725 19.4614C9.7691 19.4647 9.76178 19.4666 9.75601 19.4677C9.75034 19.4687 9.74723 19.4687 9.74735 19.4687V18.4687C9.50584 18.4687 9.28078 18.5566 9.1052 18.7322L9.81231 19.4393ZM9.74735 19.4687H13.273V18.4687H9.74735V19.4687ZM13.273 19.4687C13.282 19.4687 13.2747 19.4701 13.2579 19.4637C13.2396 19.4568 13.2217 19.4452 13.208 19.4315L13.9151 18.7244C13.7333 18.5426 13.502 18.4687 13.273 18.4687V19.4687ZM13.2213 19.4443C13.2043 19.4285 13.1889 19.4067 13.1792 19.3826C13.1702 19.36 13.1708 19.3469 13.1708 19.3509H14.1708C14.1708 19.1206 14.0922 18.8884 13.9018 18.7115L13.2213 19.4443ZM13.1708 19.3509C13.1708 19.3495 13.1712 19.3329 13.1811 19.3088C13.1915 19.2835 13.2069 19.2631 13.2213 19.2498L13.9018 19.9825C14.0872 19.8104 14.1708 19.5838 14.1708 19.3509H13.1708ZM13.2213 19.2497C13.2366 19.2356 13.2541 19.2257 13.2691 19.2205C13.2825 19.2157 13.2859 19.2175 13.273 19.2175V20.2175C13.4916 20.2175 13.7183 20.1529 13.9018 19.9825L13.2213 19.2497ZM13.273 19.2175H10.153V20.2175H13.273V19.2175ZM9.65295 19.7175V21.6129H10.653V19.7175H9.65295ZM10.153 22.1129H12.3916V21.1129H10.153V22.1129ZM12.3916 22.1129C12.4006 22.1129 12.3933 22.1143 12.3765 22.1079C12.3582 22.101 12.3403 22.0894 12.3266 22.0757L13.0337 21.3686C12.8519 21.1868 12.6206 21.1129 12.3916 21.1129V22.1129ZM12.3399 22.0885C12.3255 22.0752 12.3101 22.0548 12.2997 22.0295C12.2898 22.0054 12.2894 21.9888 12.2894 21.9873H13.2894C13.2894 21.7544 13.2058 21.5279 13.0204 21.3557L12.3399 22.0885ZM12.2894 21.9873C12.2894 21.9856 12.2898 21.9717 12.2978 21.9518C12.306 21.9313 12.3176 21.9158 12.3266 21.9068L13.0337 22.6139C13.2064 22.4412 13.2894 22.2202 13.2894 21.9873H12.2894ZM12.3399 21.8939C12.3552 21.8798 12.3727 21.8699 12.3877 21.8647C12.4011 21.8599 12.4045 21.8617 12.3916 21.8617V22.8617C12.6102 22.8617 12.8369 22.7971 13.0204 22.6267L12.3399 21.8939ZM12.3916 21.8617H10.153V22.8617H12.3916V21.8617ZM9.65295 22.3617V24.3117H10.653V22.3617H9.65295ZM10.153 24.8117H13.273V23.8117H10.153V24.8117ZM13.273 24.8117C13.2859 24.8117 13.2825 24.8136 13.2691 24.8088C13.2541 24.8036 13.2366 24.7937 13.2213 24.7795L13.9018 24.0468C13.7183 23.8764 13.4916 23.8117 13.273 23.8117V24.8117ZM13.2213 24.7795C13.2069 24.7662 13.1915 24.7458 13.1811 24.7205C13.1712 24.6964 13.1708 24.6798 13.1708 24.6783H14.1708C14.1708 24.4454 14.0872 24.2189 13.9018 24.0468L13.2213 24.7795ZM13.1708 24.6783C13.1708 24.6821 13.1703 24.6716 13.1775 24.6531C13.185 24.6337 13.1966 24.617 13.208 24.6056L13.9151 25.3127C14.0925 25.1353 14.1708 24.9092 14.1708 24.6783H13.1708ZM13.2213 24.5928C13.2366 24.5786 13.2541 24.5687 13.2691 24.5635C13.2825 24.5587 13.2859 24.5605 13.273 24.5605V25.5605C13.4916 25.5605 13.7183 25.4959 13.9018 25.3255L13.2213 24.5928ZM13.273 24.5605H9.74735V25.5605H13.273V24.5605ZM15.2245 24.9435L14.8589 25.2847L14.8648 25.291L14.8709 25.2971L15.2245 24.9435ZM15.2245 19.0857L14.8709 18.7322V18.7322L15.2245 19.0857ZM15.8251 19.1169L16.2247 18.8165L16.2164 18.8055L16.2075 18.7949L15.8251 19.1169ZM19.2259 23.6409L18.8262 23.9414L19.7259 25.1382V23.6409H19.2259ZM19.3429 19.0857L19.684 19.4513L19.6903 19.4454L19.6964 19.4393L19.3429 19.0857ZM19.9201 19.0857L19.5545 19.4269L19.5604 19.4332L19.5665 19.4393L19.9201 19.0857ZM19.4599 25.0293L19.253 25.4845L19.2769 25.4954L19.3018 25.5037L19.4599 25.0293ZM19.3195 24.9201L18.9198 25.2206L18.9248 25.2271L19.3195 24.9201ZM15.9187 20.3961L16.3183 20.0957L15.4187 18.8989V20.3961H15.9187ZM15.8017 24.9435L15.4481 24.59L15.442 24.5961L15.4361 24.6024L15.8017 24.9435ZM15.5131 24.5605C15.513 24.5605 15.5161 24.5605 15.5217 24.5616C15.5275 24.5627 15.5348 24.5646 15.543 24.5679C15.5607 24.5751 15.5727 24.5847 15.578 24.59L14.8709 25.2971C15.0465 25.4727 15.2716 25.5605 15.5131 25.5605V24.5605ZM15.59 24.6024C15.5963 24.6091 15.6045 24.6209 15.6102 24.636C15.6157 24.6504 15.6153 24.6585 15.6153 24.6549H14.6153C14.6153 24.886 14.6931 25.1071 14.8589 25.2847L15.59 24.6024ZM15.6153 24.6549V19.3743H14.6153V24.6549H15.6153ZM15.6153 19.3743C15.6153 19.3653 15.6166 19.3726 15.6102 19.3894C15.6033 19.4077 15.5917 19.4256 15.578 19.4393L14.8709 18.7322C14.6891 18.914 14.6153 19.1453 14.6153 19.3743H15.6153ZM15.578 19.4393C15.5727 19.4446 15.5607 19.4542 15.543 19.4614C15.5348 19.4647 15.5275 19.4666 15.5217 19.4677C15.5161 19.4687 15.513 19.4687 15.5131 19.4687V18.4687C15.2716 18.4687 15.0465 18.5566 14.8709 18.7322L15.578 19.4393ZM15.5131 19.4687C15.5076 19.4687 15.4907 19.4672 15.4701 19.4574C15.4501 19.4479 15.4415 19.4376 15.4426 19.439L16.2075 18.7949C16.0331 18.5878 15.7912 18.4687 15.5131 18.4687V19.4687ZM15.4254 19.4174L18.8262 23.9414L19.6255 23.3405L16.2247 18.8165L15.4254 19.4174ZM19.7259 23.6409V19.3743H18.7259V23.6409H19.7259ZM19.7259 19.3743C19.7259 19.3692 19.7266 19.3804 19.7185 19.4003C19.7099 19.4216 19.6967 19.4395 19.684 19.4513L19.0017 18.7202C18.8096 18.8995 18.7259 19.1347 18.7259 19.3743H19.7259ZM19.6964 19.4393C19.6911 19.4446 19.6791 19.4542 19.6614 19.4614C19.6532 19.4647 19.6459 19.4666 19.6401 19.4677C19.6345 19.4687 19.6314 19.4687 19.6315 19.4687V18.4687C19.39 18.4687 19.1649 18.5566 18.9893 18.7322L19.6964 19.4393ZM19.6315 19.4687C19.6366 19.4687 19.6254 19.4695 19.6055 19.4614C19.5843 19.4528 19.5664 19.4396 19.5545 19.4269L20.2856 18.7446C20.1063 18.5525 19.8711 18.4687 19.6315 18.4687V19.4687ZM19.5665 19.4393C19.5529 19.4256 19.5412 19.4077 19.5343 19.3894C19.528 19.3726 19.5293 19.3653 19.5293 19.3743H20.5293C20.5293 19.1453 20.4554 18.914 20.2736 18.7322L19.5665 19.4393ZM19.5293 19.3743V24.6549H20.5293V19.3743H19.5293ZM19.5293 24.6549C19.5293 24.6585 19.5289 24.6504 19.5343 24.636C19.54 24.6209 19.5482 24.6091 19.5545 24.6024L20.2856 25.2847C20.4514 25.1071 20.5293 24.886 20.5293 24.6549H19.5293ZM19.5545 24.6024C19.5664 24.5897 19.5843 24.5765 19.6055 24.5679C19.6254 24.5598 19.6366 24.5605 19.6315 24.5605V25.5605C19.8711 25.5605 20.1063 25.4768 20.2856 25.2847L19.5545 24.6024ZM19.6315 24.5605C19.6387 24.5605 19.6415 24.5613 19.639 24.5608C19.6365 24.5604 19.6296 24.5589 19.618 24.555L19.3018 25.5037C19.4023 25.5372 19.5137 25.5605 19.6315 25.5605V24.5605ZM19.6668 24.5742C19.6717 24.5764 19.6796 24.5807 19.6888 24.5879C19.6982 24.5952 19.7069 24.6038 19.7142 24.6132L18.9248 25.2271C19.0138 25.3416 19.1266 25.4271 19.253 25.4845L19.6668 24.5742ZM19.7191 24.6197L16.3183 20.0957L15.519 20.6966L18.9198 25.2206L19.7191 24.6197ZM15.4187 20.3961V24.6549H16.4187V20.3961H15.4187ZM15.4187 24.6549C15.4187 24.6551 15.4187 24.652 15.4197 24.6463C15.4208 24.6405 15.4227 24.6332 15.4261 24.625C15.4333 24.6073 15.4428 24.5953 15.4481 24.59L16.1552 25.2971C16.3308 25.1215 16.4187 24.8965 16.4187 24.6549H15.4187ZM15.4361 24.6024C15.448 24.5897 15.4659 24.5765 15.4871 24.5679C15.507 24.5598 15.5182 24.5605 15.5131 24.5605V25.5605C15.7527 25.5605 15.9879 25.4768 16.1672 25.2847L15.4361 24.6024Z" fill="#E41713"/>
</svg>
