<svg width="36" height="36" viewBox="0 0 36 36" fill="none" xmlns="http://www.w3.org/2000/svg">
<path d="M24.8 8.94118H28.2V32H7.8V8.94118H11.2V7.29412C11.2 6.42046 11.5582 5.58259 12.1958 4.96482C12.8335 4.34706 13.6983 4 14.6 4H21.4C22.3017 4 23.1665 4.34706 23.8042 4.96482C24.4418 5.58259 24.8 6.42046 24.8 7.29412V8.94118ZM29.9 8.94118H31.6C32.5017 8.94118 33.3665 9.28823 34.0042 9.906C34.6418 10.5238 35 11.3616 35 12.2353V28.7059C35 29.5795 34.6418 30.4174 34.0042 31.0352C33.3665 31.6529 32.5017 32 31.6 32H29.9V8.94118ZM6.1 8.94118V32H4.4C3.49826 32 2.63346 31.6529 1.99584 31.0352C1.35821 30.4174 1 29.5795 1 28.7059V12.2353C1 10.4235 2.53 8.94118 4.4 8.94118H6.1ZM14.6 7.29412V8.94118H21.4V7.29412H14.6Z" fill="url(#paint0_linear_265_2332)"/>
<defs>
<linearGradient id="paint0_linear_265_2332" x1="18" y1="18" x2="30" y2="42.5" gradientUnits="userSpaceOnUse">
<stop stop-color="white"/>
<stop offset="1" stop-color="white" stop-opacity="0"/>
</linearGradient>
</defs>
</svg>
