<svg width="36" height="36" viewBox="0 0 36 36" fill="none" xmlns="http://www.w3.org/2000/svg">
<path fill-rule="evenodd" clip-rule="evenodd" d="M7.53397 13.5C7.53397 7.69501 12.229 3 18.034 3C23.839 3 28.534 7.69501 28.534 13.5C28.534 15.675 27.889 17.67 26.779 19.335C25.159 21.735 22.594 23.43 19.609 23.865C19.099 23.955 18.574 24 18.034 24C17.494 24 16.969 23.955 16.459 23.865C13.474 23.43 10.909 21.735 9.28897 19.335C8.17897 17.67 7.53397 15.675 7.53397 13.5ZM21.379 14.415L22.624 13.17C23.359 12.435 23.119 11.7 22.114 11.535L20.509 11.265C20.224 11.22 19.909 10.98 19.789 10.74L18.904 8.97C18.424 8.00999 17.644 8.00999 17.164 8.97L16.279 10.74C16.159 10.98 15.844 11.22 15.574 11.265L13.969 11.535C12.949 11.7 12.709 12.435 13.444 13.17L14.719 14.415C14.929 14.625 15.034 15.045 14.974 15.33L14.614 16.875C14.329 18.09 14.974 18.555 16.054 17.925L17.554 17.04C17.824 16.875 18.274 16.875 18.544 17.04L20.044 17.925C21.124 18.57 21.769 18.09 21.484 16.875L21.124 15.33C21.049 15.03 21.169 14.625 21.379 14.415ZM4.08393 27.7052L6.55893 28.2902C7.11393 28.4252 7.54893 28.8452 7.66893 29.4002L8.19393 31.6052C8.47893 32.8052 10.0089 33.1802 10.8039 32.2352L15.2889 27.0752C15.6489 26.6552 15.4539 25.9952 14.9139 25.8602C12.2589 25.2152 9.87394 23.7302 8.11893 21.6152C7.83393 21.2702 7.32394 21.2252 7.00893 21.5402L3.67894 24.8702C2.53894 26.0102 2.94393 27.4352 4.08393 27.7052ZM31.909 27.7052L29.4341 28.2902C28.8791 28.4252 28.4441 28.8452 28.3241 29.4002L27.799 31.6052C27.514 32.8052 25.9841 33.1802 25.1891 32.2352L20.704 27.0752C20.344 26.6552 20.5391 25.9952 21.079 25.8602C23.7341 25.2152 26.119 23.7302 27.8741 21.6152C28.159 21.2702 28.6691 21.2252 28.984 21.5402L32.314 24.8702C33.4541 26.0102 33.049 27.4352 31.909 27.7052Z" fill="url(#paint0_linear_330_195)"/>
<defs>
<linearGradient id="paint0_linear_330_195" x1="15.8676" y1="12.0351" x2="19.6432" y2="55.3568" gradientUnits="userSpaceOnUse">
<stop stop-color="white"/>
<stop offset="1" stop-color="white" stop-opacity="0"/>
</linearGradient>
</defs>
</svg>
