<svg width="36" height="36" viewBox="0 0 36 36" fill="none" xmlns="http://www.w3.org/2000/svg">
<path d="M27.8103 6.17977L19.5603 3.08977C18.7053 2.77477 17.3103 2.77477 16.4553 3.08977L8.20526 6.17977C6.61526 6.77977 5.32526 8.63977 5.32526 10.3348V22.4848C5.32526 23.6998 6.12026 25.3048 7.09526 26.0248L15.3453 32.1898C16.8003 33.2848 19.1853 33.2848 20.6403 32.1898L28.8903 26.0248C29.8653 25.2898 30.6603 23.6998 30.6603 22.4848V10.3348C30.6753 8.63977 29.3853 6.77977 27.8103 6.17977ZM23.2203 14.5798L16.7703 21.0298C16.5453 21.2548 16.2603 21.3598 15.9753 21.3598C15.6903 21.3598 15.4053 21.2548 15.1803 21.0298L12.7803 18.5998C12.3453 18.1648 12.3453 17.4448 12.7803 17.0098C13.2153 16.5748 13.9353 16.5748 14.3703 17.0098L15.9903 18.6298L21.6453 12.9748C22.0803 12.5398 22.8003 12.5398 23.2353 12.9748C23.6703 13.4098 23.6703 14.1448 23.2203 14.5798Z" fill="#FFB7B6"/>
</svg>
