<svg width="421" height="143" viewBox="0 0 421 143" fill="none" xmlns="http://www.w3.org/2000/svg">
<path d="M256.277 93.1634C257.88 93.1634 259.054 92.5671 259.406 91.2631L259.474 91.0035C259.877 89.5139 258.633 89.1411 256.771 89.1411H254.203L253.119 93.1634H256.277ZM254.351 98.7489C256.189 98.7489 257.677 98.3021 258.092 96.7568L258.158 96.5154C258.529 95.1374 257.396 94.615 255.7 94.615H252.729L251.617 98.7489H254.351ZM249.06 99.6619L252.142 88.2099C252.287 87.6698 252.745 87.3722 253.429 87.3722H256.845C260.123 87.3722 262.491 88.3773 261.835 90.8163L261.784 91.0035C261.369 92.5488 260.257 93.4982 258.628 93.8892C260.04 94.3162 260.784 95.249 260.369 96.7944L260.328 96.9424C259.662 99.4189 257.699 100.5 254.422 100.5H249.896C249.212 100.5 248.917 100.201 249.06 99.6619V99.6619ZM271.009 94.4852L271.145 93.9814C271.61 92.2501 270.751 91.5061 269.029 91.5061C267.331 91.5061 266.009 92.3059 265.597 93.8334L265.422 94.4852H271.009V94.4852ZM262.72 96.384L263.311 94.1864C263.996 91.6359 266.031 90.0347 269.189 90.0347C272.326 90.0347 273.997 91.5243 273.306 94.0946L273.086 94.9126C272.94 95.4528 272.484 95.7516 271.801 95.7516H265.081L264.816 96.7386C264.417 98.2269 265.421 99.0477 267.001 99.0477C268.65 99.0477 269.871 98.6357 270.328 97.5566C270.523 97.1015 270.83 96.8866 271.513 96.8866H271.585C272.103 96.8866 272.587 97.0207 272.453 97.4647C271.887 99.3271 269.98 100.5 266.845 100.5C263.687 100.5 262.043 98.8985 262.72 96.384V96.384ZM275.263 103.032L277.115 100.444L275.558 90.9857C275.46 90.3881 275.885 90.0347 276.617 90.0347H276.805C277.416 90.0347 277.757 90.2401 277.821 90.7233L278.784 98.1153L283.738 90.7233C284.061 90.2417 284.514 90.0347 285.125 90.0347H285.455C286.233 90.0347 286.468 90.3881 286.047 90.9857L277.352 103.33C277.043 103.776 276.559 104 275.946 104H275.734C275.049 104 274.844 103.628 275.263 103.032ZM293.863 96.5522L294.564 93.9442C294.971 92.4364 294.059 91.6173 292.41 91.6173C290.712 91.6173 289.383 92.4365 288.978 93.9442L288.276 96.5522C287.859 98.0975 288.747 98.9171 290.445 98.9171C292.073 98.9171 293.448 98.0975 293.863 96.5522ZM286.143 96.3274L286.73 94.1496C287.402 91.6549 289.416 90.0355 292.599 90.0355C295.712 90.0355 297.373 91.6549 296.701 94.1496L296.116 96.3274C295.425 98.8977 293.366 100.5 290.256 100.5C287.073 100.5 285.454 98.8977 286.143 96.3274ZM297.93 99.6615L300.295 90.8733C300.44 90.3327 300.898 90.0339 301.558 90.0339C302.218 90.0339 302.52 90.3145 302.369 90.8733L302.163 91.6355C302.727 90.9473 303.914 90.0339 305.918 90.0339C308.581 90.0339 310.123 91.4875 309.423 94.0938L307.924 99.6615C307.779 100.202 307.321 100.5 306.638 100.5H306.544C305.862 100.5 305.563 100.202 305.71 99.6615L307.152 94.2992C307.622 92.5484 307.201 91.4875 305.102 91.4875C303.029 91.4875 302.076 92.4004 301.541 94.3914L300.122 99.6615C299.977 100.202 299.519 100.5 298.837 100.5H298.764C298.082 100.5 297.785 100.202 297.93 99.6615ZM319.117 96.1794L319.638 94.243C320.124 92.4364 319.343 91.4871 317.597 91.4871C315.736 91.4871 314.513 92.5302 314.027 94.3352L313.53 96.1794C313.03 98.0417 313.72 99.0651 315.559 99.0651C317.35 99.0651 318.61 98.0599 319.117 96.1794ZM311.254 96.403L311.875 94.0938C312.576 91.4871 314.382 90.0339 317.046 90.0339C319.05 90.0339 320.176 90.7613 320.366 91.4495L321.473 87.3354C321.617 86.7936 322.075 86.4964 322.759 86.4964H322.853C323.537 86.4964 323.834 86.7936 323.69 87.3354L320.371 99.6615C320.227 100.202 319.769 100.499 319.11 100.499C318.449 100.499 318.141 100.239 318.267 99.7731L318.503 98.8977C317.802 99.6615 316.917 100.499 314.701 100.499C312.037 100.499 310.539 99.0651 311.254 96.403ZM337.611 95.9562L336.902 89.2535L332.59 95.9562H337.611ZM327.781 99.5499L335.587 88.0615C335.9 87.595 336.361 87.3718 336.974 87.3718H337.729C338.34 87.3718 338.687 87.5768 338.745 88.0615L340.297 99.5499C340.373 100.146 339.901 100.5 339.147 100.5H338.982C338.369 100.5 338.074 100.276 338.017 99.7913L337.75 97.538H331.575L330.093 99.8107C329.775 100.297 329.292 100.5 328.681 100.5H328.398C327.643 100.5 327.385 100.146 327.781 99.5499ZM350.564 96.1794L351.085 94.243C351.571 92.4364 350.79 91.4871 349.046 91.4871C347.184 91.4871 345.961 92.5302 345.475 94.3352L344.978 96.1794C344.478 98.0417 345.169 99.0651 347.007 99.0651C348.797 99.0651 350.059 98.0599 350.564 96.1794ZM342.701 96.403L343.324 94.0938C344.023 91.4871 345.83 90.0339 348.495 90.0339C350.497 90.0339 351.623 90.7613 351.814 91.4495L352.92 87.3354C353.067 86.7936 353.523 86.4964 354.206 86.4964H354.3C354.984 86.4964 355.281 86.7936 355.138 87.3354L351.821 99.6615C351.674 100.202 351.216 100.499 350.557 100.499C349.896 100.499 349.589 100.239 349.714 99.7731L349.951 98.8977C349.249 99.6615 348.366 100.499 346.15 100.499C343.484 100.499 341.986 99.0651 342.701 96.403ZM363.247 96.1794L363.768 94.243C364.254 92.4364 363.473 91.4871 361.727 91.4871C359.866 91.4871 358.643 92.5302 358.157 94.3352L357.661 96.1794C357.161 98.0417 357.852 99.0651 359.69 99.0651C361.481 99.0651 362.741 98.0599 363.247 96.1794ZM355.384 96.403L356.006 94.0938C356.708 91.4871 358.514 90.0339 361.177 90.0339C363.18 90.0339 364.305 90.7613 364.496 91.4495L365.603 87.3354C365.75 86.7936 366.206 86.4964 366.891 86.4964H366.985C367.667 86.4964 367.964 86.7936 367.821 87.3354L364.502 99.6615C364.357 100.202 363.899 100.499 363.24 100.499C362.579 100.499 362.273 100.239 362.399 99.7731L362.634 98.8977C361.932 99.6615 361.049 100.499 358.832 100.499C356.169 100.499 354.668 99.0651 355.384 96.403ZM370.461 87.595C370.628 86.9808 371.37 86.4964 372.147 86.4964C372.925 86.4964 373.409 86.9808 373.243 87.595C373.077 88.2096 372.335 88.6939 371.557 88.6939C370.779 88.6939 370.297 88.2095 370.461 87.595ZM367.498 99.6615L369.862 90.8733C370.007 90.3315 370.465 90.0339 371.149 90.0339H371.22C371.904 90.0339 372.201 90.3315 372.054 90.8733L369.689 99.6615C369.546 100.202 369.088 100.499 368.404 100.499H368.334C367.65 100.499 367.351 100.202 367.497 99.6615H367.498ZM373.945 96.4592L375.274 91.5239H375.013C374.331 91.5239 374.013 91.3007 374.133 90.8539C374.255 90.4071 374.619 90.2773 375.281 90.0901C375.63 89.9967 375.927 89.8487 376.178 89.6311C376.421 89.4201 376.623 89.1451 376.787 88.7862C377.056 88.2293 377.344 87.9499 377.791 87.9499C378.215 87.9499 378.386 88.1914 378.27 88.6199L377.89 90.0343H379.728C380.414 90.0343 380.719 90.2955 380.589 90.7799C380.458 91.2631 380.011 91.5239 379.329 91.5239H377.489L376.227 96.2162C375.662 98.3199 375.621 98.8241 377.42 98.8799C378.121 98.8981 378.457 99.1411 378.323 99.6437C378.151 100.276 377.69 100.501 376.842 100.501C373.894 100.501 373.341 98.707 373.945 96.4592V96.4592ZM383.568 87.595C383.734 86.9808 384.476 86.4964 385.256 86.4964C386.032 86.4964 386.516 86.9808 386.35 87.595C386.183 88.2096 385.441 88.6939 384.664 88.6939C383.886 88.6939 383.404 88.2096 383.568 87.595ZM380.604 99.6615L382.969 90.8733C383.114 90.3315 383.573 90.0339 384.255 90.0339H384.326C385.01 90.0339 385.307 90.3315 385.162 90.8733L382.795 99.6615C382.653 100.202 382.195 100.499 381.511 100.499H381.44C380.756 100.499 380.459 100.202 380.604 99.6615ZM388.838 99.8111L387.419 90.9849C387.338 90.4071 387.767 90.0343 388.499 90.0343H388.711C389.322 90.0343 389.621 90.2409 389.679 90.7237L390.603 98.1902L395.456 90.7237C395.771 90.2393 396.254 90.0343 396.867 90.0343H397.22C397.998 90.0343 398.228 90.4071 397.837 90.9849L391.691 99.8111C391.376 100.276 390.915 100.499 390.303 100.499H389.856C389.243 100.499 388.902 100.276 388.838 99.8111ZM406.396 94.4852L406.532 93.9814C406.996 92.2501 406.138 91.5061 404.417 91.5061C402.718 91.5061 401.396 92.3059 400.986 93.8334L400.809 94.4852H406.396V94.4852ZM398.107 96.384L398.697 94.1864C399.383 91.6359 401.417 90.0347 404.575 90.0347C407.712 90.0347 409.386 91.5243 408.693 94.0946L408.472 94.9126C408.327 95.4528 407.871 95.7516 407.187 95.7516H400.468L400.203 96.7386C399.804 98.2269 400.808 99.0477 402.388 99.0477C404.038 99.0477 405.258 98.6357 405.715 97.5566C405.908 97.1015 406.217 96.8866 406.901 96.8866H406.972C407.489 96.8866 407.972 97.0207 407.84 97.4647C407.274 99.3271 405.367 100.5 402.232 100.5C399.074 100.5 397.43 98.8985 398.107 96.384V96.384ZM409.803 97.5953C409.834 97.037 410.368 96.72 411.052 96.72H411.13C411.78 96.72 411.989 96.9459 412.044 97.5015C412.149 98.5067 413.005 99.0093 414.444 99.0093C415.974 99.0093 417.46 98.6381 417.561 97.6511C417.798 95.3183 410.782 96.6642 411.347 92.8097C411.625 90.9192 413.629 90.0355 416.552 90.0355C419.334 90.0355 420.831 90.9849 420.802 92.8097C420.793 93.3415 420.254 93.6696 419.701 93.6696H419.604C418.943 93.6696 418.751 93.4041 418.708 92.8837C418.625 91.8785 417.847 91.5239 416.387 91.5239C414.737 91.5239 413.669 91.958 413.527 92.8654C413.127 95.3978 420.288 93.9458 419.772 97.6136C419.492 99.6002 417.483 100.5 414.277 100.5C411.521 100.5 409.69 99.4201 409.803 97.5953ZM117.226 64.7912L115.941 52.6285L108.117 64.7912H117.226ZM99.3918 71.311L113.553 50.4662C114.122 49.6212 114.96 49.2164 116.071 49.2164H117.439C118.551 49.2164 119.178 49.588 119.285 50.4662L122.101 71.311C122.238 72.3914 121.381 73.0337 120.011 73.0337H119.712C118.601 73.0337 118.065 72.6288 117.962 71.7507L117.48 67.6615H106.276L103.584 71.7843C103.01 72.6637 102.135 73.0337 101.023 73.0337H100.51C99.1408 73.0337 98.6724 72.3914 99.3918 71.311V71.311ZM130.001 71.5136C129.737 72.4939 128.907 73.0341 127.668 73.0341H127.496C126.255 73.0341 125.717 72.4939 125.982 71.5136L131.999 49.1483C132.262 48.1685 133.092 47.6279 134.332 47.6279H134.504C135.744 47.6279 136.282 48.1685 136.02 49.1483L132.51 62.1892H134.435L142.434 55.0286C143.183 54.3587 143.981 54.0472 145.006 54.0472H145.777C147.36 54.0472 147.652 54.8977 146.475 55.9056L137.596 63.5058L142.322 71.1757C142.971 72.2283 142.336 73.0341 140.753 73.0341H140.626C139.601 73.0341 138.969 72.7242 138.579 72.0538L134.401 64.8585H131.793L130.001 71.5136H130.001ZM161.21 65.1956L162.155 61.683C163.038 58.4067 161.618 56.6825 158.455 56.6825C155.076 56.6825 152.856 58.5741 151.976 61.852L151.075 65.1956C150.166 68.5741 151.419 70.4325 154.756 70.4325C158.004 70.4325 160.291 68.6077 161.21 65.1956ZM146.946 65.6021L148.072 61.4123C149.346 56.6824 152.621 54.048 157.453 54.048C161.088 54.048 163.129 55.3646 163.476 56.6156L165.485 49.1491C165.75 48.1689 166.579 47.6287 167.818 47.6287H167.99C169.23 47.6287 169.769 48.1689 169.506 49.1491L163.488 71.5128C163.225 72.4943 162.394 73.0333 161.198 73.0333C159.999 73.0333 159.443 72.5616 159.669 71.717L160.096 70.1281C158.826 71.5128 157.219 73.0333 153.199 73.0333C148.367 73.0333 145.646 70.4325 146.946 65.602L146.946 65.6021ZM185.046 62.1219L185.292 61.2105C186.136 58.0676 184.576 56.7165 181.455 56.7165C178.375 56.7165 175.973 58.1681 175.229 60.9394L174.911 62.1219H185.046V62.1219ZM170.007 65.5676L171.08 61.5817C172.325 56.9524 176.014 54.0484 181.745 54.0484C187.434 54.0484 190.468 56.7497 189.215 61.4128L188.816 62.8995C188.551 63.8782 187.72 64.42 186.481 64.42H174.292L173.811 66.2111C173.083 68.9124 174.907 70.3992 177.772 70.3992C180.766 70.3992 182.982 69.6525 183.811 67.6967C184.161 66.87 184.721 66.4806 185.962 66.4806H186.089C187.033 66.4806 187.905 66.7208 187.662 67.5278C186.642 70.9062 183.18 73.0337 177.491 73.0337C171.76 73.0337 168.778 70.1286 170.007 65.5676V65.5676ZM191.201 71.5136L195.49 55.5677C195.755 54.5874 196.586 54.0472 197.782 54.0472C198.98 54.0472 199.528 54.5553 199.254 55.5677L198.881 56.9539C199.902 55.703 202.059 54.0472 205.694 54.0472C210.526 54.0472 213.323 56.6817 212.051 61.4131L209.333 71.5136C209.07 72.4939 208.241 73.0341 207 73.0341H206.829C205.588 73.0341 205.051 72.4939 205.314 71.5136L207.931 61.7843C208.785 58.6081 208.022 56.6817 204.215 56.6817C200.453 56.6817 198.724 58.3374 197.75 61.9533L195.179 71.5136C194.915 72.4939 194.085 73.0341 192.844 73.0341H192.715C191.476 73.0341 190.936 72.4939 191.201 71.5136V71.5136ZM219.715 49.6216C220.014 48.5076 221.362 47.6279 222.774 47.6279C224.186 47.6279 225.061 48.5076 224.76 49.6216C224.462 50.7372 223.114 51.6154 221.701 51.6154C220.289 51.6154 219.414 50.7372 219.715 49.6216ZM214.337 71.5136L218.628 55.5677C218.891 54.5874 219.722 54.0488 220.961 54.0488H221.09C222.331 54.0488 222.87 54.5874 222.605 55.5677L218.315 71.5136C218.052 72.4939 217.221 73.0341 215.98 73.0341H215.852C214.613 73.0341 214.074 72.4939 214.337 71.5136ZM223.399 71.2093L236.696 56.9187H228.57C227.329 56.9187 226.782 56.4122 227.038 55.4671C227.282 54.5538 228.104 54.0472 229.343 54.0472H241.19C242.687 54.0472 243.079 54.7872 242.067 55.872L228.727 70.1638H237.025C238.265 70.1638 238.813 70.6691 238.566 71.5805C238.311 72.5271 237.491 73.0341 236.251 73.0341H224.275C222.78 73.0341 222.39 72.2952 223.399 71.2093L223.399 71.2093ZM254.174 64.7568L256.137 57.4597C257.473 52.4979 261.948 49.2156 267.893 49.2156C273.451 49.2156 276.885 52.1892 276.305 56.4126C276.161 57.4261 275.45 57.9999 274.169 57.9999H273.783C272.585 57.9999 272.082 57.4929 272.112 56.5816C272.173 54.2835 271.005 52.4255 267.541 52.4255C264.59 52.4255 261.283 53.9123 260.356 57.3592L258.337 64.8589C257.456 68.1356 259.566 69.8246 262.86 69.8246C266.582 69.8246 268.812 67.7292 269.796 65.5012C270.224 64.5545 270.958 64.0476 272.156 64.0476H272.541C273.782 64.0476 274.192 64.6147 273.823 65.6365C272.18 70.1962 268.24 73.0345 262.552 73.0345C256.607 73.0345 252.866 69.6224 254.174 64.7568V64.7568ZM277.074 71.5136L283.093 49.1483C283.355 48.1685 284.185 47.6279 285.426 47.6279H285.555C286.794 47.6279 287.333 48.1685 287.069 49.1483L284.959 56.9876C286.31 54.9938 288.789 54.0472 291.781 54.0472C296.017 54.0472 299.335 56.1751 298.008 61.1088L295.208 71.5136C294.945 72.4939 294.114 73.0341 292.875 73.0341H292.704C291.463 73.0341 290.924 72.4939 291.187 71.5136L293.824 61.7159C294.678 58.5413 294.057 56.7165 290.079 56.7165C286.145 56.7165 284.588 58.3723 283.616 61.987L281.052 71.5137C280.789 72.4939 279.958 73.0341 278.717 73.0341H278.59C277.35 73.0341 276.811 72.4939 277.074 71.5137V71.5136ZM316.339 62.1219L316.585 61.2105C317.431 58.0676 315.867 56.7165 312.746 56.7165C309.667 56.7165 307.266 58.1681 306.52 60.9394L306.202 62.1219H316.339V62.1219ZM301.299 65.5676L302.372 61.5817C303.616 56.9524 307.306 54.0484 313.036 54.0484C318.727 54.0484 321.763 56.7497 320.506 61.4128L320.107 62.8995C319.842 63.8782 319.013 64.42 317.772 64.42H305.585L305.105 66.2111C304.376 68.9124 306.2 70.3992 309.065 70.3992C312.059 70.3992 314.275 69.6525 315.104 67.6967C315.454 66.87 316.014 66.4806 317.254 66.4806H317.384C318.324 66.4806 319.199 66.7208 318.955 67.5278C317.935 70.9062 314.473 73.0337 308.784 73.0337C303.053 73.0337 300.071 70.1286 301.299 65.5676V65.5676ZM322.493 71.5136L326.786 55.5677C327.047 54.5874 327.836 54.0472 329.076 54.0472C330.275 54.0472 330.812 54.5874 330.557 55.534L330.294 56.5143C331.156 55.534 332.712 54.0472 335.917 54.0472C338.483 54.0472 340.958 55.0287 341.601 57.0881C342.831 55.534 345.028 54.0472 348.363 54.0472C352.553 54.0472 354.67 56.5143 353.525 60.7709L350.634 71.5137C350.372 72.4939 349.542 73.0341 348.301 73.0341H348.131C346.89 73.0341 346.351 72.4939 346.615 71.5137L349.658 60.197C350.287 57.8641 349.273 56.5475 346.622 56.5475C343.969 56.5475 342.264 57.7973 341.656 60.0617L338.573 71.5137C338.312 72.4939 337.48 73.0341 336.241 73.0341H336.069C334.83 73.0341 334.29 72.4939 334.553 71.5137L337.598 60.197C338.262 57.73 337.084 56.5475 334.562 56.5475C331.952 56.5475 330.17 57.7636 329.552 60.0617L326.471 71.5137C326.208 72.4939 325.377 73.0341 324.137 73.0341H324.009C322.769 73.0341 322.23 72.4939 322.493 71.5137V71.5136ZM355.792 67.764C355.85 66.7501 356.816 66.1767 358.057 66.1767H358.199C359.379 66.1767 359.758 66.5871 359.856 67.595C360.051 69.4198 361.601 70.3312 364.209 70.3312C366.989 70.3312 369.684 69.6556 369.868 67.8645C370.299 63.6313 357.568 66.0746 358.593 59.0814C359.096 55.6516 362.733 54.0472 368.036 54.0472C373.083 54.0472 375.799 55.7699 375.748 59.0814C375.734 60.0463 374.754 60.6411 373.749 60.6411H373.574C372.378 60.6411 372.026 60.1634 371.948 59.2172C371.798 57.3924 370.388 56.7501 367.737 56.7501C364.741 56.7501 362.805 57.5377 362.547 59.182C361.822 63.7765 374.815 61.1421 373.878 67.7972C373.373 71.4021 369.727 73.0341 363.911 73.0341C358.908 73.0341 355.585 71.0752 355.792 67.764V67.764ZM392.268 65.872L393.54 61.1421C394.277 58.4055 392.623 56.9187 389.629 56.9187C386.551 56.9187 384.14 58.4055 383.403 61.1421L382.131 65.872C381.378 68.6754 382.988 70.1622 386.066 70.1622C389.018 70.1622 391.513 68.6754 392.268 65.872ZM378.264 65.4655L379.328 61.5149C380.546 56.9872 384.202 54.0484 389.974 54.0484C395.621 54.0484 398.635 56.9872 397.418 61.5149L396.354 65.4655C395.101 70.1285 391.366 73.0337 385.722 73.0337C379.948 73.0337 377.009 70.1285 378.264 65.4655ZM399.644 71.5137L403.937 55.5677C404.199 54.5874 405.029 54.0472 406.227 54.0472C407.425 54.0472 407.971 54.5553 407.699 55.5677L407.325 56.9539C408.348 55.703 410.504 54.0472 414.138 54.0472C418.971 54.0472 421.767 56.6817 420.494 61.4132L417.778 71.5137C417.515 72.4939 416.684 73.0341 415.445 73.0341H415.274C414.033 73.0341 413.494 72.4939 413.757 71.5137L416.377 61.7844C417.23 58.6081 416.465 56.6817 412.66 56.6817C408.896 56.6817 407.167 58.3375 406.193 61.9533L403.622 71.5136C403.359 72.4939 402.528 73.0341 401.287 73.0341H401.16C399.92 73.0341 399.382 72.4939 399.644 71.5136V71.5137ZM61.3592 40H87.1247C88.6622 40 89.7543 41.1825 89.2859 42.34L88.1251 45.2131C87.8246 45.9559 86.9499 46.4597 85.962 46.4597H75.6427C74.6262 46.4597 73.732 46.9943 73.4565 47.7664L64.392 73.1401C63.9823 74.285 65.0723 75.4216 66.5763 75.4216H72.2071C73.75 75.4216 74.8436 76.6124 74.3647 77.7711L73.6829 79.4241C73.3788 80.1626 72.5077 80.6624 71.5248 80.6624H46.2652C44.7258 80.6624 43.6317 79.4787 44.1036 78.3196L59.1981 41.2454C59.5002 40.5042 60.3733 40 61.3592 40H61.3592ZM55.2374 41.3135C53.7105 39.6731 51.2823 39.6787 49.8756 40.7286L19.8885 63.095C28.8678 62.5521 39.7016 61.3878 48.6493 59.5674C41.7075 62.192 31.2133 65.0457 16.8542 66.411C16.3257 66.4624 15.7937 66.5016 15.2636 66.5451L0.999719 77.1858C-0.677509 78.4367 0.44315 80.662 2.74758 80.662H38.3515C39.4576 80.662 40.4365 80.0996 40.7777 79.269L55.5435 43.1564C55.796 42.5379 55.7254 41.8382 55.2374 41.3135V41.3135Z" fill="#144F90"/>
</svg>
