<svg width="165" height="143" viewBox="0 0 165 143" fill="none" xmlns="http://www.w3.org/2000/svg">
<g clip-path="url(#clip0_559_1407)">
<path d="M127.498 74.8678C127.716 76.4607 129.335 77.1174 130.338 75.9157C130.182 74.8007 128.579 74.1943 127.498 74.8678Z" fill="white"/>
<path d="M165.476 51.2346C164.049 48.563 160.762 48.4624 159.773 51.2374C160.79 53.1069 164.001 53.1265 165.476 51.2346Z" fill="white"/>
<path d="M157.16 40.8528C157.107 40.034 156.294 39.5729 155.711 39C155.261 39.9222 155.381 40.5761 155.415 41.2776C156.253 41.6912 156.856 41.5934 157.16 40.8528Z" fill="white"/>
<path d="M158.051 46.61C157.032 45.3776 157.213 43.5891 154.926 42.9464C154.077 43.0218 153.748 43.4186 152.86 42.7731C153.134 42.217 153.801 41.6217 152.782 41.387C151.964 42.5803 151.229 44.1788 149.372 43.8266C149.126 44.3241 149.076 45.2267 148.529 45.073C147.741 44.1117 146.225 43.4913 145.373 42.5635C144.678 43.0106 144.024 43.5304 142.991 43.2454C142.26 42.4964 142.824 41.1411 141.623 40.6101C141.193 40.6073 140.81 40.7051 140.623 41.2165C140.498 42.1303 141.589 42.4741 141.366 43.4298C140.257 43.5807 139.853 45.263 138.722 45.372C136.65 42.9352 133.17 41.686 130.411 41.563C129.476 43.2845 127.619 41.1467 126.471 42.2589C125.949 41.4848 125.756 38.4164 124.929 39.5649C125.845 40.054 126.194 42.0884 125.815 42.9911C125.446 43.8741 124.508 43.768 123.93 44.4386C122.866 45.6766 122.885 47.2611 122.26 48.488C121.953 48.6417 121.408 48.2979 121.106 48.4544C120.928 49.2481 121.271 49.7986 121.104 50.5867C120.285 51.0729 119.512 51.6598 118.641 52.0398C118.736 51.8302 118.775 51.6514 118.652 51.5536C118.155 52.5876 116.546 52.4143 115.921 51.6626C115.396 51.9364 115.34 52.6491 114.502 52.6351C113.522 52.8111 113.505 51.9392 112.827 51.7883C112.263 51.8275 112.198 52.3361 111.654 52.3975C111.861 52.1097 111.995 51.8442 111.439 51.6682C111.305 51.833 111.171 52.0119 111.034 52.1879C110.83 51.9113 110.78 51.4642 110.26 51.5284C110.057 52.2187 110.135 53.1688 109.046 53.0375C108.507 52.8586 108.875 51.7045 107.909 51.9895L107.973 53.6271C107.767 53.6244 107.635 53.6942 107.521 53.7753C106.935 53.208 106.139 52.7189 105.667 52.1125C105.108 52.4115 104.567 52.7692 103.793 52.4898C103.282 51.8666 103.796 50.8605 102.908 50.3771C102.578 50.3491 102.279 50.4022 102.104 50.7823C101.947 51.4753 102.768 51.8107 102.539 52.5289C101.674 52.5792 101.26 53.8423 100.381 53.8591C98.9397 51.8554 96.3454 50.6789 94.2287 50.4106C93.4021 51.6738 92.112 49.916 91.157 50.6985C90.8051 50.0697 90.847 47.6971 90.1405 48.5299C90.8163 48.9658 90.9559 50.5475 90.6068 51.221C90.2662 51.875 89.5541 51.7352 89.0682 52.2159C88.1718 53.1018 88.088 54.3202 87.5295 55.2256C87.2866 55.3234 86.8956 55.0244 86.6471 55.125C86.4572 55.7259 86.689 56.1702 86.513 56.7682C85.7339 57.1483 85.0051 57.6569 84.159 57.8553C84.2846 58.3388 84.5108 58.7803 84.3963 59.356C84.3042 59.4091 84.226 59.4845 84.145 59.5544C84.1338 59.5432 84.1199 59.532 84.1115 59.5181C83.553 59.8171 83.014 60.1748 82.2377 59.8953C81.7239 59.2722 82.2433 58.2661 81.3525 57.7827C81.023 57.7547 80.727 57.8078 80.5483 58.1879C80.3919 58.8809 81.2129 59.2163 80.9811 59.9345C80.1154 59.9848 79.7021 61.2479 78.8225 61.2647C77.3816 59.261 74.7873 58.0845 72.6706 57.8162C71.8441 59.0793 70.5539 57.3216 69.5989 58.1068C69.247 57.478 69.2889 55.1055 68.5824 55.9382C69.2582 56.3742 69.3978 57.9587 69.0488 58.6294C68.7109 59.2833 67.996 59.1436 67.5101 59.6243C66.6472 60.4766 66.5327 61.6391 66.0245 62.5334C65.9212 62.5586 65.8206 62.5977 65.7229 62.634C65.5079 62.5865 65.2649 62.4607 65.0918 62.5334C65.0806 62.5725 65.0806 62.6061 65.0723 62.6424C65.022 62.6228 64.9745 62.6089 64.9187 62.5809C64.3741 62.3154 64.8907 61.5441 64.187 61.3569C63.743 61.9214 63.4694 62.8352 62.5032 62.3126C62.0703 61.9493 62.8355 61.0076 61.833 60.9181L61.2912 62.4663C60.7551 62.2484 60.554 62.7234 59.9676 62.3909C59.2415 62.1673 59.6269 61.4072 58.8338 61.22C58.454 61.4016 58.7333 61.9968 58.3535 62.5977C57.3063 62.7905 56.1363 62.961 55.0165 62.2009C54.2793 62.7737 54.4161 63.4416 53.8911 64.3191C53.4303 64.6042 52.8858 64.7104 52.3357 64.7998C52.2575 64.5343 52.2072 64.2576 52.2407 63.9391C52.9361 63.4444 53.2795 62.6144 53.3773 61.7453C53.8464 61.7397 54.3016 61.7733 54.6814 61.9074C55.6392 60.5325 57.3426 60.063 57.795 57.615C57.8397 57.3802 57.8034 57.1623 57.7503 56.9583C58.3535 56.9694 58.8254 56.7151 59.2555 56.3602C58.6076 56.2149 58.1106 56.3854 57.6721 56.6732C57.5856 56.3798 57.5213 56.1031 57.6749 55.8237C58.2474 54.7813 59.4901 55.3598 59.9005 54.5018C59.0684 54.6444 58.3842 55.1139 57.4096 54.949C56.3904 53.7166 56.5691 51.9281 54.2848 51.2853C53.4359 51.3608 53.1092 51.7576 52.2156 51.1093C52.4893 50.5531 53.1595 49.9579 52.1374 49.7232C51.6627 50.419 51.2047 51.2462 50.5429 51.752C49.8839 51.6346 49.4036 51.316 49.4371 50.4078C49.6828 50.011 50.635 49.5583 50.434 49.2117C49.5906 49.9858 48.1609 49.2369 47.8537 48.3091C47.2645 48.3706 46.9517 49.0077 46.1782 48.6864C45.2008 48.4935 45.5052 47.6747 44.93 47.2835C44.3128 47.0879 44.0838 47.7027 43.3746 47.3198C42.8328 47.0543 43.3494 46.2831 42.6457 46.0986C42.2017 46.6631 41.928 47.5769 40.959 47.0516C40.5262 46.6911 41.2941 45.7493 40.2888 45.6571L39.7471 47.2081C39.2109 46.9901 39.0127 47.4624 38.4235 47.1298C37.6974 46.9062 38.0856 46.1461 37.2869 45.9617C36.9099 46.1405 37.1892 46.7358 36.8066 47.3394C35.7594 47.535 34.5894 47.7027 33.4696 46.9426C32.7323 47.5155 32.8664 48.1833 32.3442 49.0608C31.1322 49.8126 29.3171 49.3151 28.3453 50.5587C28.3593 50.5615 28.3649 50.5699 28.3788 50.5755C27.516 50.4553 26.5414 49.9104 25.8293 50.5951C25.3071 49.821 25.1172 46.7497 24.2906 47.8983C25.2066 48.3902 25.5528 50.4246 25.1731 51.3272C24.8045 52.2075 23.8634 52.1041 23.2881 52.772C22.2214 54.0128 22.2409 55.5973 21.6182 56.8213C21.311 56.9834 20.7721 56.6313 20.4649 56.7906C20.2834 57.587 20.6297 58.1348 20.4621 58.9256C19.4959 59.4985 18.6079 60.2307 17.5328 60.5716C17.745 61.1864 18.0885 61.7342 17.9963 62.4887C17.1586 63.0644 16.8179 64.1291 16.7956 65.1687C16.3544 65.1743 15.9299 65.1435 15.5669 65.0206C14.6258 66.4095 12.9252 66.9013 12.5035 69.3577C12.5007 69.3745 12.5035 69.3912 12.5007 69.408C11.8445 69.3521 11.3335 69.6092 10.8755 69.9753C11.5345 70.1318 12.0427 69.9557 12.4951 69.6595C12.537 70.2156 12.9056 70.6739 12.6543 71.149C12.0958 72.1998 10.8448 71.6353 10.4454 72.4988C11.2748 72.3451 11.9506 71.8644 12.928 72.0153C13.9668 73.2338 13.8048 75.0279 16.103 75.6371C16.952 75.5504 17.2759 75.148 18.1751 75.7824C17.907 76.3441 17.2452 76.9477 18.27 77.1685C18.3957 76.9813 18.5185 76.7856 18.6414 76.5872C18.8062 76.7465 18.9681 76.9058 18.9737 77.1266C18.6358 77.9174 18.3314 78.8033 17.6585 78.7334C17.2172 78.5378 16.7397 78.2472 16.4242 78.3785C15.835 78.8313 16.2147 79.0185 16.0695 79.6193C15.3267 79.4768 14.5895 79.3678 13.8495 79.2253C13.5619 79.9155 12.8861 79.597 12.685 80.5024C13.2687 81.4973 14.4359 81.4414 15.5864 81.5979C15.6032 82.0031 16.2064 82.1903 15.8796 82.7297C14.57 83.0007 15.3826 84.2303 15.3965 84.7082C15.4133 85.3649 15.0391 86.8963 14.7794 87.4301C13.5144 90.0458 11.3195 88.5032 10.0126 86.4939C8.82858 86.9718 7.05814 87.1534 5.94114 86.67C4.88558 87.9778 3.15144 88.3272 2.52871 90.7389C2.34999 91.4263 2.8666 92.002 2.52592 92.5358C1.88085 93.5334 0.682869 92.8683 0.210938 93.6983C1.05148 93.6117 1.76357 93.1925 2.72698 93.4244C3.65967 94.7267 3.3525 96.4984 5.58929 97.2977C6.441 97.2837 6.79564 96.9092 7.64177 97.6163C7.32622 98.1528 6.61972 98.7006 7.62222 99.0024C8.52141 97.8706 9.36474 96.328 11.1994 96.8086C11.4731 96.3252 11.5904 95.4281 12.1265 95.6237C12.8414 96.6382 14.313 97.362 15.1005 98.3512C15.821 97.9544 16.5163 97.4821 17.5244 97.8314C18.1974 98.6307 17.5412 99.9441 18.7001 100.556C19.1273 100.587 19.5155 100.52 19.7389 100.022C19.9315 99.1197 18.8648 98.7006 19.1524 97.7644C20.2722 97.6861 20.7944 96.0429 21.9282 96.0122C23.8243 98.586 27.206 100.075 29.9482 100.394C31.001 98.7425 32.7016 101.006 33.9275 99.9749C34.3911 100.785 34.3715 103.859 35.2735 102.769C34.3939 102.216 34.1872 100.165 34.6312 99.2902C35.0641 98.4351 35.9884 98.6083 36.6139 97.9796C37.7616 96.8198 37.851 95.2381 38.5631 94.056C38.8786 93.9219 39.3952 94.3047 39.7108 94.1706C39.9035 93.525 39.7415 93.0164 39.803 92.4184C39.8113 92.4212 39.8141 92.424 39.8197 92.424C39.937 92.2479 40.0543 92.0607 40.1716 91.8735C40.367 91.7673 40.5625 91.6639 40.758 91.5549C40.7329 92.8515 41.8582 93.729 43.0785 93.0639C43.2852 92.2116 42.5647 91.3341 41.646 91.0854C42.0481 90.887 42.4586 90.7081 42.897 90.5991C42.8356 90.3644 42.7546 90.1352 42.6848 89.9033C42.8496 89.8977 43.0143 89.8977 43.2014 89.9312C43.436 89.431 43.4779 88.5256 44.0224 88.6737C44.8211 89.6266 46.3486 90.2247 47.2142 91.1413C47.8984 90.6886 48.5518 90.1604 49.5851 90.4287C50.3279 91.1664 49.7805 92.5302 50.9897 93.0444C51.4142 93.0388 51.7939 92.9354 51.9754 92.424C52.0955 91.5074 50.9953 91.1804 51.1991 90.2191C52.3133 90.0514 52.6903 88.3663 53.8185 88.2405C55.924 90.6494 59.4174 91.8483 62.1792 91.9349C63.0952 90.2051 64.9773 92.315 66.1139 91.1888C66.6444 91.9545 66.879 95.0229 67.686 93.8632C66.7617 93.3825 66.3875 91.3565 66.7561 90.4482C67.1136 89.5624 68.0546 89.6546 68.6215 88.9727C69.5207 87.8968 69.6184 86.575 70.0178 85.4376C70.5539 85.5298 71.0621 85.9909 71.1739 86.4827C71.6346 86.48 71.9194 86.0105 72.4919 86.3123C73.2291 86.5359 72.9359 87.1395 73.3492 87.4804C73.8072 87.676 74.0306 87.2233 74.5472 87.5698C74.9437 87.813 74.4913 88.3663 75.0163 88.5591C75.3989 88.1623 75.6754 87.4804 76.3791 87.9499C76.689 88.2629 76.0328 88.9308 76.7952 89.0705L77.3229 87.9192C77.7195 88.1287 77.9066 87.7766 78.3338 88.0784C78.8756 88.2992 78.5237 88.8553 79.1213 89.0621C79.4257 88.9476 79.2498 88.4697 79.5904 88.0365C80.4086 87.9639 81.3218 87.9192 82.126 88.5815C82.732 88.1986 82.6789 87.676 83.1425 87.0389C84.1255 86.5498 85.4826 87.064 86.3232 86.1781C85.8791 86.0272 85.9713 85.6751 85.7311 85.4432C85.9936 84.0459 87.0185 84.7138 87.577 84.1241C87.5686 83.772 87.0576 83.6099 87.0464 83.2606C87.3145 82.6514 87.563 81.9723 88.0768 82.031C88.4147 82.1875 88.7805 82.4167 89.0291 82.3161C89.487 81.9695 89.1938 81.8242 89.3111 81.3631C89.8724 81.4721 90.4253 81.5643 90.9866 81.6761C90.7269 82.3831 90.5789 83.1852 90.8051 84.2527C90.9531 84.9485 91.6708 85.2364 91.5982 85.8652C91.4669 87.0473 90.0958 86.983 90.04 87.9331C90.7576 87.486 91.21 86.7902 92.1734 86.5666C93.5864 87.3183 94.1003 89.0454 96.4571 88.7659C97.2139 88.3719 97.3647 87.8828 98.437 88.1371C98.3951 88.7547 98.0042 89.5623 99.0346 89.3891C99.3362 87.975 99.4088 86.2173 101.26 85.8316C101.294 85.2811 101.001 84.4232 101.565 84.3589C102.659 84.9513 104.298 84.9457 105.441 85.4767C105.913 84.8004 106.323 84.071 107.384 83.9397C108.345 84.3533 108.336 85.8232 109.649 85.854C110.045 85.6919 110.358 85.4599 110.341 84.915C110.112 84.0235 108.97 84.1186 108.808 83.1516C109.78 82.5871 109.515 80.8825 110.52 80.3459C113.36 81.8103 117.052 81.6398 119.652 80.7008C119.861 78.7558 122.388 80.0245 123.031 78.5602C123.81 79.0744 125.153 81.841 125.48 80.4633C124.444 80.3571 123.349 78.6105 123.357 77.6324C123.363 76.6767 124.273 76.4168 124.55 75.5756C125.061 74.0274 124.444 72.5686 124.555 71.1993C124.77 70.9422 125.376 71.04 125.614 70.7997C125.647 70.8332 125.675 70.8696 125.717 70.8975C126.331 71.0987 126.571 70.4951 127.272 70.8835C127.811 71.1546 127.283 71.9175 127.987 72.1131C128.44 71.5598 128.727 70.646 129.685 71.1826C130.115 71.5514 129.339 72.4848 130.336 72.5882L130.9 71.0456C131.43 71.2692 131.637 70.7969 132.221 71.1378C132.944 71.3726 132.545 72.1271 133.34 72.3255C133.723 72.1495 133.449 71.5514 133.84 70.9534C134.893 70.7717 136.066 70.6208 137.172 71.3921C137.917 70.8304 137.792 70.1625 138.325 69.2906C139.545 68.5529 141.352 69.0782 142.343 67.8458C141.751 67.6922 141.832 67.2311 141.506 66.96C141.693 65.1212 143.089 65.8841 143.748 65.0597C143.701 64.607 143.016 64.4533 142.969 64.0005C143.257 63.1845 143.5 62.2819 144.173 62.3042C144.628 62.4691 145.125 62.7262 145.432 62.5697C145.988 62.0751 145.594 61.9186 145.697 61.3066C146.448 61.396 147.188 61.4547 147.94 61.5441C148.177 60.8343 148.872 61.1082 149.015 60.1888C148.361 59.2386 147.197 59.3728 146.043 59.3001C145.996 58.8949 145.384 58.7524 145.672 58.1907C146.959 57.8246 146.06 56.6592 146.016 56.1814C145.951 55.5302 146.219 53.9765 146.44 53.4259C147.521 50.7264 149.819 52.1097 151.265 54.024C152.41 53.4623 154.158 53.1577 155.312 53.5601C156.275 52.1824 157.979 51.7185 158.428 49.2648C158.559 48.5662 158.001 48.0269 158.308 47.4763C158.881 46.434 160.123 47.0124 160.539 46.1545C159.71 46.3054 159.026 46.7749 158.051 46.61ZM13.2854 90.356C13.0816 90.2973 13.0089 90.1855 13.0285 90.0402C13.4306 88.9867 15.1452 88.4054 16.2873 88.1036C16.0863 89.5624 13.8718 88.7128 13.2854 90.356ZM20.1382 74.9301C20.2108 74.9776 20.2722 75.0335 20.3309 75.0949C20.0768 75.4275 19.7305 75.5253 19.373 75.584C19.5964 75.3213 19.8478 75.0977 20.1382 74.9301ZM118.331 52.6267C118.473 52.9788 118.604 53.3337 118.641 53.7333C118.448 53.5964 118.286 53.3728 118.169 53.0319C118.188 52.9145 118.255 52.7748 118.331 52.6267ZM83.2821 67.041C83.3715 66.9292 83.4971 66.851 83.6396 66.7895C83.7959 66.8901 83.9384 67.0019 84.0473 67.1332C83.8993 67.1863 83.7541 67.2366 83.6088 67.2814C83.5027 67.1975 83.391 67.1221 83.2821 67.041ZM144.907 52.8726C145.007 51.4027 147.278 52.0957 147.744 50.4162C147.951 50.4609 148.029 50.5643 148.021 50.7096C147.699 51.7939 146.024 52.4898 144.907 52.8726Z" fill="white"/>
<path d="M76.0133 47.8418C75.4827 48.1464 73.958 48.3476 74.1423 48.8926C74.6729 48.5852 76.1976 48.3867 76.0133 47.8418Z" fill="white"/>
<path d="M20.3044 52.3158C20.7065 50.7592 19.4611 49.5352 18.076 50.2618C17.7995 51.3572 19.045 52.5226 20.3044 52.3158Z" fill="white"/>
<path d="M39.5721 98.6503C39.061 100.173 40.2199 101.484 41.6497 100.858C42.0043 99.7848 40.8427 98.5329 39.5721 98.6503Z" fill="white"/>
<path d="M78.4704 55.3094C78.4815 54.7226 77.9258 54.3369 77.5405 53.8926C77.1607 54.5297 77.2082 55.0076 77.1914 55.5162C77.7722 55.8599 78.2107 55.8208 78.4704 55.3094Z" fill="white"/>
<path d="M72.3571 47.9032C72.3683 47.3163 71.8126 46.9307 71.4272 46.4863C71.0474 47.1235 71.0949 47.6014 71.0781 48.11C71.659 48.4537 72.0946 48.4146 72.3571 47.9032Z" fill="white"/>
<path d="M65.2449 59.0842C65.6498 57.9133 64.773 56.8932 63.6615 57.3683C63.3767 58.1927 64.2619 59.1652 65.2449 59.0842Z" fill="white"/>
<path d="M93.9129 40.4979C93.9241 39.9082 93.3683 39.5282 92.9858 39.0811C92.606 39.7182 92.6535 40.1961 92.6367 40.7019C93.2176 41.0484 93.6532 41.0121 93.9129 40.4979Z" fill="white"/>
<path d="M86.7965 51.6785C87.2042 50.5076 86.3246 49.4904 85.2132 49.9599C84.9312 50.7871 85.8192 51.7596 86.7965 51.6785Z" fill="white"/>
<path d="M155.381 54.694C154.867 54.3168 154.23 54.2134 153.56 54.4006L151.974 54.8338C151.854 54.8645 151.722 54.9148 151.505 55.0238C151.309 54.926 151.049 54.8533 150.703 54.9092C149.972 55.0322 149.243 55.4765 148.531 56.231C148.363 56.4099 148.218 56.5608 148.112 56.681C148.017 56.7816 147.93 56.8626 147.849 56.9353C147.805 56.9772 147.771 56.994 147.746 57.0079C147.738 57.0135 147.707 57.0247 147.631 57.0387C147.604 57.0415 147.562 57.0303 147.509 56.9995C147.416 56.8738 147.282 56.7704 147.123 56.7005L146.917 56.6363C146.897 56.6251 146.864 56.6111 146.816 56.5915C146.718 56.5524 146.615 56.5077 146.509 56.4742C146.38 56.4267 146.238 56.3875 146.096 56.3568C145.721 56.2785 145.414 56.3316 145.062 56.4993C144.163 56.7732 143.487 57.4355 143.124 58.4024C143.071 58.5282 143.024 58.6903 142.965 58.9138L142.946 58.9949C142.907 59.1486 142.865 59.3106 142.817 59.4923C142.764 59.6991 142.708 59.8975 142.666 60.0791C142.633 60.2105 142.608 60.3111 142.566 60.4117L140.985 64.7572C140.957 64.8355 140.918 64.9165 140.862 65.0032C140.748 65.1708 140.647 65.3553 140.55 65.5481C140.53 65.5872 140.516 65.6235 140.497 65.6627C140.421 65.5844 140.337 65.5118 140.251 65.4643C140.329 65.1876 140.435 64.8718 140.569 64.5281C140.723 64.1341 140.921 63.6701 141.153 63.1532L142.214 60.8365C142.449 60.3139 142.527 59.8081 142.446 59.3274C142.407 59.1038 142.315 58.8775 142.161 58.6372C142.072 58.5058 142.005 58.394 141.943 58.2878L141.714 57.8742L141.494 57.7708C141.2 57.6367 140.871 57.5361 140.502 57.4718C140.223 57.4243 139.952 57.3684 139.723 57.3042L139.581 57.2622C139.472 57.2315 139.41 57.2008 139.368 57.1784L139.313 57.1477C139.232 57.1029 139.153 57.0582 139.098 57.0275C138.986 56.9632 138.86 56.9101 138.737 56.8654C138.559 56.8067 138.377 56.7928 138.19 56.8235C138.126 56.8319 138.073 56.8458 138.034 56.8598L137.592 56.9856C137.366 57.0471 137.129 57.1616 136.894 57.3293C136.724 57.4467 136.573 57.5585 136.436 57.6619C135.777 58.1928 135.057 58.9557 134.306 59.9366L130.237 65.2211C130.173 65.2323 130.083 65.2463 129.896 65.2547C129.718 65.2631 129.533 65.2714 129.341 65.2798C129.128 65.2854 128.93 65.2938 128.749 65.3022C128.525 65.3161 128.372 65.3301 128.288 65.3441C127.947 65.4028 127.646 65.5313 127.383 65.7242C127.347 65.6235 127.291 65.5229 127.204 65.4167L126.646 64.679L126.341 64.7321C126.308 64.7181 126.266 64.6958 126.199 64.6622L126.065 64.5924L125.138 64.5281L125.635 64.1396L125.708 64.1452L125.951 63.8462C126.266 63.4689 126.509 63.1643 126.696 62.9408C126.964 62.6026 127.054 62.4657 127.093 62.4042C127.545 61.6916 127.724 61.0014 127.615 60.3614L127.579 60.1574C127.509 59.7103 127.199 58.9194 126.015 58.6483C125.456 58.5086 124.797 58.503 124.057 58.6232L123.851 58.6595C123.038 58.7964 122.209 59.1849 121.39 59.7969C121.228 59.9143 121.052 60.0512 120.863 60.2077C120.695 60.3446 120.519 60.4816 120.338 60.6129C120.162 60.7331 119.989 60.8477 119.824 60.9399C119.693 61.0069 119.572 61.0544 119.464 61.0712C119.433 61.0796 119.338 61.0908 119.162 60.8672L118.927 60.571L118.31 60.3838L118.199 60.3614C118.176 60.353 118.137 60.3446 118.101 60.3334C117.992 60.3055 117.877 60.2776 117.757 60.2496C117.615 60.2189 117.473 60.1937 117.327 60.1742C116.833 60.1043 116.478 60.1881 116.076 60.4788L115.925 60.6017C116.252 59.9255 116.369 59.2715 116.261 58.6651L116.216 58.394C116.107 57.7289 115.669 56.8766 114.239 56.5636C113.502 56.3931 112.614 56.3903 111.614 56.558L111.323 56.6055C110.229 56.79 109.103 57.3014 107.989 58.1118C107.766 58.2683 107.52 58.4527 107.252 58.6679C107.012 58.8579 106.758 59.0452 106.495 59.2268C106.247 59.4001 105.987 59.5594 105.727 59.6991C105.515 59.8109 105.314 59.8807 105.127 59.9143C105.018 59.931 104.767 59.9758 104.398 59.5342L104.127 59.2045L103.365 58.9809L103.248 58.9557C103.211 58.9501 103.15 58.9334 103.066 58.9166C102.924 58.8803 102.762 58.844 102.591 58.8104C102.41 58.7713 102.22 58.7406 102.022 58.7126C101.424 58.6372 100.986 58.7406 100.511 59.0731L100.24 59.2883C99.5782 59.7885 99.1482 60.353 98.9527 60.9734C98.8186 61.4289 98.6399 61.9487 98.4109 62.53C98.1903 63.1057 97.925 63.7372 97.6151 64.4191L97.3302 63.9133C97.3386 63.8714 97.3498 63.8099 97.3693 63.726C97.4587 63.3739 97.4838 63.0805 97.4419 62.8346C97.3889 62.5216 97.2381 62.2114 96.9923 61.918C96.9449 61.8593 96.9142 61.8202 96.8946 61.7894L96.9477 61.5463L96.6936 61.264C96.5511 61.1048 96.3529 60.9762 96.0736 60.856C95.8698 60.7694 95.6464 60.6912 95.4062 60.6241C95.1744 60.5598 94.9427 60.5095 94.7137 60.4676C94.4484 60.4201 94.2613 60.3977 94.0882 60.3977L93.6888 60.4005L93.5185 60.2524C93.2337 60.0177 92.9209 59.7885 92.5914 59.5845C92.1306 59.2967 91.6196 59.2017 91.0751 59.2939C90.7567 59.347 90.4551 59.4783 90.1787 59.6767C89.9525 59.836 89.7374 60.0233 89.528 60.2356C89.3353 60.4285 89.1594 60.6213 89.0058 60.8057C88.8801 60.951 88.7601 61.0712 88.654 61.1634L88.5506 61.2696C87.2465 62.9492 86.1351 64.4191 85.2471 65.6347C84.4373 66.7525 83.8229 67.6412 83.3761 68.3454L83.432 67.7139L82.9321 67.8005C82.8009 67.4456 82.6277 67.046 82.4071 66.5821L82.3038 66.2859C82.315 66.1992 82.3094 66.121 82.2982 66.0511L82.2647 65.8527L82.0469 65.5956C82.0162 65.4307 81.9492 65.2575 81.8319 65.0507C81.7509 64.9109 81.6615 64.7572 81.5526 64.584C81.4689 64.4554 81.3907 64.3297 81.3292 64.2039C81.2678 64.0893 81.2594 64.0362 81.2594 64.0334L81.2008 63.6785L80.9355 63.5304C80.8098 63.2957 80.5976 63.1615 80.5027 63.1029C80.0922 62.3008 79.1008 61.5407 76.7607 61.9347C76.2692 62.0158 75.8504 62.1807 75.5097 62.421C75.2025 62.6418 74.9372 62.8933 74.7278 63.1699C74.5267 63.4298 74.3564 63.7037 74.2223 63.9831C74.1218 64.1927 74.0269 64.38 73.9347 64.5365C73.7532 64.8578 73.4963 65.0423 73.1305 65.1261L72.7311 65.2155L72.6166 65.5313C72.4184 65.6711 72.2425 65.8443 72.0889 66.0595L71.67 66.6464L71.3907 67.2835C71.279 67.5602 71.1618 67.8732 71.0361 68.2197C70.9076 68.5606 70.7904 68.8988 70.6731 69.2313C70.5865 69.4912 70.5279 69.7036 70.4916 69.8853C70.4748 69.7483 70.4608 69.6086 70.4413 69.4717L70.391 69.1698C70.3771 69.1056 70.3603 69.0441 70.3436 68.9798L70.3352 68.8205C70.0057 66.8587 69.2712 65.4084 68.157 64.5001C66.8976 63.4829 65.1244 63.1532 62.8932 63.5304C62.7256 63.5584 62.519 63.6059 62.276 63.6674C62.0247 63.7344 61.7846 63.8127 61.5695 63.9049C61.307 64.0027 61.0753 64.1313 60.877 64.285C60.3939 64.6678 60.3855 65.101 60.4218 65.3301C60.4553 65.5285 60.5447 65.6934 60.6648 65.8303C60.6033 65.8276 60.5335 65.8275 60.4637 65.8275L59.8326 65.8555L59.6902 66.2495C59.5059 66.3557 59.3662 66.4312 59.2685 66.4731C59.1149 66.543 58.9865 66.6436 58.8943 66.7749C58.8329 66.7861 58.7687 66.8056 58.7016 66.8308C58.4866 66.9062 58.2744 67.0152 58.0705 67.155C57.889 67.2751 57.7271 67.3925 57.5846 67.5127C57.5846 67.5127 57.5791 67.5183 57.5763 67.5211C57.5595 67.5238 57.5428 67.5238 57.526 67.5238C57.4283 67.535 57.3501 67.5434 57.2858 67.5518C57.2021 67.5658 56.9368 67.6133 56.7497 67.8285L56.5877 68.0101C56.3755 68.2476 56.0627 68.6165 55.6466 69.1195C55.2389 69.617 54.8117 70.1396 54.3649 70.6929C53.9237 71.2434 53.502 71.7632 53.0915 72.2522C52.9742 72.4031 52.8653 72.5317 52.7648 72.6519L52.6056 72.2439C52.5805 72.1796 52.5609 72.1209 52.5358 72.0454C52.5302 72.0315 52.5274 72.0063 52.5218 71.984C52.5135 71.9253 52.5107 71.8917 52.5079 71.8694C52.6754 71.4921 52.5945 71.0645 52.2817 70.6202L51.4216 69.3263L51.0558 69.3878C50.9832 69.3571 50.8268 69.2844 50.5392 69.1056L50.394 69.0161L47.6908 68.7311L46.2527 68.8065C46.4342 68.6556 46.6269 68.4824 46.8335 68.2951L49.2435 66.0902L49.3105 65.8415C49.3272 65.822 49.3496 65.8024 49.3663 65.7773C49.6093 65.6655 49.8522 65.4559 50.1091 65.1513C50.3716 64.8411 50.6285 64.489 50.8687 64.1033C51.0949 63.7456 51.2904 63.4131 51.4495 63.1168C51.5752 62.8849 51.6534 62.7535 51.6813 62.7032C52.1225 62.0074 52.4269 61.2249 52.5721 60.3782C52.7145 59.5426 52.7257 58.7322 52.5944 57.9609C52.3738 56.6446 51.5417 55.7224 50.1734 55.2837C49.0424 54.9455 47.7662 54.8841 46.3728 55.0965L46.2108 55.1216C44.7112 55.3759 43.1642 56.1752 41.6451 57.4802C41.3351 57.7205 40.9832 58.0196 40.6035 58.3633C40.2349 58.6958 39.8467 59.0228 39.4558 59.333C39.0704 59.6376 38.6794 59.9087 38.2857 60.1378C37.9534 60.339 37.6574 60.462 37.4089 60.5067C37.2497 60.5319 36.7778 60.6101 36.102 59.6404L35.7864 59.1905L34.8035 58.8076L34.6582 58.7685C34.6052 58.7573 34.5158 58.7294 34.3958 58.6875C34.1919 58.6148 33.9685 58.5477 33.7256 58.4807C33.4714 58.4052 33.2034 58.3409 32.9325 58.2906C32.1171 58.1313 31.5334 58.2878 30.9526 58.7825L30.5784 59.1346C29.7323 59.9143 29.1933 60.7722 28.9783 61.7084C28.8052 62.4992 28.5734 63.3991 28.2858 64.3772C27.9953 65.3748 27.6407 66.4787 27.2274 67.658C26.6075 69.4521 26.1328 70.8522 25.7921 71.8526C25.4514 72.8642 25.2531 73.4623 25.1917 73.6523C23.6223 78.6965 23.1141 82.9889 23.6921 86.4123C23.7312 86.6498 23.7954 86.9376 23.8848 87.2953C23.9686 87.6195 24.0635 87.994 24.1696 88.4188L24.259 88.7793L24.6025 88.9246C24.9878 89.0894 25.4849 89.1845 26.1328 89.2124C26.7108 89.2348 27.0124 89.3102 27.1492 89.3577L27.7887 89.6092L29.6904 89.4416C29.8691 89.4248 30.0953 89.4248 30.3634 89.4416C30.6231 89.4611 30.9191 89.5002 31.2346 89.5617L31.9774 89.7042L33.6027 89.6344C34.0048 89.6008 34.4125 89.5617 34.8118 89.5198C35.2279 89.4779 35.6524 89.422 36.0796 89.3493L38.3974 88.9581L38.4532 88.7066L38.5566 88.6591C38.8079 88.5305 38.995 88.3545 39.0983 88.1421C39.1793 87.98 39.2435 87.7341 39.1514 87.4379C39.2407 87.3764 39.3831 87.2953 39.6038 87.1947C39.6345 87.2227 39.6568 87.2478 39.6875 87.273C40.0031 87.5385 40.4192 87.586 40.8967 87.3624C41.2234 87.2087 41.5557 87.0159 41.9132 86.7728C42.3516 86.4626 42.7313 86.1775 43.0581 85.9232C43.3094 85.7276 43.53 85.5487 43.7143 85.395C45.2251 85.0904 45.9399 84.375 46.2611 83.6512C46.4677 83.791 46.7246 83.8524 46.9927 83.8105C47.6098 83.7043 48.0343 83.3187 48.1851 82.7486L48.5425 82.4496L48.3778 81.4519C48.4392 81.3541 48.5146 81.2675 48.6207 81.1781C48.7464 81.0635 48.8693 80.9713 48.981 80.8958C49.2155 80.7365 49.3747 80.58 49.4808 80.4012L50.6928 78.5176C50.6816 78.9787 50.7095 79.4482 50.7877 79.9065C50.8603 80.3341 50.9943 80.7002 51.1926 80.9992C51.3685 81.2619 51.5724 81.4966 51.8014 81.6895C52.0192 81.8767 52.2566 82.0332 52.5107 82.1561C52.7061 82.2512 52.8849 82.3406 53.0245 82.4077L53.4964 82.6564L53.7561 82.6117L53.9348 82.7123L54.1415 82.7067C55.1608 82.6759 55.6913 82.7542 55.951 82.8296C56.3839 82.9582 56.6519 83.1845 56.8027 83.5423L56.9089 83.8049L57.1658 83.9279C57.5958 84.1375 57.9588 84.294 58.2772 84.4086C58.6988 84.5595 59.2322 84.5762 59.9024 84.4645C59.9499 84.4561 60.0644 84.4421 60.3101 84.4337C60.5698 84.4253 60.7681 84.4086 60.9217 84.3834C61.1842 84.3387 61.4243 84.2129 61.6393 84.0089C61.7538 83.9 61.8795 83.7742 62.0024 83.6401C62.0973 83.5339 62.2006 83.4389 62.3151 83.341C62.3682 83.2963 62.4352 83.2628 62.5329 83.2348L64.0884 82.7961L63.8454 82.3154C63.865 82.3043 63.8789 82.2931 63.8957 82.2791C64.0912 82.1338 64.2224 82.0024 64.3062 81.8627L64.5352 81.4575L64.3425 81.0802C64.3313 81.0635 64.3229 81.0495 64.3173 81.0327C64.3564 80.9601 64.4123 80.8874 64.4849 80.8176C64.524 80.7924 64.5882 80.7449 64.686 80.6862C64.8479 80.5744 65.0266 80.4571 65.2137 80.3341C65.3562 80.2419 65.5349 80.1273 65.7415 79.996L66.0403 79.9429L66.0655 79.792L66.0878 79.778C66.3447 79.6634 66.6128 79.4957 66.892 79.275C67.4031 78.867 67.889 78.3276 68.3441 77.6625C68.1989 78.459 68.1682 79.1883 68.2771 79.8143C68.3162 80.0519 68.3748 80.3034 68.4558 80.5521C68.5452 80.8455 68.6736 81.1194 68.8328 81.3597C69.0143 81.628 69.2266 81.8432 69.4695 82.0024C69.6454 82.1114 69.9107 82.2288 70.271 82.2316L70.3938 82.3043C70.7764 82.5334 71.3153 82.5809 72.0945 82.4496C72.8428 82.3238 73.3706 82.0695 73.7197 81.6559L74.1609 81.1082L73.9906 80.6946C73.9822 80.6778 73.971 80.6583 73.9654 80.6415C73.971 80.6136 73.9794 80.5605 74.0045 80.4738C74.0129 80.4403 74.0213 80.4068 74.0324 80.376C74.2894 80.2503 74.4094 80.0071 74.4764 79.7528L75.3673 79.2554L74.7697 78.7887C74.8311 78.5875 74.8423 78.3919 74.8116 78.213C74.8032 78.1432 74.7836 78.0817 74.7585 78.023L75.1187 77.397L74.792 77.4529C74.7976 77.3607 74.7892 77.2796 74.778 77.2182C74.7752 77.1986 74.7725 77.179 74.7669 77.1567C74.806 77.084 74.8283 77.0086 74.8423 76.9499L74.9121 76.5167C74.9623 76.4832 75.0098 76.4525 75.0601 76.4189C75.2165 76.3239 75.6297 76.0696 75.546 75.5526C75.5208 75.4073 75.465 75.2899 75.3896 75.1949C75.4538 75.1306 75.5153 75.0524 75.5599 74.9518L75.694 74.6248C75.7024 74.6164 75.7107 74.6053 75.7191 74.5969C75.8671 74.4376 75.9621 74.1945 75.9258 73.9318L76.0626 74.7394C76.1547 75.276 76.2609 75.7818 76.3753 76.2345C76.4898 76.6844 76.6155 77.0924 76.7467 77.4557C77.1768 78.6127 77.7995 79.3448 78.5898 79.6271L78.7797 79.6858L78.964 79.6578C78.9668 79.6578 79.031 79.6494 79.1874 79.6662C79.3466 79.683 79.5113 79.6997 79.6789 79.7305C79.8799 79.764 80.081 79.7892 80.2737 79.8115C80.5222 79.8311 80.7205 79.8283 80.8852 79.8031C81.7984 79.6466 82.2005 79.1688 82.3736 78.758C82.516 78.6825 82.6417 78.5847 82.7506 78.4701C82.9126 78.2941 83.0438 78.1012 83.1416 77.8944C83.2253 77.7072 83.284 77.5368 83.3203 77.3607C83.4041 77.2489 83.5409 77.0617 83.7671 76.7347C84.038 76.3435 84.3144 75.9299 84.5965 75.4939C84.8841 75.0468 85.127 74.6332 85.3197 74.2699C85.4593 74.01 85.5822 73.7445 85.5934 73.479C85.7609 73.384 85.9396 73.2024 86.0095 72.8503C86.029 72.772 86.0486 72.6742 86.0737 72.5568C86.1072 72.4255 86.1379 72.2886 86.1714 72.1433C86.1938 72.0287 86.2189 71.9337 86.2301 71.8834C86.3725 71.4362 86.4814 71.3244 86.4674 71.33L87.0427 71.0087C86.9896 71.1428 86.931 71.2769 86.8779 71.4083C86.6797 71.8806 86.4981 72.3081 86.3474 72.691C86.1463 73.2052 86.0793 73.6355 86.1435 74.0072C86.163 74.1162 86.1575 74.2084 86.1351 74.2867C86.0932 74.4152 86.043 74.541 85.9815 74.6444C85.881 74.8176 85.7944 74.9797 85.7218 75.1278C85.5822 75.4017 85.5375 75.7007 85.5822 75.983C85.6129 76.1618 85.6939 76.3966 85.9006 76.6201L86.2747 78.8362L86.8695 78.7328C87.0399 78.7775 87.456 78.8781 88.4669 79.1352C89.2376 79.3253 89.9636 79.3644 90.631 79.2526L90.8349 79.2163C91.089 79.1744 91.2789 79.0262 91.6335 78.6993C91.8653 78.4813 92.1166 78.2326 92.3819 77.9615C92.6668 77.6653 92.9153 77.3886 93.1387 77.1176C93.3146 76.908 93.4431 76.7319 93.5324 76.5698L93.9513 76.3127L93.9038 76.0137L93.9709 75.8852C94.0854 75.6169 94.1859 75.3207 94.2864 74.9658C94.3702 74.6416 94.454 74.2867 94.5377 73.8759L94.5461 73.8396C94.5154 74.513 94.5433 75.1502 94.6383 75.7343C94.6634 75.888 94.7025 76.0724 94.7639 76.2904L95.0488 77.3327L95.4313 77.4585C95.7162 77.5507 96.0876 77.5982 96.5595 77.601C96.9756 77.6038 97.1739 77.6401 97.2381 77.6597L97.7212 77.7994L99.0895 77.6569C99.218 77.6401 99.3827 77.6373 99.567 77.6429C99.7458 77.6457 99.9468 77.6625 100.17 77.6932L100.692 77.7603L101.874 77.6877C102.164 77.6569 102.449 77.6318 102.737 77.5982C103.035 77.5647 103.337 77.52 103.65 77.4669L105.412 77.1735L105.465 76.9974C105.671 76.9024 105.831 76.771 105.928 76.6145C105.97 76.5559 106.06 76.3966 106.071 76.1926C106.096 76.1758 106.127 76.1646 106.166 76.1478C106.353 76.268 106.721 76.3658 107.137 76.1926C107.383 76.0892 107.626 75.969 107.894 75.8153C108.215 75.6197 108.497 75.4464 108.735 75.2871C108.911 75.1698 109.064 75.0664 109.196 74.9797C110.204 74.7785 110.759 74.3761 111.055 73.9374C111.203 73.9905 111.368 74.0044 111.538 73.9765C111.759 73.9374 111.952 73.8619 112.114 73.7473L112.237 74.2001L112.611 74.3314C112.834 74.4068 113.125 74.4516 113.479 74.4571C113.767 74.4599 113.881 74.4907 113.907 74.4963L114.289 74.6108L115.311 74.5074C115.4 74.4963 115.498 74.4963 115.616 74.4991C115.741 74.5047 115.878 74.5158 116.018 74.5354L116.392 74.5885L117.285 74.541C117.495 74.5214 117.696 74.5019 117.905 74.4795C118.126 74.4571 118.344 74.4264 118.564 74.3873L119.944 74.1525L119.997 73.9849C120.156 73.8926 120.279 73.7725 120.354 73.63C120.377 73.588 120.399 73.5461 120.413 73.5042C120.614 73.5657 120.854 73.5461 121.097 73.4455C121.273 73.3673 121.457 73.2778 121.656 73.1549C121.887 73.0124 122.086 72.881 122.264 72.7636C122.371 72.6882 122.463 72.6239 122.549 72.5652C123.217 72.4199 123.616 72.1516 123.865 71.8554C123.959 71.8694 124.049 71.8666 124.149 71.8526C124.54 71.7883 124.834 71.5732 124.987 71.263L125.292 71.0422L125.213 70.5727C125.233 70.5643 125.25 70.5559 125.264 70.5448C125.392 70.4805 125.548 70.3799 125.666 70.2122L126.808 68.7283L126.774 68.5411C126.794 68.4992 126.808 68.4572 126.819 68.4209C126.85 68.351 126.889 68.2672 126.925 68.1918L127.006 68.052C127.054 68.1414 127.115 68.2225 127.185 68.2924L127.62 68.7395C127.654 68.7674 127.687 68.7954 127.721 68.8345C127.606 68.9519 127.498 69.0776 127.397 69.2006C127.283 69.3319 127.182 69.4577 127.09 69.5806C126.975 69.7315 126.85 69.9356 126.827 70.1815C126.674 70.433 126.615 70.732 126.668 71.059C126.741 71.4726 127.014 72.0426 127.936 72.3724C128.494 72.582 129.05 72.6435 129.595 72.5541C130.089 72.4674 130.483 72.269 130.762 71.9616L130.84 71.8722L130.888 71.766C131.248 70.9751 131.689 70.2681 132.195 69.6701C132.591 69.195 132.999 68.8596 133.426 68.664C133.418 68.8485 133.42 68.9826 133.44 69.1028L133.566 69.8405L133.842 69.793C133.931 69.8936 134.04 69.9719 134.163 70.025C134.593 70.3464 135.127 70.6007 135.749 70.7795C136.344 70.9556 136.925 70.9863 137.458 70.8857C137.609 70.8997 137.766 70.8885 137.928 70.8633C138.349 70.7907 138.735 70.6035 139.078 70.3044C139.313 70.0948 139.5 69.8657 139.637 69.6226L139.748 69.5164C139.866 69.3934 139.933 69.2621 139.96 69.1363C140.083 69.2676 140.226 69.3738 140.36 69.4577C140.586 69.6058 140.843 69.7511 141.114 69.8825C141.382 70.0054 141.639 70.1144 141.882 70.2038C142.214 70.3212 142.457 70.3827 142.689 70.3436C142.862 70.3156 143.038 70.2485 143.228 70.1396C143.356 70.0725 143.482 69.997 143.61 69.9188C143.68 69.8741 143.747 69.835 143.806 69.7986L143.934 69.8238L144.222 69.5275L145.258 68.3818C145.342 68.2812 145.42 68.161 145.501 68.0017L145.724 67.5658C145.769 67.4875 145.805 67.4093 145.839 67.3506C145.853 67.3143 145.869 67.2835 145.903 67.236L146.177 66.8643L146.459 66.0623C146.47 66.0176 146.484 65.9757 146.495 65.9337C146.568 66.0204 146.654 66.1154 146.735 66.216C146.919 66.4535 147.098 66.6883 147.263 66.9174C147.467 67.1969 147.618 67.3897 147.738 67.5099C148.598 68.3958 149.717 68.7535 150.971 68.5411L151.616 68.4237L151.625 68.3902C151.63 68.393 151.633 68.3958 151.644 68.3985L151.753 68.4377L152.063 68.4293C152.236 68.4013 152.407 68.3231 152.597 68.189C152.736 68.0856 152.87 67.971 152.974 67.8648C153.493 67.3282 154.836 67.3087 154.616 66.1685C154.562 65.8974 154.261 65.6822 154.088 65.495L154.068 65.386L153.859 65.2547L153.828 65.2267C153.688 65.0758 153.535 64.9109 153.373 64.7293C153.194 64.5393 153.035 64.3576 152.881 64.1899C152.703 64.0027 152.543 63.8518 152.404 63.7288C152.356 63.6925 152.273 63.6226 152.167 63.5584C152.133 63.5137 152.097 63.4745 152.063 63.4354C152.027 63.3991 151.993 63.36 151.957 63.3264C152.072 63.36 152.222 63.3711 152.395 63.3376C152.655 63.2957 152.862 63.1867 153.013 63.0162C153.091 62.9352 153.149 62.8458 153.2 62.7507C153.239 62.7396 153.283 62.7256 153.325 62.7144L153.641 62.611C153.867 62.5384 154.194 62.3679 154.423 61.9403C154.518 61.7615 154.613 61.5686 154.697 61.3674C154.772 61.1998 154.842 61.0405 154.923 60.8728C155.149 60.7471 155.336 60.5598 155.462 60.3223C155.548 60.1574 155.621 59.9897 155.671 59.8165C155.721 59.646 155.76 59.4811 155.783 59.319C155.786 59.2631 155.797 59.2184 155.8 59.2072L155.961 58.6567C155.992 58.5869 156.017 58.5086 156.034 58.4192C156.045 58.3493 156.059 58.2739 156.073 58.2012C156.073 58.2012 156.107 58.0363 156.121 58.0391C156.151 57.9637 156.174 57.8854 156.213 57.81L156.283 57.6227L156.503 57.5836L156.28 56.2171C156.188 55.5743 155.881 55.0545 155.381 54.694ZM114.021 64.4275L113.943 64.6063L112.309 64.5085L113.599 63.5276L113.633 63.4717L113.722 63.4773L113.96 63.1979C114.331 62.7675 114.638 62.4154 114.875 62.1276C114.792 62.4182 114.688 62.734 114.554 63.1029C114.406 63.5053 114.228 63.9524 114.021 64.4275ZM119.078 69.9188C118.933 69.9439 118.754 69.9858 118.539 70.0529C118.684 69.7539 118.751 69.4717 118.751 69.209L118.841 69.0413C118.902 68.9323 118.969 68.8149 119.025 68.7087C119.098 68.569 119.165 68.4321 119.215 68.2979C119.299 68.2951 119.38 68.2868 119.469 68.284C119.746 68.27 120.014 68.27 120.257 68.2924C120.38 68.3035 120.488 68.3203 120.595 68.3427L120.407 68.8624C120.326 68.9547 120.262 69.072 120.226 69.2006L120.206 69.2313C120.111 69.4018 119.933 69.6421 119.584 69.9411L119.5 69.8405L119.078 69.9188ZM104.496 71.9197C104.27 71.9588 103.976 72.0343 103.585 72.1572C103.351 72.2327 103.186 72.2802 103.072 72.3053C103.507 71.6905 103.714 71.1456 103.689 70.6538L104.116 69.9076C104.25 69.6673 104.356 69.4381 104.434 69.2201C104.607 69.2034 104.806 69.1838 105.01 69.1698C105.412 69.1475 105.8 69.1531 106.163 69.1782C106.478 69.2006 106.752 69.2565 106.978 69.3291L106.601 70.3352C106.487 70.4525 106.395 70.5951 106.35 70.7655L106.316 70.827C106.088 71.2183 105.685 71.6374 105.11 72.0874L104.901 71.8498L104.496 71.9197ZM87.012 70.5056C87.012 70.5001 87.0176 70.4134 87.1237 70.1926L87.4253 70.106C87.3136 70.4022 87.2019 70.6873 87.0874 70.9639L87.012 70.5056ZM97.6179 64.4554C97.6179 64.4554 97.6179 64.461 97.6151 64.461C97.4391 64.8523 97.2856 65.196 97.1431 65.5201L97.0454 64.9556C97.0398 64.9053 97.0454 64.883 97.0594 64.8495L97.6179 64.4554ZM62.2621 69.0133C62.3431 68.7954 62.4268 68.5299 62.505 68.2309C62.5302 68.1498 62.5525 68.0688 62.5776 67.9877C62.6195 68.1722 62.6586 68.3874 62.6977 68.6333L62.8094 69.2788C62.8066 69.3347 62.801 69.3878 62.7982 69.4465L62.7926 69.5192C62.7843 69.6673 62.7787 69.8014 62.7703 69.9244C62.7619 70.1312 62.7675 70.3016 62.7954 70.4498C62.8066 70.514 62.8094 70.6007 62.8066 70.7013C62.8094 70.7096 62.8066 70.7124 62.8066 70.718L62.6921 70.9136L62.667 71.0115C62.6055 71.2434 62.5581 71.4558 62.5302 71.6402C62.4994 71.8303 62.4827 71.9951 62.4743 72.1516C62.4715 72.3696 62.4715 72.5652 62.4715 72.7385C62.4743 72.8559 62.4715 72.9509 62.4631 73.0207L62.1615 74.7534L62.0443 74.826L61.9605 75.0831C61.9018 75.2592 61.8348 75.4408 61.765 75.6364C61.6924 75.8544 61.6254 76.0752 61.5695 76.2792C61.0557 77.9923 60.1286 78.3388 59.4752 78.4478C59.3383 78.4701 59.1847 78.4841 59.0032 78.4897C58.9893 78.1012 59.0312 77.6653 59.1345 77.1902C59.2099 76.8633 59.2909 76.4832 59.3774 76.0528C59.4584 75.6392 59.5506 75.2312 59.6511 74.8288C59.7516 74.4264 59.8549 74.0519 59.9611 73.7082C60.07 73.3505 60.1593 73.1772 60.218 73.085L60.3799 72.8419L60.3325 72.5513C60.3185 72.4898 60.3017 72.4227 60.2738 72.3473C60.352 72.2886 60.4218 72.2355 60.4805 72.174C60.5866 72.079 60.6676 71.9728 60.7262 71.8554L60.9524 71.7269L61.0054 71.3608C61.1507 70.3491 61.4662 69.6896 61.9549 69.3934L62.1783 69.2593L62.2621 69.0133ZM37.1408 80.9685C36.8336 81.0188 36.4399 81.1305 35.8953 81.3234C35.362 81.5162 35.0771 81.5833 34.9291 81.6084L34.1863 81.737C34.1975 81.7174 34.2059 81.695 34.2198 81.6727L34.809 80.6862C35.3955 79.6606 35.6384 78.7887 35.5323 78.037L36.1634 76.6313C36.37 76.1562 36.5153 75.7203 36.6046 75.3179C36.8895 75.2843 37.2106 75.262 37.5597 75.2536C38.1181 75.234 38.6739 75.2536 39.1988 75.3207C39.6847 75.3849 40.1092 75.4995 40.4555 75.6644C40.7291 75.7901 40.7515 75.9103 40.7598 75.9746C40.7766 76.0696 40.7626 76.187 40.7208 76.3267L40.179 78.2661C40.0226 78.4198 39.9193 78.6322 39.883 78.8837L39.802 79.0458C39.4641 79.7864 38.847 80.5688 37.9478 81.3793L37.5904 80.8986L37.1408 80.9685ZM39.7741 66.5513C39.4278 66.9901 39.0648 67.4093 38.699 67.8005C38.685 67.8145 38.6711 67.8285 38.6599 67.8396C38.7018 67.6328 38.7716 67.3925 38.8693 67.113C39.5535 65.2575 40.6258 63.4075 42.0779 61.5966C42.0332 61.7978 41.9858 61.9906 41.9355 62.189C41.8266 62.6138 41.7233 62.9855 41.6283 63.3013C41.5725 63.4801 41.5222 63.6338 41.4971 63.7735L41.3491 64.1117C41.2066 64.4387 40.9944 64.8215 40.718 65.2407C40.4415 65.6683 40.1204 66.1098 39.7741 66.5513Z" fill="white"/>
<path d="M46.5065 55.8428C47.7966 55.6444 48.9555 55.6975 49.9803 56.0049C51.075 56.357 51.7061 57.0473 51.8792 58.0868C51.9937 58.7771 51.9881 59.5009 51.8569 60.2554C51.7228 61.0044 51.4603 61.689 51.0694 62.3066C51.0526 62.3262 50.9689 62.4771 50.8125 62.7621C50.6617 63.0472 50.4746 63.363 50.2568 63.7095C50.039 64.0588 49.8072 64.3774 49.5615 64.6652C49.3157 64.9586 49.1091 65.1151 48.9499 65.1459C48.8968 65.1543 48.8549 65.1906 48.8326 65.2577C48.8075 65.3247 48.7572 65.3611 48.6846 65.375L48.6008 65.6824L46.3529 67.7448C45.8698 68.1808 45.4788 68.5049 45.1744 68.7173C44.8673 68.9269 44.6634 69.1505 44.5517 69.3796C44.4596 69.592 44.5852 69.6815 44.9259 69.6367L47.6346 69.4747L50.1618 69.7429C50.6366 70.0392 50.9409 70.1705 51.0862 70.1481L51.6782 71.034C51.8457 71.2716 51.9016 71.4532 51.8401 71.579C51.7787 71.7047 51.7675 71.8836 51.8038 72.1071C51.815 72.177 51.829 72.2413 51.8485 72.2972C51.8681 72.3614 51.8932 72.4313 51.9267 72.5151L51.6586 72.7219C51.7591 73.3228 51.7145 73.9348 51.5246 74.558L51.3486 75.1476L51.1448 75.5808C51.0275 75.8714 50.9382 76.1061 50.8767 76.2934C50.8181 76.4834 50.7622 76.665 50.7203 76.8411C50.6757 77.02 50.6617 77.1429 50.6701 77.21L48.8549 80.0241C48.8131 80.1024 48.7209 80.189 48.5785 80.284C48.4417 80.379 48.2964 80.4908 48.1429 80.6277C47.9893 80.7563 47.8636 80.9016 47.7631 81.0637C47.657 81.223 47.6235 81.4046 47.657 81.6142L47.7491 82.1591L47.5062 82.3604C47.4838 82.7739 47.28 83.0115 46.8834 83.0786C46.7773 83.0953 46.6964 83.0618 46.6433 82.9696C46.5958 82.8801 46.5456 82.7795 46.5009 82.6678C46.4534 82.5476 46.392 82.4442 46.3222 82.3604C46.2551 82.2709 46.1658 82.243 46.0597 82.257C46.0234 82.2597 45.9815 82.2737 45.9396 82.2933C45.8949 82.3101 45.8418 82.3324 45.772 82.3576C45.8195 83.6486 45.032 84.4311 43.4012 84.7078C43.1918 84.8838 42.9293 85.099 42.6137 85.3449C42.2954 85.5937 41.924 85.8703 41.4967 86.1777C41.184 86.3873 40.8824 86.5606 40.5892 86.7003C40.2987 86.8372 40.1312 86.7646 40.0865 86.4907C39.9804 86.4013 39.919 86.3342 39.9106 86.2811C38.6819 86.7366 38.1737 87.1502 38.3831 87.5247C38.4613 87.656 38.4808 87.7538 38.4473 87.8181C38.411 87.8908 38.3468 87.9495 38.2407 88.0026L37.9586 88.1283C37.8749 88.1619 37.819 88.2261 37.7995 88.3155L35.9704 88.623C35.5599 88.6928 35.155 88.7459 34.7556 88.785C34.3591 88.827 33.9542 88.8661 33.5577 88.894L32.1335 88.9751L31.3935 88.8353C31.0528 88.7711 30.7316 88.7208 30.4356 88.704C30.1368 88.6844 29.866 88.6816 29.637 88.704L27.9196 88.8605L27.4449 88.6733C27.1489 88.5643 26.73 88.4944 26.1855 88.4748C25.6381 88.4497 25.2137 88.3742 24.9177 88.2457C24.8116 87.8181 24.7138 87.4409 24.6328 87.1195C24.5546 86.7953 24.4904 86.5187 24.4513 86.2951C23.8928 82.9752 24.3843 78.8336 25.9258 73.8817C25.9872 73.6888 26.1855 73.0992 26.5261 72.0987C26.864 71.0983 27.3416 69.701 27.9587 67.9069C28.3832 66.6997 28.7406 65.593 29.0338 64.5898C29.3214 63.5893 29.556 62.6839 29.7347 61.8707C29.9134 61.0938 30.3742 60.3644 31.1058 59.6881L31.4884 59.3332C31.6978 59.1572 31.9268 59.0454 32.1782 59.0062C32.3569 58.9755 32.5719 58.9867 32.8204 59.0314C33.0662 59.0761 33.3035 59.1348 33.5381 59.2019C33.7699 59.2689 33.9849 59.336 34.1804 59.3975C34.3703 59.4618 34.4959 59.5009 34.5546 59.5093L35.3225 59.8055L35.5068 60.071C36.1407 60.9792 36.8221 61.3704 37.5565 61.2475C37.8944 61.186 38.277 61.0379 38.6903 60.7864C39.1091 60.5377 39.528 60.2498 39.9441 59.9257C40.3546 59.5959 40.7511 59.2606 41.1281 58.9252C41.5023 58.5871 41.8346 58.302 42.1278 58.0729C43.6246 56.7902 45.0823 56.0468 46.5065 55.8428ZM32.1419 80.4628C32.2061 80.5215 32.2368 80.6445 32.2312 80.8261C32.2284 80.9156 32.2228 81.0022 32.22 81.0944C32.2173 81.181 32.2033 81.2733 32.1865 81.3655L32.0888 81.9412C32.0441 82.1088 32.0357 82.2793 32.0637 82.4526C32.1195 82.7628 32.3178 82.8634 32.6668 82.746C32.6054 82.3687 32.6529 81.9971 32.8093 81.631C32.9712 81.2649 33.0131 80.8569 32.9377 80.407C32.8819 80.0828 32.7841 79.9291 32.6417 79.9542C32.4742 79.9794 32.3122 80.1499 32.1419 80.4628ZM34.7556 77.9422C34.912 78.557 34.7137 79.3422 34.1608 80.3091L33.5772 81.29C33.3901 81.6058 33.3203 81.8853 33.3594 82.1256C33.3817 82.2653 33.4795 82.4162 33.6554 82.5811L35.0488 82.3492C35.2974 82.3045 35.666 82.1983 36.1435 82.0278C36.621 81.8601 36.9924 81.7511 37.2605 81.7064L37.4392 81.944C37.1907 81.9831 36.8472 82.0641 36.42 82.1815C35.9871 82.2989 35.5627 82.4274 35.1438 82.5699C34.7277 82.7125 34.3675 82.8606 34.0631 83.0171C33.7587 83.1792 33.6163 83.3189 33.6358 83.4363C33.6582 83.576 33.7978 83.6319 34.0491 83.5955C34.3005 83.562 34.5965 83.5173 34.9399 83.4614C34.993 83.4474 35.074 83.4474 35.1857 83.4586C35.2974 83.4698 35.3812 83.4642 35.4342 83.4558C35.5208 83.4418 35.5822 83.4195 35.6157 83.386C35.6492 83.3552 35.7163 83.3301 35.8224 83.3105C36.0206 83.277 36.258 83.2714 36.54 83.2965L36.6852 83.3245C38.6428 81.944 39.9078 80.6193 40.4858 79.3478C40.5668 79.278 40.6115 79.1662 40.6227 79.0041C40.6338 78.842 40.6981 78.7526 40.8265 78.7302L41.4492 76.5197C41.5191 76.2766 41.5386 76.0474 41.5023 75.8434C41.4381 75.4634 41.1951 75.1755 40.7735 74.9799C40.3546 74.7815 39.8631 74.6446 39.299 74.5719C38.7321 74.4993 38.1401 74.4713 37.5314 74.4937C36.9198 74.516 36.3892 74.5663 35.9397 74.6418C35.9117 75.1252 35.7581 75.687 35.4817 76.3185C35.356 76.5924 35.2359 76.8607 35.1131 77.1261C34.9986 77.4056 34.8757 77.6711 34.7556 77.9422ZM38.0955 69.3992C38.4697 69.0862 38.8466 68.7257 39.2376 68.3121C39.6257 67.8985 40.0027 67.4654 40.3574 67.0127C40.7148 66.5627 41.0443 66.1072 41.3459 65.6489C41.6419 65.1906 41.8737 64.777 42.0329 64.4137L42.2339 63.9526C42.2032 63.9917 42.2395 63.8492 42.3401 63.5222C42.4406 63.1925 42.5467 62.8096 42.6612 62.3765C42.7673 61.9377 42.8706 61.4962 42.9628 61.0547C43.0549 60.6131 43.0829 60.2973 43.0549 60.1073C43.0242 59.934 42.9209 59.8614 42.7394 59.8921C42.6863 59.9005 42.5886 59.9368 42.4518 59.9955C40.4523 62.234 39.0226 64.5227 38.1653 66.8534C37.8776 67.6694 37.7771 68.3261 37.8609 68.8263C37.9 69.0499 37.9782 69.2427 38.0955 69.3992Z" fill="black"/>
<path d="M69.6139 68.9463L69.6056 69.0246C69.5972 69.0665 69.6056 69.114 69.6279 69.1587C69.6502 69.2062 69.6614 69.2509 69.6698 69.29L69.7201 69.5947C70.0552 71.5816 69.6614 73.6719 68.5472 75.8712C67.9105 77.1511 67.2096 78.0901 66.4472 78.6965C66.0591 79.0039 65.7156 79.1772 65.4112 79.2303C65.5229 79.2107 65.5816 79.2107 65.5872 79.2303C65.2744 79.4287 65.0203 79.5908 64.8276 79.7165C64.6349 79.8423 64.4562 79.9597 64.2886 80.0742C64.1211 80.1832 64.0317 80.2447 64.0178 80.2559C63.6827 80.5745 63.5012 80.9461 63.4704 81.3765C63.652 81.3877 63.7246 81.424 63.6883 81.4799C63.6547 81.5386 63.5794 81.6085 63.4621 81.6951C63.3504 81.7845 63.2331 81.8711 63.1214 81.9662C63.0069 82.0556 62.9594 82.1366 62.9678 82.2065C62.9678 82.2177 62.9873 82.2624 63.0264 82.335L62.3423 82.5307C62.144 82.5866 61.9792 82.6704 61.8424 82.7878C61.7056 82.9023 61.5827 83.0197 61.4682 83.1427C61.3537 83.2712 61.2476 83.3774 61.1387 83.4808C61.0326 83.5814 60.9237 83.6429 60.8092 83.6625C60.6947 83.682 60.5272 83.6932 60.3038 83.7016C60.0776 83.7072 59.91 83.7211 59.7955 83.7407C59.2566 83.8301 58.8377 83.8217 58.5445 83.7156C58.2485 83.6094 57.9022 83.4557 57.5113 83.2656C57.2739 82.6955 56.8271 82.3127 56.1764 82.1227C55.7129 81.9941 55.0371 81.941 54.1351 81.969C53.9787 81.8795 53.8084 81.8572 53.6185 81.8851L53.4091 81.7622C53.2415 81.6755 53.0572 81.5861 52.859 81.4911C52.6635 81.3933 52.4764 81.2703 52.3032 81.125C52.1301 80.9741 51.9765 80.798 51.8369 80.5884C51.6945 80.3761 51.6023 80.1106 51.5465 79.7892C51.4124 79.0011 51.4236 78.2215 51.5744 77.4362C51.6693 76.9024 51.876 76.1311 52.1943 75.1223L52.5266 74.0883L52.7696 73.8116C52.9734 73.5825 53.2834 73.2192 53.6911 72.7246C54.0988 72.2299 54.5261 71.7073 54.9673 71.1568C55.4057 70.6035 55.8358 70.0809 56.2435 69.5863C56.6512 69.0916 56.9555 68.7311 57.1622 68.4992L57.3242 68.3147C57.3465 68.2924 57.4359 68.2728 57.5867 68.2644C57.7402 68.2561 57.8296 68.2477 57.8547 68.2449C57.8799 68.2393 57.9525 68.1862 58.0781 68.0828C58.201 67.9794 58.3434 67.8732 58.4998 67.7698C58.6562 67.6636 58.8126 67.5854 58.9717 67.5239C59.1309 67.468 59.2482 67.4848 59.3292 67.5742L59.4911 67.6077L59.6308 67.5239C59.4688 67.3339 59.4548 67.2081 59.5861 67.1494C59.7173 67.0907 59.896 66.9929 60.1194 66.8672L60.3093 66.7554L60.3792 66.5737L60.516 66.5654C60.7952 66.5681 61.0075 66.5737 61.1331 66.5765C61.2672 66.5821 61.3174 66.5877 61.2923 66.5933L61.4096 66.7246C61.5269 66.87 61.6581 66.8923 61.8089 66.7805C61.9569 66.6715 62.0239 66.5598 62.0016 66.4368C61.9932 66.3893 61.9346 66.3418 61.8257 66.3055C61.714 66.2663 61.6581 66.2244 61.6497 66.1881C61.6525 66.1965 61.7335 66.1015 61.8955 65.9114L61.7279 65.6152C61.3844 65.4839 61.1973 65.3441 61.175 65.1932C61.1555 65.0842 61.2141 64.978 61.3537 64.8691C61.4878 64.7629 61.6581 64.6706 61.8564 64.5896C62.0574 64.5086 62.2641 64.4415 62.4791 64.3828C62.6997 64.3269 62.8812 64.285 63.0292 64.2598C65.051 63.9217 66.6092 64.1928 67.6983 65.0759C68.6757 65.8751 69.3123 67.1606 69.6139 68.9463ZM61.5632 68.7479C60.8706 69.1615 60.4378 69.9971 60.2591 71.2546L60.0664 71.3608C60.0915 71.4502 60.0608 71.5397 59.9714 71.6207C59.8821 71.7045 59.7732 71.7828 59.6447 71.861C59.5163 71.9421 59.399 72.0092 59.2901 72.0678C59.184 72.1265 59.1365 72.1796 59.1393 72.216C59.1505 72.2663 59.2231 72.3333 59.3599 72.4144C59.4967 72.4954 59.5693 72.5792 59.5889 72.6687C59.466 72.8587 59.3459 73.1298 59.2398 73.4819C59.1281 73.8396 59.0276 74.2224 58.9215 74.6416C58.8154 75.0608 58.7232 75.4772 58.6394 75.8992C58.5529 76.3239 58.4747 76.6984 58.4021 77.0198C58.2205 77.861 58.2038 78.5931 58.3462 79.2191C58.8544 79.2471 59.2705 79.2359 59.5973 79.1828C60.9153 78.962 61.8117 78.0622 62.2836 76.4916C62.3395 76.2848 62.4009 76.0836 62.4707 75.8852C62.5433 75.6868 62.6076 75.4968 62.669 75.3207L62.8421 75.2145L63.2052 73.1158C63.2163 73.0208 63.2219 72.8922 63.2191 72.7274C63.2163 72.5597 63.2163 72.3752 63.2191 72.1684C63.2275 72.0511 63.2415 71.9141 63.2666 71.7549C63.2945 71.5956 63.3308 71.4139 63.3867 71.2071L63.5375 70.9472C63.5486 70.936 63.5542 70.855 63.5542 70.7041C63.5542 70.5532 63.5458 70.4274 63.5319 70.324C63.5179 70.2346 63.5123 70.1144 63.5179 69.9635C63.5235 69.8098 63.5347 69.6533 63.543 69.4885C63.557 69.3264 63.5654 69.1699 63.5738 69.0162C63.5793 68.8681 63.5766 68.7451 63.5626 68.6557C63.543 68.5439 63.504 68.4936 63.4397 68.502C63.3867 68.1694 63.328 67.89 63.2694 67.6524C63.2107 67.4177 63.1549 67.2388 63.1102 67.0991C63.0041 66.8867 62.9036 66.733 62.7975 66.638C62.6383 66.529 62.4903 66.5458 62.3702 66.6855C62.2445 66.8252 62.1356 67.0153 62.0379 67.2528C61.9457 67.4931 61.8592 67.7558 61.7838 68.0381C61.7056 68.3259 61.633 68.5607 61.5632 68.7479ZM62.4791 81.4492C62.3479 81.5134 62.2725 81.5693 62.2529 81.6196C62.2362 81.6671 62.2529 81.7119 62.3088 81.751C62.3562 81.7873 62.4261 81.8153 62.5154 81.8348C62.602 81.8516 62.6885 81.8544 62.7779 81.8348C62.8756 81.818 62.9538 81.7817 63.0069 81.7174C63.0627 81.6588 63.0655 81.5637 63.0181 81.4408C62.9622 81.2731 62.8421 81.2032 62.655 81.234C62.5768 81.248 62.521 81.3178 62.4791 81.4492ZM65.3414 79.2582L65.361 79.2359C65.3358 79.2526 65.2967 79.2582 65.2381 79.2582C65.1795 79.2582 65.1571 79.2554 65.1683 79.2554L65.2521 79.2722C65.2632 79.2694 65.3051 79.2778 65.3693 79.3002C65.4392 79.3197 65.428 79.3029 65.3414 79.2582Z" fill="black"/>
<path d="M86.9112 77.9813L86.618 76.2431C86.456 76.1341 86.3667 76.0112 86.3443 75.8687C86.322 75.7401 86.3443 75.606 86.4142 75.4718C86.484 75.3349 86.5594 75.1896 86.6515 75.0359C86.7409 74.8794 86.8107 74.7117 86.8721 74.5217C86.9308 74.3372 86.9419 74.1248 86.9056 73.8957C86.8665 73.661 86.9224 73.3591 87.0676 72.9791C87.2212 72.6046 87.3943 72.1826 87.5926 71.7104C87.7909 71.2409 87.9891 70.7378 88.1902 70.2013C88.3884 69.6675 88.5225 69.1198 88.5867 68.5721C88.7347 68.4743 88.8017 68.3457 88.7738 68.1836C88.7543 68.0802 88.6956 67.9712 88.5895 67.8539C88.4834 67.7393 88.3773 67.689 88.2656 67.7085C88.2041 67.7169 88.1176 67.7616 88.0143 67.8427C87.9109 67.9209 87.8663 67.9936 87.8746 68.0523L87.7015 68.1585C87.6177 68.2144 87.5814 68.2758 87.5898 68.3541C87.5926 68.424 87.6177 68.4938 87.654 68.5665C87.6903 68.6363 87.735 68.7034 87.7825 68.7649C87.83 68.8208 87.8607 68.8767 87.869 68.9298C87.8886 69.0499 87.7573 69.131 87.4641 69.1841L87.2854 69.3685L86.618 69.5585C86.3499 70.0168 86.2354 70.3662 86.2717 70.5953L86.1014 70.7043C85.892 70.844 85.7021 71.1654 85.5429 71.6712C85.5206 71.7551 85.4926 71.8668 85.4647 72.0038C85.434 72.1351 85.4033 72.2665 85.3725 72.3866C85.3418 72.5124 85.3195 72.6186 85.3027 72.7024C85.2832 72.7918 85.2609 72.8338 85.2385 72.8366C85.2134 72.8422 85.1799 72.817 85.1352 72.7611C85.0961 72.7052 85.057 72.6801 85.0179 72.6885C85.0263 72.5823 85.0039 72.5012 84.9509 72.4509C84.8978 72.395 84.828 72.3699 84.7582 72.3643C84.6884 72.3643 84.6242 72.3755 84.5627 72.4034C84.5041 72.4369 84.4762 72.4789 84.4845 72.5292L84.5934 73.1607C84.6074 73.253 84.6856 73.3228 84.8224 73.3703C84.9146 73.3871 84.8699 73.5687 84.6828 73.9236C84.4929 74.2758 84.2667 74.667 83.9903 75.0946C83.7138 75.5249 83.4429 75.9329 83.1804 76.313C82.9151 76.6958 82.742 76.9278 82.6694 77.0144C82.6555 77.0228 82.6387 77.0899 82.6136 77.2072C82.5884 77.3274 82.5465 77.4532 82.4879 77.5845C82.4237 77.727 82.3371 77.8472 82.2282 77.9674C82.1193 78.0847 81.9713 78.1574 81.7842 78.1909C81.7367 78.6772 81.4044 78.965 80.7901 79.074C80.6895 79.0908 80.5499 79.0908 80.3712 79.074C80.1981 79.0572 80.0137 79.0349 79.8322 79.0014C79.6423 78.9734 79.4608 78.9483 79.2821 78.9315C79.1118 78.9147 78.9666 78.9147 78.866 78.9315C78.2936 78.7303 77.8272 78.1518 77.4726 77.2072C77.3525 76.8747 77.2352 76.4918 77.1235 76.0615C77.0146 75.6283 76.9113 75.1505 76.8275 74.6251L76.4952 72.6437C76.4868 72.5934 76.4757 72.5292 76.4617 72.4481C76.4505 72.3699 76.4393 72.2777 76.4366 72.1743L76.3556 71.688C76.2076 70.8217 76.068 70.3969 75.9283 70.4221C75.8529 70.4332 75.7831 70.5478 75.7133 70.763C75.6463 70.9754 75.5821 71.2157 75.5262 71.4756C75.4648 71.7411 75.4257 71.9898 75.4005 72.2329C75.3754 72.4677 75.3698 72.6158 75.3782 72.6773L75.2023 72.7863C75.1129 72.8533 75.0766 72.9204 75.1017 72.9903C75.1213 73.0378 75.1464 73.0992 75.1716 73.1663C75.1939 73.2362 75.2218 73.3172 75.2497 73.4178C75.2581 73.4681 75.2079 73.5128 75.099 73.552C74.9928 73.5939 74.9342 73.6358 74.9482 73.6861C74.9426 73.7308 75.0152 73.8202 75.1688 73.96C75.219 74.0242 75.2302 74.0745 75.2023 74.0997C75.1771 74.1332 75.1325 74.1612 75.071 74.1863C75.0096 74.2115 74.9537 74.2422 74.9007 74.2702C74.8476 74.3009 74.8281 74.3428 74.8337 74.3931C74.8532 74.5133 74.8783 74.5915 74.9035 74.6363C74.9286 74.6782 74.8616 74.7145 74.6968 74.7397C74.3198 74.8039 74.1691 75.0554 74.2389 75.4886L74.4399 75.5277C74.6912 75.5808 74.8253 75.6367 74.8337 75.6954C74.8365 75.7066 74.7918 75.7401 74.6968 75.7988C74.5991 75.8547 74.5014 75.9245 74.4008 76C74.2947 76.081 74.2026 76.1733 74.1188 76.2739C74.0294 76.3773 73.9987 76.4807 74.0127 76.5785C74.0294 76.6819 74.0629 76.7461 74.116 76.7797C74.1635 76.8104 74.1272 76.8384 74.0043 76.8607C73.9038 76.8775 73.887 76.9474 73.954 77.0647C74.0155 77.1849 74.0573 77.2827 74.0713 77.361C74.0909 77.4867 74.035 77.6097 73.9121 77.7326C73.7837 77.8584 73.725 77.9618 73.739 78.04C73.753 78.1295 73.8116 78.1826 73.9177 78.1965C74.0266 78.2133 74.0853 78.2608 74.0992 78.3558C74.1188 78.4564 74.0937 78.5794 74.035 78.7219C73.9764 78.8672 73.9512 78.9734 73.9652 79.0461C73.9736 79.0992 73.9959 79.1383 74.0434 79.1718L73.8479 79.2808C73.7949 79.5714 73.7446 79.7224 73.7111 79.7279C73.6329 79.5714 73.5547 79.4569 73.4877 79.3674C73.4123 79.2808 73.3257 79.2082 73.228 79.1495C73.1247 79.088 73.0185 79.074 72.9096 79.1131C72.8817 79.1802 72.8733 79.2473 72.8873 79.3199C72.9041 79.4289 72.9906 79.5295 73.1358 79.619C73.2894 79.7084 73.3732 79.8062 73.3927 79.918C73.3955 79.9459 73.3704 80.0717 73.3062 80.2813C73.2475 80.4964 73.2252 80.6613 73.2475 80.7815C73.2559 80.8346 73.2838 80.9045 73.3229 81.0023L73.1638 81.2007C72.9487 81.4522 72.5578 81.6254 71.9937 81.7233C71.4156 81.8211 71.0191 81.8071 70.8069 81.673L70.4857 81.4801C70.254 81.5193 70.0641 81.4857 69.9049 81.3823C69.7457 81.2817 69.6061 81.1364 69.4832 80.9548C69.366 80.7759 69.2682 80.5691 69.1956 80.3427C69.1286 80.1192 69.0755 79.904 69.042 79.7C68.9387 79.0796 68.9778 78.3335 69.1705 77.4755C69.2152 77.2799 69.3157 76.9529 69.4693 76.4918C69.6229 76.0279 69.7876 75.5473 69.9524 75.0498C70.1199 74.5468 70.2819 74.0801 70.4355 73.6442C70.5863 73.211 70.684 72.9176 70.7203 72.7639C70.8599 72.2832 70.9716 71.8333 71.0582 71.4085C71.1392 70.9866 71.195 70.5869 71.223 70.2097C71.2341 70.0532 71.2956 69.8101 71.4129 69.4747C71.5246 69.1505 71.6418 68.8152 71.7647 68.4798C71.8904 68.1389 72.0049 67.8371 72.1166 67.566C72.2227 67.2949 72.2897 67.1329 72.3092 67.0882C72.4433 66.8981 72.5829 66.7025 72.7309 66.4929C72.8761 66.2917 73.0521 66.138 73.2559 66.043L73.3201 65.8586C73.8954 65.7328 74.3226 65.417 74.6103 64.9112C74.7108 64.7407 74.8169 64.5395 74.9258 64.3104C75.0347 64.0784 75.1744 63.8521 75.3475 63.6313C75.515 63.4105 75.7217 63.2121 75.9702 63.036C76.2215 62.8628 76.5315 62.7398 76.9057 62.6783C78.5756 62.3961 79.5837 62.7091 79.93 63.6145C79.9467 63.6313 80.011 63.676 80.1282 63.7459C80.2399 63.8129 80.3042 63.8716 80.3125 63.9219C80.3209 63.9638 80.3181 64.0002 80.3125 64.0309L80.5471 64.165C80.5667 64.274 80.6141 64.4026 80.6895 64.5507C80.7621 64.6988 80.8515 64.8497 80.9492 64.995C81.047 65.1459 81.128 65.2857 81.2034 65.4198C81.276 65.5511 81.3234 65.6601 81.3374 65.7384C81.3486 65.811 81.3514 65.8613 81.3458 65.8949L81.5859 66.1799C81.5859 66.1911 81.5775 66.2051 81.5552 66.233C81.5357 66.2554 81.5217 66.2749 81.5245 66.2833C81.544 66.3336 81.5748 66.4091 81.6111 66.5097C81.6474 66.6103 81.6893 66.7332 81.7395 66.8674C81.9573 67.3285 82.136 67.7365 82.2645 68.0998C82.3985 68.4631 82.5158 68.6363 82.6164 68.6168C82.6108 68.6699 82.608 68.7202 82.608 68.7677C82.6108 68.8152 82.6191 68.8627 82.6247 68.913C82.7001 69.3657 82.9319 69.5613 83.3229 69.4943C83.5127 69.4635 83.6998 69.2875 83.8897 68.9633C84.3393 68.2423 85.0012 67.2838 85.8752 66.0793C86.7493 64.8749 87.8467 63.4273 89.162 61.7338C89.2988 61.6164 89.4384 61.4711 89.592 61.295C89.74 61.119 89.9048 60.9429 90.0835 60.7613C90.2622 60.5796 90.4437 60.4231 90.6308 60.289C90.8235 60.1521 91.019 60.0682 91.22 60.0347C91.5831 59.9732 91.9182 60.0347 92.217 60.2247C92.5241 60.412 92.8006 60.6104 93.0575 60.8283C93.0491 60.9932 93.1106 61.0854 93.239 61.091L93.3954 61.0994C93.4624 61.1078 93.5015 61.1274 93.5211 61.1553L94.1187 61.1469C94.2359 61.1469 94.3979 61.1693 94.6018 61.2028C94.8056 61.2419 95.015 61.2922 95.2245 61.3481C95.4367 61.4068 95.6266 61.4711 95.7997 61.5465C95.9757 61.622 96.0929 61.6947 96.1572 61.7673C96.1488 61.7981 96.1544 61.8567 96.1656 61.935C96.1823 62.0468 96.2717 62.2005 96.4336 62.3933C96.5956 62.5889 96.6933 62.7789 96.7241 62.9606C96.7464 63.1003 96.7268 63.2931 96.6682 63.5447C96.604 63.7962 96.5816 63.975 96.604 64.0868C96.6068 64.1147 96.6291 64.1595 96.6654 64.2153L96.4895 64.3215L96.4001 64.492C96.2996 64.6764 96.2689 64.8721 96.308 65.0817C95.8919 65.1515 95.7215 65.4058 95.7942 65.8362C95.8109 65.9396 95.8277 66.0122 95.8528 66.0625L95.6992 66.3197C95.6266 66.437 95.5875 66.5935 95.568 66.7919C95.5512 66.9931 95.5819 67.1161 95.6685 67.1664C95.1966 67.8259 94.747 69.2176 94.3169 71.3443L93.831 73.742C93.7528 74.1249 93.6719 74.4742 93.5881 74.7844C93.5071 75.0918 93.4122 75.3684 93.3088 75.6004C93.1888 75.7317 93.1385 75.8519 93.1552 75.9525L92.9793 76.0559C92.9374 76.19 92.8034 76.3884 92.5856 76.6539C92.3622 76.9194 92.1248 77.1849 91.8651 77.4504C91.6082 77.7187 91.368 77.9562 91.1446 78.163C90.9212 78.3726 90.7844 78.4816 90.7341 78.4872L90.5303 78.5235C89.9662 78.6213 89.3435 78.585 88.6733 78.4201C87.5116 78.1211 86.9224 77.9813 86.9112 77.9813ZM72.4824 76.5198C72.6276 76.4946 72.7421 76.5086 72.837 76.5589C72.8678 76.5533 72.9152 76.5058 72.9739 76.4164C73.0297 76.3242 73.0576 76.2571 73.0493 76.204C73.0269 76.0755 72.9152 76.0279 72.703 76.0643C72.4768 76.1006 72.3791 76.1984 72.407 76.3549C72.4098 76.3912 72.4349 76.4499 72.4824 76.5198ZM73.2755 77.4029L73.2447 77.2296C73.147 77.2436 73.1274 77.2715 73.1805 77.3023L73.2755 77.4029ZM73.6999 78.4173C73.6385 78.4285 73.6105 78.4369 73.6078 78.448C73.6105 78.4592 73.6189 78.4648 73.6413 78.4676C73.6608 78.4704 73.6804 78.4508 73.6999 78.4173ZM89.8908 65.0314C89.7763 65.0174 89.6311 65.0342 89.4524 65.0621C89.31 65.0873 89.2346 65.1096 89.243 65.1375C89.1927 65.2689 89.2262 65.3667 89.3491 65.4338C89.4719 65.5008 89.6004 65.512 89.7372 65.4561C89.8852 65.4338 89.9355 65.2912 89.8908 65.0314ZM92.876 65.3695C93.5937 65.2493 93.9371 65.1068 93.912 64.9336C93.8701 64.7044 93.616 64.6122 93.1413 64.6653C92.8201 64.7184 92.6805 64.8441 92.714 65.0453C92.728 65.1012 92.7783 65.213 92.876 65.3695ZM95.9394 66.8394C95.8612 67.049 95.7942 67.158 95.7411 67.1664V67.1524C95.7299 67.091 95.7969 66.9848 95.9394 66.8394ZM95.9673 66.7696L96.1628 66.6606C96.0483 66.7416 95.9729 66.7975 95.9394 66.8394C95.9533 66.8283 95.9533 66.8171 95.9533 66.8087C95.9505 66.7919 95.9561 66.7835 95.9673 66.7696Z" fill="black"/>
<path d="M130.738 65.7973L134.905 60.387C135.625 59.4508 136.29 58.7354 136.91 58.2436C137.027 58.1514 137.166 58.048 137.326 57.9362C137.49 57.8216 137.644 57.7462 137.789 57.707L138.247 57.5757C138.339 57.545 138.423 57.5422 138.496 57.5701C138.574 57.5953 138.655 57.6288 138.736 57.6763C138.82 57.721 138.909 57.7741 139.012 57.8272C139.107 57.8831 139.23 57.9362 139.381 57.9781L139.521 58.02C139.786 58.0955 140.076 58.157 140.381 58.2101C140.688 58.2604 140.956 58.3442 141.188 58.4532L141.302 58.6516C141.364 58.769 141.445 58.8975 141.539 59.0456C141.637 59.1937 141.693 59.3279 141.713 59.4508C141.771 59.7834 141.71 60.1383 141.537 60.5267L140.478 62.8406C140.235 63.3688 140.037 63.8383 139.878 64.2519C139.716 64.6683 139.596 65.0344 139.518 65.3446C139.442 65.6296 139.414 65.8504 139.442 66.0041C139.462 66.1075 139.504 66.1774 139.582 66.2193C139.582 66.1103 139.61 66.0488 139.66 66.0348C139.708 66.0237 139.769 66.0348 139.833 66.074C139.897 66.1103 139.956 66.1634 140.009 66.2249C140.065 66.2891 140.096 66.3366 140.099 66.373C140.118 66.4456 140.14 66.5127 140.177 66.5686C140.216 66.6245 140.207 66.6943 140.16 66.7782L140.009 67.0744C140.001 67.0996 139.976 67.1359 139.92 67.1918C139.861 67.2505 139.839 67.3092 139.85 67.379L139.713 67.4517L139.78 67.8261L139.655 67.9016L139.261 68.849C139.241 68.8769 139.244 68.9048 139.258 68.9272C139.272 68.9468 139.258 68.9803 139.225 69.0222L139.088 69.0977C139.001 69.3268 138.845 69.5448 138.607 69.7544C138.373 69.9584 138.116 70.0841 137.823 70.1317C137.686 70.1568 137.563 70.154 137.454 70.1317C137.002 70.2406 136.507 70.2211 135.98 70.0674C135.399 69.8997 134.924 69.665 134.547 69.3659C134.491 69.3576 134.444 69.3296 134.413 69.2877C134.38 69.2514 134.349 69.2039 134.324 69.1564C134.304 69.1088 134.276 69.0669 134.257 69.0334C134.237 68.9971 134.218 68.9803 134.201 68.9831C134.19 68.9244 134.19 68.8238 134.201 68.6869C134.209 68.5527 134.232 68.413 134.262 68.2761C134.296 68.1391 134.343 68.0106 134.399 67.8988C134.458 67.7898 134.528 67.7283 134.617 67.7116C134.38 67.6976 134.151 67.706 133.927 67.7423C133.098 67.8848 132.338 68.3655 131.643 69.1927C131.093 69.8522 130.618 70.6067 130.233 71.4619C130.068 71.6407 129.819 71.7609 129.495 71.8168C129.079 71.8838 128.661 71.8363 128.222 71.6715C127.75 71.5038 127.488 71.2551 127.432 70.9365C127.404 70.7465 127.449 70.5956 127.574 70.4838L127.602 70.2602C127.602 70.2099 127.641 70.1317 127.722 70.0227C127.8 69.9165 127.887 69.8047 127.993 69.6845C128.091 69.5672 128.191 69.4526 128.295 69.3436C128.392 69.2318 128.468 69.148 128.521 69.0893L128.697 68.8937C128.814 68.7679 128.864 68.6673 128.853 68.5835C128.839 68.5304 128.809 68.4829 128.747 68.4465C128.686 68.4102 128.621 68.3851 128.546 68.3627C128.473 68.3403 128.401 68.318 128.331 68.29C128.258 68.2621 128.2 68.2258 128.158 68.1894L127.742 67.7675C127.666 67.6892 127.616 67.5774 127.591 67.4349C127.585 67.3734 127.577 67.2784 127.58 67.1471C127.58 67.0157 127.577 66.9151 127.56 66.8536C127.53 66.6664 127.599 66.4959 127.781 66.345C127.96 66.1969 128.172 66.1047 128.423 66.0572C128.49 66.0488 128.616 66.0348 128.795 66.0292C128.976 66.0181 129.172 66.0097 129.37 66.0069C129.574 65.9985 129.764 65.9901 129.942 65.9817C130.127 65.9734 130.249 65.9622 130.314 65.9482C130.545 65.923 130.685 65.8672 130.738 65.7973ZM135.904 64.6459L137.61 61.0018L137.529 60.8118C137.421 60.8342 137.309 60.9096 137.186 61.0465C137.06 61.1835 136.985 61.3008 136.946 61.3959L136.901 61.5188L136.725 61.653C136.639 61.72 136.552 61.8262 136.471 61.9771C136.39 62.128 136.298 62.237 136.197 62.3013C136.105 62.3181 136.038 62.3712 135.982 62.4718C135.929 62.5724 135.874 62.6814 135.812 62.7987C135.753 62.9161 135.684 63.0279 135.608 63.1341C135.53 63.2347 135.441 63.2962 135.326 63.3157C135.321 63.3018 135.273 63.3241 135.175 63.3828C135.069 63.4415 135.033 63.5393 135.055 63.6846L135.072 63.7656C135.1 63.9501 135.05 64.0786 134.913 64.1569L134.863 64.2687C134.804 64.2798 134.726 64.2994 134.628 64.3329C134.533 64.3693 134.463 64.386 134.419 64.3944C134.357 64.4056 134.307 64.4 134.257 64.3693C134.24 64.2882 134.22 64.2491 134.195 64.2519C134.17 64.2547 134.145 64.2854 134.125 64.3357C134.106 64.3916 134.086 64.4587 134.075 64.5453C134.058 64.6292 134.061 64.7158 134.075 64.7968C134.1 64.931 134.162 64.9925 134.257 64.9757C134.332 64.9617 134.385 64.9673 134.421 64.9869C134.455 65.012 134.494 65.0372 134.539 65.0595C134.583 65.0819 134.639 65.1015 134.709 65.1182C134.779 65.135 134.882 65.1322 135.022 65.1042C135.497 65.0288 135.784 64.8751 135.904 64.6459Z" fill="#ED1C24"/>
<path d="M141.696 64.9867L143.269 60.6635C143.308 60.5769 143.347 60.44 143.392 60.2583C143.439 60.0739 143.489 59.8811 143.548 59.6771C143.598 59.4731 143.646 59.2802 143.693 59.0958C143.741 58.9141 143.777 58.7772 143.816 58.6878C144.118 57.8885 144.626 57.3967 145.335 57.1983C145.455 57.134 145.57 57.0949 145.676 57.0781C145.751 57.0669 145.843 57.0669 145.947 57.0893C146.056 57.1117 146.156 57.1396 146.254 57.1731C146.352 57.2123 146.447 57.243 146.522 57.2793C146.609 57.3129 146.662 57.3352 146.689 57.3464L146.832 57.3855C146.885 57.4107 146.916 57.4414 146.921 57.4749C146.927 57.5001 146.921 57.5197 146.918 57.5252L147.153 57.6538C147.357 57.7656 147.558 57.8047 147.756 57.774C147.882 57.7544 147.985 57.7209 148.072 57.6761C148.164 57.6342 148.25 57.5728 148.348 57.4917C148.435 57.4079 148.538 57.3101 148.655 57.1899C148.762 57.0697 148.907 56.9216 149.071 56.7484C149.672 56.1112 150.256 55.7451 150.831 55.6473C150.982 55.6194 151.107 55.6473 151.211 55.7228C151.317 55.7982 151.406 55.8317 151.493 55.815C151.588 55.7982 151.702 55.7563 151.847 55.6864C151.987 55.6194 152.09 55.5774 152.154 55.5579L153.76 55.1219C154.212 54.9962 154.609 55.0549 154.944 55.298C155.274 55.5411 155.48 55.8932 155.561 56.3571L155.665 56.9859C155.606 56.9971 155.592 57.025 155.614 57.0753C155.639 57.1228 155.656 57.162 155.662 57.1983C155.67 57.2318 155.659 57.257 155.648 57.2737L155.558 57.5057C155.508 57.6091 155.469 57.7069 155.436 57.8131C155.43 57.7851 155.422 57.8019 155.405 57.8578C155.397 57.9165 155.383 57.9863 155.36 58.0702C155.343 58.154 155.327 58.2323 155.316 58.3105C155.307 58.3832 155.293 58.4223 155.279 58.4223L155.103 59.0092C155.087 59.0427 155.075 59.1237 155.061 59.2411C155.045 59.3585 155.017 59.4814 154.975 59.6184C154.936 59.7497 154.883 59.8727 154.818 59.9928C154.757 60.113 154.665 60.1968 154.55 60.2499C154.433 60.2974 154.338 60.4036 154.263 60.5657C154.187 60.7278 154.112 60.9011 154.031 61.0855C153.95 61.2672 153.872 61.4432 153.78 61.6053C153.687 61.7674 153.576 61.868 153.433 61.9155L153.107 62.0245C153.062 62.0357 153.015 62.0524 152.967 62.0608C152.914 62.072 152.864 62.0916 152.819 62.1111C152.735 62.1446 152.677 62.1894 152.646 62.2397C152.612 62.29 152.587 62.3431 152.565 62.3962C152.545 62.4493 152.512 62.494 152.476 62.5387C152.434 62.5778 152.378 62.6057 152.291 62.6225C152.205 62.6365 152.166 62.6309 152.177 62.6085C152.188 62.5834 152.213 62.5527 152.261 62.5135C152.308 62.4688 152.358 62.4213 152.42 62.3682C152.473 62.3151 152.509 62.276 152.526 62.2397L152.57 62.1167C152.601 62.0329 152.663 61.9602 152.744 61.9043C152.825 61.8456 152.9 61.7897 152.967 61.7366C153.042 61.6808 153.095 61.6277 153.132 61.5662C153.174 61.5075 153.174 61.4376 153.129 61.3622C153.107 61.365 153.084 61.3622 153.059 61.3482C153.037 61.3342 152.995 61.3314 152.934 61.3426L152.582 61.4013C152.587 61.446 152.582 61.4851 152.557 61.5159C152.526 61.5438 152.517 61.569 152.517 61.5885C152.523 61.6109 152.537 61.6388 152.559 61.678L152.316 61.8875L152.082 62.1446C151.976 62.1614 151.886 62.2033 151.814 62.2676C151.744 62.3347 151.68 62.4045 151.618 62.4744C151.557 62.5471 151.507 62.6169 151.451 62.684C151.4 62.7539 151.347 62.7986 151.289 62.8237L151.244 62.9467C151.009 63.0641 150.898 63.1814 150.917 63.3016C150.926 63.3407 150.968 63.4022 151.04 63.4721C151.113 63.5503 151.199 63.6286 151.289 63.7152C151.381 63.8018 151.459 63.8884 151.537 63.9667C151.618 64.0505 151.657 64.1232 151.666 64.1819C151.727 64.1735 151.819 64.2182 151.942 64.3244C152.071 64.4278 152.205 64.5619 152.358 64.724C152.503 64.8861 152.671 65.065 152.839 65.2494C153.003 65.4394 153.165 65.6099 153.319 65.7664L153.408 65.867C153.408 65.8614 153.408 65.8698 153.4 65.8949C153.383 65.9201 153.383 65.9285 153.383 65.9201C153.386 65.9397 153.403 65.9676 153.45 65.9928C153.489 66.0207 153.512 66.0431 153.512 66.0654C153.503 66.057 153.484 66.0598 153.456 66.0626C153.383 66.0766 153.33 66.1101 153.311 66.1604C153.288 66.2107 153.283 66.2694 153.288 66.3253C153.288 66.384 153.297 66.4399 153.313 66.493C153.327 66.5489 153.336 66.5852 153.336 66.6076C153.344 66.6551 153.322 66.6662 153.255 66.6467C153.193 66.6243 153.118 66.588 153.031 66.5349C152.939 66.4818 152.853 66.4147 152.76 66.3421C152.671 66.2722 152.598 66.2135 152.545 66.1604C152.397 66.1604 152.322 66.1828 152.325 66.2331C152.325 66.2806 152.364 66.3393 152.434 66.4036C152.503 66.465 152.576 66.5405 152.663 66.6159C152.746 66.697 152.791 66.7613 152.808 66.8227C152.811 66.8674 152.783 66.9401 152.724 67.0407C152.66 67.1385 152.579 67.2363 152.481 67.3341C152.383 67.4347 152.283 67.5214 152.18 67.594C152.073 67.6667 151.992 67.703 151.917 67.703C151.529 67.5661 151.286 67.5018 151.197 67.5186C151.046 67.5437 150.965 67.6388 150.948 67.798C149.89 67.9993 149.01 67.7338 148.301 66.9988C148.209 66.9038 148.075 66.7361 147.899 66.493C147.723 66.2471 147.538 66.0039 147.34 65.7608C147.145 65.5149 146.952 65.3025 146.773 65.1181C146.589 64.9364 146.452 64.8554 146.343 64.8721C146.248 64.8861 146.167 64.9448 146.103 65.0398C146.033 65.1376 145.977 65.2606 145.919 65.4031C145.863 65.5428 145.815 65.6993 145.765 65.8642C145.718 66.0291 145.673 66.1884 145.628 66.3421L145.578 66.4678L145.464 66.6439L145.355 66.778C145.304 66.8311 145.251 66.915 145.196 67.0239C145.142 67.1301 145.084 67.2391 145.031 67.3453C144.975 67.4571 144.919 67.5661 144.869 67.6667C144.813 67.7729 144.76 67.8567 144.71 67.9182L144.009 68.7482L143.889 68.832L143.71 69.0193C143.693 69.0137 143.635 69.0416 143.554 69.0975C143.461 69.1534 143.358 69.2177 143.244 69.2903C143.123 69.3602 143.012 69.4329 142.897 69.4971C142.777 69.5614 142.674 69.6033 142.587 69.6145C142.529 69.6257 142.386 69.5921 142.16 69.5083C141.939 69.4245 141.708 69.3295 141.456 69.2121C141.219 69.1003 140.99 68.9745 140.795 68.8432C140.593 68.7147 140.487 68.6085 140.473 68.5274C140.44 68.3094 140.44 68.0523 140.482 67.7561C140.518 67.4571 140.602 67.1888 140.741 66.9401C140.8 66.8255 140.87 66.6802 140.94 66.4986C141.01 66.3225 141.107 66.1129 141.23 65.8726C141.311 65.7021 141.406 65.5428 141.495 65.4031C141.576 65.269 141.646 65.1292 141.696 64.9867ZM148.625 60.1996L146.751 63.092C146.715 63.1703 146.703 63.2317 146.712 63.2848C146.723 63.3379 146.745 63.3854 146.787 63.4273C146.879 63.5335 146.98 63.5307 147.08 63.419L150.487 60.1046C151.197 59.406 151.677 58.4111 151.942 57.1228C151.987 56.8825 152.001 56.6981 151.978 56.5723C151.951 56.3879 151.856 56.3096 151.702 56.3376C151.646 56.3487 151.585 56.3767 151.529 56.4186C151.473 56.4633 151.423 56.5136 151.37 56.5667C151.314 56.6198 151.261 56.6701 151.222 56.7148C151.171 56.7567 151.127 56.7819 151.074 56.7903C151.06 56.7931 151.021 56.7931 150.965 56.7875L150.845 56.7679C150.803 56.7623 150.755 56.7679 150.702 56.7931C150.713 56.8741 150.783 56.9384 150.906 56.9859C150.993 57.0334 150.996 57.1033 150.898 57.1955C150.764 57.2178 150.705 57.2542 150.722 57.3017C150.736 57.3464 150.769 57.3939 150.822 57.4414C150.875 57.4861 150.912 57.5308 150.942 57.5783C150.962 57.6203 150.926 57.6538 150.811 57.6734C150.649 57.6985 150.479 57.7851 150.309 57.936C150.135 58.0814 149.962 58.2714 149.781 58.4977C149.602 58.7269 149.421 58.9896 149.225 59.283C149.035 59.5709 148.837 59.8811 148.625 60.1996Z" fill="#ED1C24"/>
<path d="M125.847 59.3717C125.389 59.2571 124.836 59.2543 124.194 59.3605L123.984 59.3968C123.286 59.5142 122.574 59.8495 121.845 60.4001C121.695 60.5091 121.53 60.6404 121.348 60.7885C121.17 60.9366 120.983 61.0819 120.787 61.2217C120.589 61.3614 120.391 61.4871 120.195 61.5989C119.988 61.7079 119.796 61.7806 119.603 61.8113C119.229 61.8756 118.891 61.7107 118.587 61.3279L118.497 61.2161L118.109 61.0959C118.078 61.0931 118.017 61.0791 117.919 61.054C117.821 61.0288 117.713 61.0037 117.598 60.9757C117.484 60.9506 117.363 60.9282 117.241 60.9115C117.115 60.8947 117.006 60.8919 116.914 60.9087C116.785 60.9282 116.668 60.9813 116.562 61.0568L116.367 61.2189C115.987 61.5207 115.747 61.8393 115.646 62.1774C115.546 62.5323 115.417 62.9263 115.258 63.3623C115.104 63.7731 114.92 64.2286 114.711 64.7204L115.06 64.659L115.772 65.5588C116.132 65.9864 116.11 66.3776 116.031 66.6207L116.325 67.2691L115.923 67.5234C115.906 67.8364 115.836 68.1578 115.71 68.4708L115.532 68.9011L115.358 69.1945C115.303 69.3007 115.244 69.4209 115.205 69.5131C115.171 69.5886 115.143 69.6668 115.116 69.7395L115.155 69.963L113.577 71.9304C113.471 72.0813 113.306 72.2127 113.066 72.3272C113.007 72.3552 112.949 72.3943 112.887 72.4362L112.993 73.0818L112.775 73.2355C112.803 73.3584 112.84 73.4898 112.879 73.6379C113.027 73.6882 113.239 73.7189 113.515 73.7217C113.792 73.7245 114.004 73.7497 114.147 73.7916L114.387 73.867L115.25 73.7748C115.375 73.7636 115.506 73.7608 115.657 73.7636C115.811 73.7692 115.97 73.7832 116.143 73.8084L116.515 73.8642L117.232 73.8084C117.436 73.7888 117.634 73.7692 117.838 73.7469C118.036 73.7245 118.246 73.6994 118.453 73.6602L119.38 73.5065C119.394 73.4618 119.419 73.4367 119.466 73.4227L119.611 73.364C119.664 73.3417 119.701 73.3137 119.718 73.2802C119.734 73.2522 119.726 73.2103 119.687 73.1544C119.589 72.9951 119.849 72.8107 120.477 72.5955C120.48 72.6207 120.508 72.6486 120.564 72.6877C120.586 72.8051 120.667 72.833 120.812 72.7688C120.969 72.7073 121.119 72.629 121.281 72.534C121.502 72.3943 121.695 72.2713 121.857 72.1596C122.019 72.0478 122.158 71.9528 122.264 71.8717C123.091 71.7348 123.499 71.3855 123.487 70.8294C123.524 70.8154 123.549 70.8042 123.574 70.7958C123.596 70.7902 123.616 70.7818 123.633 70.7791C123.688 70.7679 123.733 70.7846 123.764 70.8182C123.8 70.8545 123.825 70.8992 123.85 70.9495C123.87 70.9998 123.895 71.0417 123.923 71.0809C123.948 71.1172 123.99 71.134 124.043 71.1228C124.239 71.0892 124.35 70.9831 124.364 70.8042L124.49 70.7148L124.451 70.48C124.431 70.3822 124.456 70.2984 124.509 70.2229C124.56 70.1531 124.624 70.086 124.697 70.0329C124.772 69.977 124.847 69.9267 124.926 69.8904C125.004 69.8457 125.051 69.8121 125.074 69.7758L126.031 68.535C126.026 68.5099 126.034 68.454 126.059 68.3757C126.084 68.2975 126.112 68.2192 126.14 68.141C126.174 68.0571 126.227 67.9538 126.285 67.828L126.394 67.638L126.489 67.3837C126.593 67.1126 126.623 66.8471 126.579 66.5872L126.721 66.495C126.702 66.4559 126.688 66.4307 126.682 66.4028C126.674 66.3776 126.665 66.3469 126.662 66.3217C126.648 66.2239 126.651 66.1485 126.688 66.0926C126.721 66.0395 126.699 65.9584 126.612 65.8606L126.325 65.4834C126.252 65.4945 126.096 65.4414 125.864 65.3213L124.585 65.2346L123.217 65.338C123.055 65.3604 122.968 65.338 122.957 65.2794C122.948 65.2346 122.988 65.1816 123.077 65.1061C123.166 65.0334 123.264 64.9608 123.381 64.8797C123.499 64.8043 123.616 64.7344 123.722 64.6646C123.831 64.5947 123.912 64.5444 123.959 64.5025L125.124 63.5831C125.152 63.5328 125.182 63.4825 125.222 63.4322C125.258 63.3791 125.314 63.3511 125.381 63.3595C125.691 62.9822 125.936 62.686 126.118 62.4625C126.299 62.2333 126.411 62.0796 126.464 61.993C126.822 61.4368 126.956 60.931 126.883 60.4755L126.847 60.2743C126.777 59.8104 126.439 59.5058 125.847 59.3717ZM121.379 68.359L121.038 69.3259C120.98 69.3371 120.941 69.379 120.932 69.446C120.927 69.5187 120.899 69.5662 120.86 69.597C120.552 70.1559 119.893 70.7427 118.888 71.3659L118.813 71.3547C118.676 71.3463 118.553 71.3547 118.455 71.3687C118.399 71.3799 118.366 71.3883 118.346 71.405C118.33 71.419 118.296 71.4302 118.257 71.4386C118.235 71.4414 118.184 71.4442 118.134 71.4442C118.076 71.4442 118.034 71.4442 118.006 71.4497C117.835 71.4777 117.682 71.5 117.556 71.5196C117.43 71.5392 117.361 71.5168 117.349 71.4581C117.338 71.405 117.414 71.3436 117.57 71.2709C117.726 71.1982 117.911 71.1284 118.126 71.0613C118.338 70.9942 118.553 70.9328 118.771 70.8769C118.991 70.821 119.165 70.7846 119.293 70.7595L119.207 70.6617C119.07 70.6868 118.877 70.7343 118.637 70.8154C118.391 70.8936 118.207 70.9411 118.078 70.9663L117.369 71.0865C117.282 71.0166 117.235 70.9523 117.224 70.8908C117.204 70.7874 117.249 70.6645 117.347 70.5275L117.648 70.0944C117.939 69.6724 118.056 69.3287 117.983 69.066C118.045 68.9486 118.109 68.8285 118.173 68.7111C118.238 68.5937 118.305 68.4763 118.366 68.3562C118.52 68.0795 118.601 67.8336 118.623 67.6296C118.849 67.5905 119.12 67.5625 119.43 67.543C119.74 67.5262 120.039 67.529 120.318 67.5513C120.606 67.5765 120.854 67.6296 121.061 67.7078C121.273 67.7861 121.39 67.909 121.415 68.0739C121.427 68.1578 121.418 68.2556 121.379 68.359ZM122.34 61.6604C122.287 61.8532 122.231 62.0461 122.167 62.2361C122.108 62.4261 122.049 62.591 121.993 62.7391C121.94 62.8788 121.921 62.9459 121.935 62.9208L121.829 63.1248C121.745 63.284 121.622 63.4685 121.463 63.6669C121.306 63.8709 121.139 64.0693 120.949 64.2705C120.765 64.4689 120.572 64.6618 120.368 64.8462C120.167 65.0306 119.969 65.1899 119.779 65.3297C119.723 65.2626 119.681 65.1816 119.667 65.0865C119.631 64.8686 119.692 64.5835 119.843 64.2286C120.31 63.2058 121.061 62.2026 122.094 61.2105C122.147 61.177 122.192 61.1602 122.228 61.1518C122.329 61.135 122.387 61.1714 122.396 61.2496C122.409 61.3279 122.393 61.4676 122.34 61.6604Z" fill="#ED1C24"/>
<path d="M111.467 57.3409L111.752 57.2934C112.665 57.1425 113.442 57.1369 114.09 57.2906C114.922 57.4722 115.391 57.8802 115.497 58.5146L115.542 58.7857C115.645 59.3977 115.447 60.0879 114.941 60.8453C114.872 60.9626 114.704 61.175 114.444 61.4824C114.187 61.7898 113.838 62.1978 113.4 62.7064C113.305 62.7036 113.232 62.7344 113.179 62.807C113.126 62.8797 113.079 62.9496 113.037 63.0166L111.392 64.2742C111.322 64.3273 111.208 64.4027 111.051 64.4922C110.898 64.5872 110.736 64.6878 110.571 64.7912C110.404 64.8974 110.261 64.998 110.138 65.0986C110.015 65.1964 109.96 65.2774 109.968 65.3361C109.982 65.4172 110.105 65.4423 110.339 65.4144L112.269 65.2635L114.065 65.3641C114.394 65.5261 114.609 65.5988 114.712 65.582L115.114 66.0878C115.226 66.2248 115.265 66.3282 115.218 66.4064C115.173 66.4791 115.159 66.5881 115.182 66.7138C115.193 66.7557 115.198 66.7921 115.209 66.8256C115.226 66.8619 115.24 66.9039 115.26 66.9514L115.064 67.0771C115.123 67.432 115.078 67.7869 114.936 68.1558L114.796 68.5079L114.643 68.765C114.55 68.9355 114.481 69.078 114.436 69.1898C114.391 69.3016 114.349 69.4106 114.313 69.514C114.28 69.6174 114.26 69.6928 114.268 69.7292L112.911 71.4171C112.883 71.4646 112.813 71.5149 112.705 71.5708C112.593 71.6267 112.49 71.6909 112.381 71.7664C112.275 71.8418 112.185 71.9257 112.11 72.0291C112.032 72.1297 112.006 72.247 112.026 72.3756L112.079 72.6914L111.903 72.8171C111.878 73.0575 111.724 73.2028 111.442 73.2503C111.367 73.2615 111.311 73.2447 111.275 73.1944C111.241 73.1441 111.208 73.0826 111.18 73.0155C111.146 72.9485 111.107 72.8898 111.06 72.8423C111.012 72.792 110.948 72.7724 110.873 72.7864C110.85 72.792 110.82 72.8032 110.792 72.8143C110.761 72.8199 110.719 72.8367 110.666 72.8563C110.677 73.6108 110.099 74.0859 108.932 74.2843C108.781 74.3933 108.588 74.5246 108.354 74.6727C108.125 74.8292 107.854 74.9997 107.547 75.1869C107.318 75.3183 107.097 75.4272 106.888 75.5111C106.678 75.6005 106.561 75.5642 106.536 75.4021C106.458 75.3518 106.421 75.3127 106.416 75.2791C105.528 75.5782 105.156 75.8325 105.296 76.0421C105.349 76.1175 105.363 76.1762 105.335 76.2181C105.31 76.26 105.263 76.2964 105.187 76.3271L104.986 76.4081C104.922 76.4277 104.886 76.4696 104.863 76.5199L103.562 76.7407C103.266 76.791 102.973 76.8301 102.691 76.8637C102.406 76.8972 102.118 76.9279 101.833 76.9559L100.823 77.0313L100.3 76.9643C100.06 76.9307 99.8312 76.9139 99.6189 76.9084C99.4067 76.9028 99.2168 76.9084 99.0493 76.9251L97.829 77.0537L97.4967 76.9559C97.2872 76.8972 96.9912 76.8664 96.603 76.8664C96.2121 76.8664 95.9133 76.8301 95.7039 76.7602C95.6341 76.5143 95.5754 76.2936 95.5252 76.1063C95.4721 75.9163 95.4386 75.7598 95.4135 75.6285C95.0895 73.6918 95.5307 71.255 96.7315 68.3179C96.7818 68.2033 96.9354 67.8512 97.1979 67.256C97.4603 66.6635 97.829 65.8335 98.3093 64.7688C98.636 64.0506 98.9152 63.3967 99.1442 62.8014C99.3732 62.209 99.5631 61.6724 99.7055 61.1918C99.8479 60.7307 100.191 60.2975 100.73 59.8839L101.004 59.666C101.16 59.5598 101.328 59.4899 101.507 59.4592C101.632 59.4396 101.786 59.4368 101.959 59.4592C102.135 59.4815 102.303 59.5123 102.464 59.5458C102.629 59.5793 102.783 59.6101 102.917 59.6464C103.054 59.6799 103.143 59.6995 103.182 59.7023L103.724 59.8588L103.847 60.0097C104.277 60.5267 104.754 60.7447 105.279 60.6524C105.545 60.6105 105.827 60.5099 106.109 60.359C106.394 60.2081 106.673 60.0348 106.949 59.8448C107.226 59.6548 107.497 59.4536 107.748 59.2524C108.008 59.0484 108.242 58.8695 108.452 58.7242C109.471 57.9697 110.482 57.5086 111.467 57.3409ZM102.911 70.506C103.012 70.8609 102.855 71.3304 102.437 71.9061L101.998 72.4958C101.861 72.6858 101.803 72.8507 101.831 72.9904C101.842 73.0714 101.912 73.1581 102.032 73.2503L103.029 73.0854C103.207 73.0547 103.467 72.9848 103.813 72.8758C104.157 72.7668 104.425 72.6914 104.618 72.6606L104.74 72.7948C104.562 72.8227 104.316 72.8786 104.006 72.9569C103.696 73.0379 103.392 73.1217 103.09 73.214C102.788 73.3034 102.529 73.4012 102.305 73.499C102.085 73.5968 101.981 73.6807 101.995 73.7533C102.007 73.8371 102.107 73.8651 102.283 73.8371C102.464 73.8148 102.674 73.7813 102.917 73.7393C102.956 73.731 103.015 73.7282 103.096 73.731C103.174 73.7337 103.235 73.731 103.272 73.731C103.339 73.717 103.383 73.703 103.4 73.6807C103.425 73.6639 103.478 73.6471 103.554 73.6331C103.693 73.608 103.864 73.5996 104.062 73.608L104.162 73.622C105.589 72.7752 106.519 71.9676 106.96 71.2131C107.019 71.1684 107.053 71.1041 107.064 71.0091C107.075 70.9112 107.122 70.8554 107.215 70.8386L107.706 69.5307C107.762 69.3882 107.776 69.2513 107.759 69.1339C107.72 68.9103 107.555 68.7483 107.262 68.6393C106.966 68.5359 106.617 68.466 106.218 68.4325C105.818 68.4045 105.402 68.4045 104.964 68.4269C104.525 68.4576 104.148 68.4968 103.827 68.5471C103.794 68.8321 103.676 69.1647 103.461 69.5419C103.369 69.704 103.28 69.8661 103.188 70.0254C103.096 70.1819 103.003 70.344 102.911 70.506ZM105.475 65.4255C105.748 65.2355 106.025 65.0119 106.313 64.7632C106.603 64.5117 106.874 64.249 107.136 63.978C107.402 63.7069 107.642 63.433 107.868 63.1536C108.094 62.8769 108.265 62.6338 108.387 62.4158L108.538 62.1419C108.519 62.1671 108.547 62.0805 108.625 61.8848C108.706 61.6892 108.789 61.4629 108.879 61.2058C108.968 60.9515 109.046 60.6888 109.125 60.4261C109.197 60.1662 109.225 59.9789 109.208 59.8672C109.189 59.7554 109.105 59.7135 108.971 59.7358C108.918 59.747 108.859 59.7722 108.787 59.8141C107.318 61.1722 106.251 62.5444 105.589 63.9277C105.366 64.4111 105.279 64.7996 105.33 65.093C105.346 65.2243 105.397 65.3333 105.475 65.4255Z" fill="black"/>
</g>
<defs>
<clipPath id="clip0_559_1407">
<rect width="165" height="143" fill="white"/>
</clipPath>
</defs>
</svg>
