<svg width="660" height="388" viewBox="0 0 660 388" fill="none" xmlns="http://www.w3.org/2000/svg">
<path fill-rule="evenodd" clip-rule="evenodd" d="M498.917 1.48302C484.701 4.63678 481.698 6.2108 476.136 13.4238C473.913 16.3077 471.437 18.7879 470.6 18.9712C460.413 21.1973 460.627 20.9474 461.529 29.5627C462.443 38.2924 462.121 38.8149 458.061 35.1959C454.096 31.6621 453.563 31.6062 452.374 34.5947C450.951 38.175 449.014 39.7276 447.235 38.7133C444.532 37.1736 440.701 38.5215 437.178 42.2522C433.485 46.1625 428.324 49.4437 423.022 51.251C420.988 51.9446 418.555 53.0842 417.617 53.7835C411.434 58.3903 396.284 63.0766 393.607 61.2098C392.415 60.3781 391.086 60.139 389.175 60.4117C385.381 60.9535 382.953 59.6752 377.317 54.1693C374.658 51.5724 372.209 49.4473 371.875 49.4473C371.54 49.4473 369.733 47.37 367.859 44.8311C363.931 39.5107 362.739 38.8901 359.678 40.5715C355.834 42.6824 322.624 79.1754 319.358 84.8766C316.658 89.5894 318.119 92.6372 325.665 98.0357C328.17 99.828 328.999 100.94 329.612 103.329C331.342 110.079 331.707 110.936 333.332 112.069C337.681 115.102 339.763 113.85 343.06 106.216C345.967 99.4873 347.813 98.5575 350.531 102.452C351.792 104.259 351.787 104.342 350.02 110.297C346.772 121.24 344.129 122.573 333.023 118.869C330.678 118.087 328.461 117.447 328.096 117.447C327.731 117.447 324.164 120.801 320.17 124.899C312.052 133.229 310.446 134.331 305.393 135.045C301.156 135.643 300.636 136.644 302.912 139.82C305.197 143.009 307.561 148.791 307.1 150.068C306.834 150.805 305.537 151.089 302.441 151.089C297.86 151.089 294.207 152.086 293.728 153.466C290.814 161.85 292.339 170.804 296.988 172.6C300.774 174.062 311.252 167.079 314.031 161.243C318.017 152.873 321.093 151.875 329.556 156.206C337.268 160.152 338.336 161.579 336.889 165.999C335.684 169.677 336.406 169.837 340.648 166.834C345.59 163.336 345.01 163.306 348.661 167.247C352.018 170.872 354.18 171.248 355.493 168.434C356.663 165.925 356.9 165.859 359.273 167.392C360.494 168.181 364.026 169.4 367.122 170.101C375.034 171.893 377.139 174.913 374.002 179.978C371.201 184.501 366.072 185.992 361.664 183.567C359.932 182.612 358.566 182.504 354.132 182.967C343.74 184.055 342.065 183.484 338.292 177.57C334.101 171 329.151 169.482 317.16 171.088C300.392 173.335 296.867 175.364 288.453 187.616C277.684 203.294 276.418 210.637 281.783 226.285C286.452 239.904 292.292 244.376 303.341 242.794C310.277 241.8 319.681 241.767 322.924 242.726C326.633 243.823 327.158 244.865 326.138 249.101C325.302 252.574 325.344 252.819 327.71 258.248C331.203 266.263 339.224 303.782 340.91 319.994C341.824 328.783 342.787 329.476 351.275 327.449C362.779 324.701 365.863 321.569 369.643 308.795C372.382 299.537 373.76 297.043 377.976 293.712C379.636 292.401 381.902 290.581 383.012 289.669L385.029 288.011L385.365 274.716C385.666 262.808 385.842 261.234 387.046 259.633C387.786 258.651 391.196 254.199 394.624 249.741C401.137 241.272 405.228 233.655 405.933 228.684L406.349 225.754L400.711 225.292C388.836 224.321 387.097 223.105 380.836 211.394C376.291 202.893 375.549 200.343 377.496 199.912C379.381 199.495 380.595 201.028 383.593 207.613C387.819 216.894 392.298 221.538 396.585 221.084C403.208 220.381 415.905 213.485 416.688 210.166C418.007 204.573 414.513 199.212 408.937 198.273C404.885 197.592 402.176 195.414 402.176 192.838C402.176 190.151 403.105 190.437 414.07 196.492C415.25 197.143 417.957 197.978 420.088 198.347C432.948 200.575 440.278 208.362 447.571 227.542C452.468 240.417 453.505 240.889 457.703 232.146C461.209 224.843 465.813 217.373 469.62 212.809C471.327 210.764 473.05 208.441 473.449 207.648C474.638 205.282 475.592 205.878 482.375 213.229C489.843 221.319 490.266 222.211 490.266 229.872C490.266 236.595 490.784 236.868 493.569 231.615C496.061 226.915 496.455 226.828 498.416 230.542C500.255 234.025 501.209 234.098 506.246 231.14C513.716 226.754 514.278 225.439 511.454 218.981C508.211 211.566 509.731 208.599 517.768 206.659C533.543 202.849 536.89 196.989 532.167 181.452C529.88 173.928 531.711 168.174 537.492 164.721C539.999 163.222 540.294 163.906 540.116 170.785C539.937 177.717 539.777 177.578 545.948 175.83C551.302 174.312 551.458 174.054 551.458 166.681V160.258L559.109 151.495C568.283 140.988 569.682 138.814 571.969 131.507C574.066 124.809 573.684 122.662 569.765 119.118L567.26 116.853L568.555 114.262C571.151 109.069 579.921 102.443 584.226 102.423C587.429 102.408 590.885 104.564 592.47 107.568C593.907 110.288 594.029 111.398 594.109 122.388C594.219 137.593 594.506 138.03 598.559 129.157C600.861 124.117 603.133 120.499 606.505 116.502C610.582 111.669 611.337 110.346 612.015 106.838C612.447 104.602 613.046 102.277 613.346 101.671C613.956 100.436 613.597 100.643 626.253 94.2312C638.83 87.8593 640.892 85.8207 640.892 79.7623C640.892 73.6008 641.104 73.5486 650.209 77.4661C652.459 78.4338 652.476 78.4259 655.459 74.9229C659.842 69.7764 660.747 67.6662 659.465 65.584C656.61 60.9464 641.948 49.1824 632.906 44.2757C627.515 41.3496 627.044 41.2264 621.919 41.3968C615.29 41.618 609.614 40.2651 601.287 36.4779C593.057 32.735 582.115 29.6815 571.967 28.2972C563.036 27.0782 549.97 23.9445 541.707 21.0405C536.585 19.2403 535.965 18.7765 528.752 11.3552C517.384 -0.340803 513.274 -1.70152 498.917 1.48302ZM216.333 17.4157C216.334 17.9082 216.937 21.5315 217.673 25.4684C218.408 29.4052 219.213 36.1544 219.462 40.4663C219.889 47.8661 220.018 48.3993 221.764 49.9626C224.179 52.1265 224.765 55.8621 223.424 60.542C220.969 69.1042 222.238 76.2492 228.777 90.6681C232.879 99.7142 235.84 103.847 238.22 103.847C238.737 103.847 239.629 104.813 240.203 105.995C242.347 110.408 244.021 107.848 247.942 94.1633C251.641 81.2512 251.617 81.2862 261.384 74.3166C272.123 66.6541 277.439 62.2219 282.141 57.0074L286.423 52.2589L285.999 47.811C285.766 45.3644 285.403 40.7862 285.193 37.6368L284.81 31.9105L288.228 24.5285C290.106 20.4686 291.644 17.0056 291.644 16.8338C291.644 16.662 274.699 16.521 253.988 16.521C224.31 16.521 216.332 16.7107 216.333 17.4157ZM18.217 41.0475C17.433 41.5335 14.5583 43.9164 11.8288 46.3422C9.09942 48.7687 6.11917 51.3892 5.20667 52.1658C3.5908 53.5416 3.56995 53.6761 4.43605 57.2715L5.32502 60.9636L2.51758 65.4058C0.286431 68.9353 -0.215209 70.2881 0.0746127 71.9946C0.275 73.1756 0.896333 77.786 1.45513 82.2404C3.08176 95.2097 4.57794 97.7085 12.2458 100.259C20.7138 103.076 26.9856 103.013 31.5125 100.067C41.7302 93.4181 46.522 94.4567 50.9016 104.269C54.0748 111.379 57.0786 115.117 62.3667 118.537C67.2755 121.71 72.1164 127.306 75.0886 133.242C77.2673 137.594 77.4105 138.33 77.861 147.502C78.5967 162.471 80.9193 170.476 86.984 178.95C89.0349 181.815 92.695 187.428 95.1185 191.425C105.563 208.646 105.09 208.15 105.78 202.61C106.411 197.55 106.974 197.616 110.302 203.143C115.298 211.44 119.003 214.396 126.744 216.259C134.304 218.079 135.894 218.843 140.606 222.929C142.506 224.576 146.345 227.159 149.137 228.668C162.738 236.018 164.122 238.918 160.08 251.604C157.608 259.364 157.87 261.373 162.666 271.498C166.012 278.564 167.649 281.141 171.004 284.628C179.006 292.946 179.105 293.55 175.976 315.044C174.861 322.699 173.784 332.022 173.582 335.762C173.38 339.502 172.589 347.667 171.824 353.906C170.231 366.909 170.409 373.384 172.482 377.704C175.164 383.294 181.818 387.969 187.136 387.999C190.782 388.02 190.998 387.621 189.039 384.471C186.416 380.251 186.227 375.676 188.436 369.797C190.201 365.103 190.247 364.669 189.477 360.079C188.338 353.296 189.047 351.918 198.505 342.54C202.968 338.115 211.614 328.129 218.319 319.657C224.862 311.39 231.728 303.176 233.576 301.405C239.681 295.554 241.599 292.153 244.841 281.435C251.498 259.428 251.088 258.41 233.814 254.071C223.351 251.442 223.557 251.576 212.879 240.44C205.23 232.461 204.904 232.216 198.086 229.338C183.803 223.311 174.224 221.919 169.044 225.12C162.68 229.052 159.295 228.234 156.103 221.992C154.635 219.121 153.695 218.178 151.344 217.222L148.415 216.031V211.583C148.415 201.949 146.652 200.543 140.834 205.536C134.205 211.224 132.471 211.198 130.658 205.383C126.474 191.966 129.874 186.833 142.9 186.897C148.482 186.924 151.361 188.588 154.019 193.319C157.408 199.351 159.816 199 159.836 192.472C159.85 187.89 160.657 185.945 165.1 179.794C167.203 176.881 170.286 171.749 171.95 168.388C174.677 162.881 175.375 162.022 179.011 159.689C181.23 158.266 184.412 155.99 186.082 154.632C191.804 149.98 205.63 143.029 209.915 142.651C214.567 142.241 214.563 142.596 210.058 130.245C206.591 120.738 203.971 115.199 200.281 109.573C198.861 107.408 196.715 103.06 195.51 99.9103C192.505 92.0474 190.156 89.5586 189.096 93.1139C188.398 95.4552 185.379 98.8366 183.985 98.8366C183.071 98.8366 182.232 97.73 181.121 95.0537C179.157 90.3281 176.307 87.7319 171.424 86.2209C165.605 84.4199 164.674 85.2603 163.036 93.791L161.736 100.557L163.481 105.079C165.525 110.377 165.671 112.875 164.049 114.779C163.276 115.687 162.756 117.796 162.536 120.92C162.219 125.417 162.102 125.691 160.435 125.896C157.676 126.237 156.514 124.429 156.624 119.97C156.744 115.139 155.995 114.175 151.703 113.634C149.71 113.383 147.019 112.369 145.27 111.209C143.615 110.112 140.965 108.41 139.38 107.426C134.066 104.126 134.125 104.247 134.612 97.8023C135.254 89.2723 135.472 88.8836 143.179 82.4823C144.148 81.6778 144.863 81.7136 147.674 82.7071C150.979 83.8759 151.055 83.8681 154.249 82.0578C156.027 81.05 157.862 80.2261 158.328 80.2261C159.757 80.2261 159.267 77.7051 157.493 75.9314C155.477 73.9158 155.376 72.2014 157.1 69.2159C160.255 63.7508 159.11 55.6531 154.487 50.7321C151.16 47.1897 149.687 47.2527 142.591 51.2367C136.15 54.8529 135.022 55.0698 133.285 53.0262C131.819 51.3026 130.673 51.2467 126.813 52.7105C117.43 56.2694 95.8333 54.3246 86.3929 49.07C83.804 47.6292 82.4766 47.2906 80.8984 47.6678C79.7539 47.942 74.8835 48.3807 70.0755 48.6427C64.9159 48.924 60.5941 49.5188 59.5283 50.0929C57.5614 51.153 42.1411 47.3328 36.8369 44.4711C30.68 41.1491 20.9404 39.3582 18.217 41.0475ZM572.701 145.948C571.406 148.686 569.23 154.365 567.866 158.571C564.882 167.763 563.51 170.073 559.267 173.036C554.432 176.412 552.302 178.865 551.193 182.329C549.745 186.852 549.83 186.825 562.494 178.751C571.703 172.881 572.97 171.267 572.973 165.4C572.976 160.123 573.84 157.229 576.302 154.244C578.576 151.486 578.913 148.383 577.417 143.974C576.131 140.185 575.254 140.552 572.701 145.948ZM485.559 239.582C485.559 240.709 496.733 259.473 499.129 262.372C502.116 265.984 502.64 266.138 506.056 264.403C508.434 263.197 508.462 263.202 513.644 265.871C520.349 269.326 522.504 269.524 523.756 266.801C524.619 264.929 524.889 264.811 527.148 265.326C530.787 266.156 532.618 265.946 536.16 264.293L539.354 262.803V258.573C539.354 247.203 536.006 245.453 528.188 252.735C523.069 257.504 522.436 257.404 523.878 252.05C524.651 249.182 523.652 244.142 522.311 244.142C518.193 244.142 512.022 247.62 509.844 251.17C507.595 254.835 505.158 256.069 504.025 254.119C502.55 251.577 485.559 238.202 485.559 239.582ZM554.619 253.899C553.607 254.976 555.932 257.328 559.907 259.247C563.965 261.205 564.166 261.416 563.567 263.094C562.46 266.193 569.816 271.299 574.125 270.422C575.113 270.221 577.689 270.657 579.849 271.392C586.167 273.54 588.867 272.402 586.761 268.478C586.232 267.494 585.789 265.87 585.776 264.869C585.757 263.407 585.059 262.671 582.222 261.12C580.28 260.058 577.89 258.503 576.91 257.664C575.471 256.432 573.92 256.068 568.841 255.772C565.383 255.571 561.736 254.966 560.737 254.427C558.854 253.411 555.361 253.11 554.619 253.899ZM572.303 275.787C570.888 278.97 566.869 282.185 564.135 282.322C561.905 282.435 561.877 282.398 561.544 278.857C561.028 273.366 555.767 273.334 550.204 278.788C547.352 281.583 546.842 281.817 544.217 281.527C541.074 281.179 540.586 281.584 535.803 288.508C533.294 292.142 531.898 293.054 526.382 294.661C524.241 295.286 521.688 296.529 520.71 297.426L518.93 299.055L520.151 305.246C520.961 309.353 521.219 312.579 520.917 314.831C519.631 324.425 519.647 325.321 521.122 326.741C523.569 329.099 528.218 329.035 533.98 326.565C539.053 324.39 546.94 321.954 551.612 321.12C554.279 320.643 558.456 324.021 565.915 332.687C568.314 335.475 569.135 335.927 573.516 336.878C583.747 339.1 586.975 336.359 591.421 321.67C595.705 307.514 595.637 306.23 590.282 300.123C583.093 291.924 581.095 288.901 578.355 282.077C574.596 272.717 573.962 272.058 572.303 275.787Z" fill="#262A35"/>
</svg>
