<svg width="35" height="35" viewBox="0 0 35 35" fill="none" xmlns="http://www.w3.org/2000/svg">
<path d="M29.875 23.6875C29.875 24.21 29.5863 24.6637 29.1463 24.8975L18.2838 31.0025C18.0638 31.1675 17.7888 31.25 17.5 31.25C17.2113 31.25 16.9363 31.1675 16.7163 31.0025L5.85376 24.8975C5.63331 24.7817 5.44883 24.6076 5.32036 24.3943C5.19188 24.181 5.12431 23.9365 5.12501 23.6875V11.3125C5.12501 10.79 5.41376 10.3362 5.85376 10.1025L16.7163 3.9975C16.9363 3.8325 17.2113 3.75 17.5 3.75C17.7888 3.75 18.0638 3.8325 18.2838 3.9975L29.1463 10.1025C29.5863 10.3362 29.875 10.79 29.875 11.3125V23.6875ZM17.5 6.70625L9.30501 11.3125L17.5 15.9188L25.695 11.3125L17.5 6.70625Z" fill="url(#paint0_linear_162_3045)"/>
<defs>
<linearGradient id="paint0_linear_162_3045" x1="12" y1="7" x2="35" y2="37" gradientUnits="userSpaceOnUse">
<stop stop-color="white"/>
<stop offset="1" stop-color="white" stop-opacity="0"/>
</linearGradient>
</defs>
</svg>
