<svg width="36" height="36" viewBox="0 0 36 36" fill="none" xmlns="http://www.w3.org/2000/svg">
<path fill-rule="evenodd" clip-rule="evenodd" d="M28.5 13.5C28.5 21.2683 20.3158 25.8425 18.3984 26.8075C18.144 26.9355 17.856 26.9355 17.6016 26.8075C15.6842 25.8425 7.5 21.2683 7.5 13.5C7.5 7.70101 12.201 3 18 3C23.799 3 28.5 7.70101 28.5 13.5ZM22.5 13.5C22.5 15.9853 20.4853 18 18 18C15.5147 18 13.5 15.9853 13.5 13.5C13.5 11.0147 15.5147 9 18 9C20.4853 9 22.5 11.0147 22.5 13.5ZM27.6893 23.947C27.2458 23.6179 26.6195 23.7105 26.2903 24.154C25.9611 24.5974 26.0538 25.2238 26.4972 25.553C27.2857 26.1383 27.5 26.6519 27.5 27C27.5 27.3481 27.2857 27.8617 26.4972 28.447C25.7175 29.0259 24.5287 29.5506 23.0098 29.9264C21.501 30.2997 19.7718 30.5 18 30.5C16.2282 30.5 14.499 30.2997 12.9902 29.9264C11.4713 29.5506 10.2825 29.0259 9.50277 28.447C8.71426 27.8617 8.5 27.3481 8.5 27C8.5 26.6519 8.71426 26.1383 9.50277 25.553C9.94623 25.2238 10.0389 24.5974 9.70969 24.154C9.3805 23.7105 8.75415 23.6179 8.31069 23.947C7.25607 24.7299 6.5 25.7682 6.5 27C6.5 28.2318 7.25607 29.2701 8.31069 30.053C9.37408 30.8423 10.8363 31.4538 12.5098 31.8678C14.1934 32.2844 16.0855 32.5 18 32.5C19.9145 32.5 21.8066 32.2844 23.4902 31.8678C25.1637 31.4538 26.6259 30.8423 27.6893 30.053C28.7439 29.2701 29.5 28.2318 29.5 27C29.5 25.7682 28.7439 24.7299 27.6893 23.947Z" fill="url(#paint0_linear_38_911)"/>
<defs>
<linearGradient id="paint0_linear_38_911" x1="9" y1="8.5" x2="30" y2="59.5" gradientUnits="userSpaceOnUse">
<stop stop-color="white"/>
<stop offset="1" stop-color="white" stop-opacity="0"/>
</linearGradient>
</defs>
</svg>
