<svg width="36" height="36" viewBox="0 0 36 36" fill="none" xmlns="http://www.w3.org/2000/svg">
<path fill-rule="evenodd" clip-rule="evenodd" d="M6.00368 9.75368C5.125 10.6324 5.125 12.0466 5.125 14.875V22.125C5.125 24.9534 5.125 26.3676 6.00368 27.2463C6.88236 28.125 8.29657 28.125 11.125 28.125H23.875C26.7034 28.125 28.1176 28.125 28.9963 27.2463C29.875 26.3676 29.875 24.9534 29.875 22.125V14.875C29.875 12.0466 29.875 10.6324 28.9963 9.75368C28.1176 8.875 26.7034 8.875 23.875 8.875H11.125C8.29657 8.875 6.88236 8.875 6.00368 9.75368ZM9.8047 13.5429C9.34517 13.2366 8.7243 13.3608 8.41795 13.8203C8.1116 14.2798 8.23577 14.9007 8.6953 15.2071L16.3906 20.3372C17.0624 20.7851 17.9376 20.7851 18.6094 20.3372L26.3047 15.2071C26.7642 14.9007 26.8884 14.2798 26.5821 13.8203C26.2757 13.3608 25.6548 13.2366 25.1953 13.5429L17.5 18.6731L9.8047 13.5429Z" fill="url(#paint0_linear_104_732)"/>
<defs>
<linearGradient id="paint0_linear_104_732" x1="7.5" y1="9" x2="42" y2="49.5" gradientUnits="userSpaceOnUse">
<stop stop-color="white"/>
<stop offset="1" stop-color="white" stop-opacity="0"/>
</linearGradient>
</defs>
</svg>
