<svg width="23" height="17" viewBox="0 0 23 17" fill="none" xmlns="http://www.w3.org/2000/svg">
<path d="M21.6507 2.98614L21.6508 2.98649C21.8654 3.82883 21.9814 5.18479 22.0403 6.38166C22.0693 6.96934 22.0838 7.50088 22.0911 7.88555C22.0947 8.07772 22.0965 8.23284 22.0974 8.3395C22.0978 8.39283 22.0981 8.43401 22.0982 8.46163L22.0983 8.49271L22.0983 8.50028L22.0983 8.50201V8.50231V8.50235V8.5024V8.5027L22.0983 8.50443L22.0983 8.512L22.0982 8.54307C22.0981 8.5707 22.0978 8.61188 22.0974 8.66521C22.0965 8.77187 22.0947 8.92699 22.0911 9.11916C22.0838 9.50383 22.0693 10.0354 22.0403 10.623C21.9814 11.8199 21.8654 13.1759 21.6508 14.0182L21.6507 14.0186C21.5544 14.3971 21.3656 14.7391 21.1066 15.0116C20.848 15.2836 20.5289 15.4767 20.1828 15.5755C19.8235 15.6762 19.1247 15.7654 18.2131 15.8353C17.3222 15.9037 16.2904 15.9496 15.3062 15.9803C14.3233 16.0111 13.3942 16.0264 12.7104 16.0341C12.3687 16.038 12.0886 16.0399 11.8941 16.0409C11.7969 16.0413 11.7211 16.0416 11.6698 16.0417L11.6115 16.0418L11.5968 16.0418L11.5932 16.0418H11.5923H11.5921H11.5919H11.591L11.5874 16.0418L11.5727 16.0418L11.5144 16.0417C11.4631 16.0416 11.3873 16.0413 11.2901 16.0409C11.0956 16.0399 10.8155 16.038 10.4738 16.0341C9.79001 16.0264 8.86088 16.0111 7.87797 15.9803C6.89381 15.9496 5.86205 15.9037 4.97107 15.8353C4.05946 15.7654 3.36066 15.6762 3.00131 15.5755C2.65525 15.4767 2.33618 15.2836 2.07764 15.0116C1.8186 14.7391 1.62977 14.3971 1.53353 14.0186L1.53344 14.0182C1.31885 13.1759 1.20283 11.8199 1.14387 10.623C1.11491 10.0354 1.10041 9.50383 1.09316 9.11916C1.08954 8.92699 1.08773 8.77187 1.08683 8.66521C1.08638 8.61188 1.08616 8.5707 1.08605 8.54307L1.08595 8.512L1.08594 8.50443L1.08594 8.5027L1.08594 8.5024V8.50236V8.50235V8.50231L1.08594 8.50201L1.08594 8.50028L1.08595 8.49271L1.08605 8.46164C1.08616 8.43401 1.08638 8.39283 1.08683 8.3395C1.08773 8.23284 1.08954 8.07772 1.09316 7.88555C1.10041 7.50088 1.11491 6.96934 1.14387 6.38166C1.20283 5.1848 1.31885 3.82883 1.53344 2.98649L1.53353 2.98614C1.62977 2.60758 1.8186 2.26562 2.07764 1.99311C2.33616 1.72116 2.65518 1.52809 3.0012 1.42924C3.36052 1.32851 4.05937 1.23932 4.97107 1.16939C5.86205 1.10106 6.89381 1.05512 7.87797 1.02436C8.86088 0.993646 9.79001 0.978266 10.4738 0.970573C10.8156 0.966728 11.0956 0.964807 11.2901 0.963848C11.3873 0.963368 11.4631 0.963129 11.5144 0.963009L11.5727 0.962905L11.5874 0.962892L11.591 0.962891L11.5919 0.962891H11.5921L11.5921 0.212891L11.5921 0.962891H11.5923L11.5932 0.962891L11.5968 0.962892L11.6115 0.962905L11.6698 0.963009C11.7211 0.963129 11.7969 0.963368 11.8941 0.963848C12.0886 0.964807 12.3687 0.966728 12.7104 0.970573C13.3942 0.978266 14.3233 0.993646 15.3062 1.02436C16.2904 1.05512 17.3222 1.10106 18.2131 1.16939C19.1248 1.23931 19.8236 1.3285 20.183 1.42922C20.529 1.52807 20.848 1.72115 21.1066 1.99311C21.3656 2.26562 21.5544 2.60758 21.6507 2.98614Z" stroke="white" stroke-width="1.5"/>
<path d="M9.81445 12.0564V4.95117L14.5539 8.5038L9.81445 12.0564Z" fill="white"/>
</svg>
