<svg width="19" height="15" viewBox="0 0 19 15" fill="none" xmlns="http://www.w3.org/2000/svg">
<path d="M17.8759 3.22292L17.8759 3.22327C18.0538 3.92147 18.1515 5.05507 18.2013 6.0656C18.2256 6.56012 18.2378 7.0075 18.2439 7.3313C18.247 7.49304 18.2485 7.62355 18.2493 7.71321L18.2499 7.81577L18.25 7.84176L18.25 7.84803V7.84944V7.84962V7.84967V7.8497V7.8499V7.85131L18.25 7.85758L18.2499 7.88357L18.2493 7.98613C18.2485 8.07579 18.247 8.2063 18.2439 8.36804C18.2378 8.69184 18.2256 9.13922 18.2013 9.63374C18.1515 10.6443 18.0538 11.7779 17.8759 12.4761L17.8759 12.4764C17.7995 12.7769 17.6498 13.0475 17.4452 13.2627C17.2412 13.4774 16.9901 13.6291 16.7186 13.7067C16.4279 13.7881 15.8492 13.8628 15.0791 13.9219C14.3296 13.9794 13.4608 14.0181 12.631 14.044C11.8025 14.0699 11.0191 14.0829 10.4425 14.0893C10.1544 14.0926 9.91822 14.0942 9.75433 14.095L9.5653 14.0957L9.51623 14.0958L9.50389 14.0958L9.50088 14.0958L9.50017 14.0958H9.50002L9.5 14.8458L9.49998 14.0958H9.49983L9.49913 14.0958L9.49611 14.0958L9.48377 14.0958L9.4347 14.0957L9.24567 14.095C9.08178 14.0942 8.84564 14.0926 8.55749 14.0893C7.98088 14.0829 7.19754 14.0699 6.36899 14.044C5.53919 14.0181 4.67038 13.9794 3.92091 13.9219C3.15087 13.8628 2.57215 13.7881 2.2814 13.7067C2.00993 13.6291 1.75882 13.4774 1.55478 13.2627C1.35023 13.0476 1.20054 12.7769 1.12415 12.4764L1.12406 12.4761C0.946195 11.7779 0.848537 10.6443 0.798751 9.63374C0.774387 9.13922 0.762179 8.69184 0.756074 8.36804C0.753025 8.2063 0.751506 8.07579 0.750749 7.98613L0.750091 7.88357L0.750011 7.85758L0.750001 7.85131L0.75 7.8499L0.75 7.84972V7.8497V7.84964V7.84962L0.75 7.84944L0.750001 7.84803L0.750011 7.84176L0.750091 7.81577L0.750749 7.71321C0.751506 7.62355 0.753025 7.49304 0.756074 7.3313C0.762179 7.0075 0.774387 6.56012 0.798751 6.0656C0.848537 5.05507 0.946195 3.92147 1.12406 3.22327L1.12415 3.22292C1.20054 2.92247 1.35023 2.65179 1.55478 2.43661C1.75879 2.22199 2.00987 2.07028 2.2813 1.99268C2.57201 1.91124 3.15078 1.83652 3.92091 1.77746C4.67038 1.71998 5.53919 1.68127 6.36899 1.65534C7.19754 1.62945 7.98088 1.61648 8.55749 1.60999C8.84564 1.60675 9.08178 1.60513 9.24567 1.60432L9.4347 1.60362L9.48377 1.60353L9.49611 1.60352L9.49913 1.60352L9.49983 1.60352H9.49998L9.5 0.853516L9.50002 1.60352H9.50017L9.50088 1.60352L9.50389 1.60352L9.51623 1.60353L9.5653 1.60362L9.75433 1.60432C9.91822 1.60513 10.1544 1.60675 10.4425 1.60999C11.0191 1.61648 11.8025 1.62945 12.631 1.65534C13.4608 1.68127 14.3296 1.71998 15.0791 1.77746C15.8493 1.83653 16.428 1.91124 16.7187 1.99269C16.9902 2.07029 17.2412 2.222 17.4452 2.43661C17.6498 2.65179 17.7995 2.92247 17.8759 3.22292Z" stroke="#E41713" stroke-width="1.5"/>
<path d="M8 10.8483V4.85156L12 7.84991L8 10.8483Z" fill="#E41713"/>
</svg>
