<svg width="27" height="27" viewBox="0 0 27 27" fill="none" xmlns="http://www.w3.org/2000/svg">
<path d="M17.9599 4.64062H9.2757C6.87762 4.64062 4.93359 6.58465 4.93359 8.98273V17.6669C4.93359 20.065 6.87762 22.009 9.2757 22.009H17.9599C20.358 22.009 22.302 20.065 22.302 17.6669V8.98273C22.302 6.58465 20.358 4.64062 17.9599 4.64062Z" stroke="white" stroke-width="1.5" stroke-linecap="round" stroke-linejoin="round"/>
<path d="M13.6179 16.5815C15.4165 16.5815 16.8745 15.1235 16.8745 13.3249C16.8745 11.5264 15.4165 10.0684 13.6179 10.0684C11.8193 10.0684 10.3613 11.5264 10.3613 13.3249C10.3613 15.1235 11.8193 16.5815 13.6179 16.5815Z" stroke="white" stroke-width="1.5" stroke-linecap="round" stroke-linejoin="round"/>
<path d="M18.502 8.43945V8.44045" stroke="white" stroke-width="1.5" stroke-linecap="round" stroke-linejoin="round"/>
</svg>
