<svg width="22" height="22" viewBox="0 0 22 22" fill="none" xmlns="http://www.w3.org/2000/svg">
<path fill-rule="evenodd" clip-rule="evenodd" d="M8.88523 8.01574H12.1839V9.65884C12.659 8.71384 13.8776 7.86476 15.7081 7.86476C19.2172 7.86476 20.0503 9.74588 20.0503 13.1973V19.5893H16.4976V13.9833C16.4976 12.0178 16.0225 10.9094 14.8128 10.9094C13.1351 10.9094 12.4379 12.1039 12.4379 13.9824V19.5893H8.88523V8.01574V8.01574ZM2.79336 19.4383H6.34599V7.86476H2.79336V19.4383V19.4383ZM6.85491 4.09097C6.85504 4.38875 6.79598 4.68358 6.68117 4.95834C6.56636 5.23309 6.39808 5.48229 6.18612 5.69144C5.75661 6.11831 5.17523 6.35725 4.56968 6.35578C3.96519 6.35537 3.38515 6.11704 2.955 5.69232C2.74381 5.48246 2.5761 5.23299 2.46149 4.9582C2.34688 4.68341 2.28762 4.38871 2.28711 4.09097C2.28711 3.48969 2.52691 2.91417 2.95589 2.48963C3.38566 2.06434 3.96594 1.82591 4.57056 1.82617C5.17629 1.82617 5.75714 2.06509 6.18612 2.48963C6.61421 2.91417 6.85491 3.48969 6.85491 4.09097Z" fill="white"/>
</svg>
