<svg width="36" height="36" viewBox="0 0 36 36" fill="none" xmlns="http://www.w3.org/2000/svg">
<path fill-rule="evenodd" clip-rule="evenodd" d="M6.00368 8.75368C5.125 9.63236 5.125 11.0466 5.125 13.875V21.125C5.125 23.9534 5.125 25.3676 6.00368 26.2463C6.88236 27.125 8.29657 27.125 11.125 27.125H23.875C26.7034 27.125 28.1176 27.125 28.9963 26.2463C29.875 25.3676 29.875 23.9534 29.875 21.125V13.875C29.875 11.0466 29.875 9.63236 28.9963 8.75368C28.1176 7.875 26.7034 7.875 23.875 7.875H11.125C8.29657 7.875 6.88236 7.875 6.00368 8.75368ZM9.8047 12.5429C9.34517 12.2366 8.7243 12.3608 8.41795 12.8203C8.1116 13.2798 8.23577 13.9007 8.6953 14.2071L16.3906 19.3372C17.0624 19.7851 17.9376 19.7851 18.6094 19.3372L26.3047 14.2071C26.7642 13.9007 26.8884 13.2798 26.5821 12.8203C26.2757 12.3608 25.6548 12.2366 25.1953 12.5429L17.5 17.6731L9.8047 12.5429Z" fill="url(#paint0_linear_325_2235)"/>
<defs>
<linearGradient id="paint0_linear_325_2235" x1="7.5" y1="8" x2="42" y2="48.5" gradientUnits="userSpaceOnUse">
<stop stop-color="white"/>
<stop offset="1" stop-color="white" stop-opacity="0"/>
</linearGradient>
</defs>
</svg>
