<svg width="36" height="36" viewBox="0 0 36 36" fill="none" xmlns="http://www.w3.org/2000/svg">
<path d="M6.67962 7.21512L10.1876 3.70711C10.5782 3.31658 11.2113 3.31658 11.6018 3.70711L16.5034 8.60868C16.8939 8.99921 16.8939 9.63237 16.5034 10.0229L13.2639 13.2624C12.792 13.7343 12.675 14.4553 12.9735 15.0522C14.6989 18.503 17.497 21.3011 20.9478 23.0265C21.5447 23.325 22.2657 23.208 22.7376 22.7361L25.9771 19.4966C26.3676 19.1061 27.0008 19.1061 27.3913 19.4966L32.2929 24.3982C32.6834 24.7887 32.6834 25.4218 32.2929 25.8124L28.7849 29.3204C26.6735 31.4317 23.331 31.6693 20.9422 29.8777L15.1023 25.4977C13.3587 24.1901 11.8099 22.6413 10.5023 20.8977L6.12226 15.0578C4.33072 12.669 4.56827 9.32647 6.67962 7.21512Z" fill="url(#paint0_linear_325_2233)"/>
<defs>
<linearGradient id="paint0_linear_325_2233" x1="17" y1="9.5" x2="26.5" y2="42" gradientUnits="userSpaceOnUse">
<stop stop-color="white"/>
<stop offset="1" stop-color="white" stop-opacity="0"/>
</linearGradient>
</defs>
</svg>
