<svg width="162" height="143" viewBox="0 0 162 143" fill="none" xmlns="http://www.w3.org/2000/svg">
<path d="M31.7391 68.0812C33.1057 60.8544 38.2405 55.268 45.0297 53C36.5214 53.6933 29.2195 59.7281 27.6307 68.1131C25.7468 78.1395 32.7422 87.7198 43.2742 89.517C43.3746 89.5367 43.4706 89.5481 43.5808 89.5618C35.0147 86.006 30.0248 77.2153 31.7393 68.0812H31.7391Z" fill="#215190"/>
<path d="M44.1092 89.6672C52.6022 91.3661 63.7148 86.5154 66.1268 76.1074C68.4258 66.1095 62.231 55.9572 52.8879 53.4022C48.2293 52.1229 42.2553 54.5929 41.0558 59.5627C39.8419 64.5298 42.3977 68.7547 48.5013 71.4495C53.1967 73.2423 56.2218 77.7291 55.01 82.6924C55.01 82.6924 53.7367 90.2735 44.1097 89.6672H44.1092Z" fill="#E31E24"/>
<path d="M140.938 76.0357L145.94 62.004H146.007L151.006 76.0357H140.938ZM148.965 55.0581H142.978L129.934 88.6023H136.429L139.165 80.9646H152.771L155.517 88.6023H162L148.965 55.0581ZM26.3169 55.0581H18.7731L5.87022 68.9928H5.77444V55.0576H0V88.6023H5.77444V73.3458H5.87022L19.1889 88.6023H27.339L11.4801 70.9874L26.3162 55.0578L26.3169 55.0581ZM110.953 74.0591H125.62V69.1339H110.953V60.1461H126.569V55.0576H105.173V88.6023H127.181V83.5024H110.953V74.0591ZM98.0372 65.2933C98.0372 59.6395 93.3708 55.0576 87.6151 55.0576H72.8123V88.6023H78.5914V59.9821H87.3337C90.1066 59.9821 92.3442 62.3379 92.3442 65.2462C92.3442 68.1584 90.1066 70.5142 87.3337 70.5142L80.5918 70.5205L91.7798 88.6023H98.681L89.5884 74.8172C94.7849 74.0185 98.0379 70.0383 98.0379 65.2933H98.0372Z" fill="#215190"/>
</svg>
