<svg width="16" height="16" viewBox="0 0 16 16" fill="none" xmlns="http://www.w3.org/2000/svg">
<path d="M8.99999 0.999999C8.99999 0.447715 8.55228 -2.62559e-07 7.99999 0C7.44771 3.22165e-07 6.99999 0.447716 6.99999 1L8.99999 0.999999ZM7.29289 15.7071C7.68342 16.0976 8.31658 16.0976 8.70711 15.7071L15.0711 9.34314C15.4616 8.95262 15.4616 8.31945 15.0711 7.92893C14.6805 7.5384 14.0474 7.5384 13.6569 7.92893L8 13.5858L2.34314 7.92894C1.95262 7.53841 1.31945 7.53841 0.928929 7.92894C0.538405 8.31946 0.538405 8.95263 0.92893 9.34315L7.29289 15.7071ZM6.99999 1L7 15L9 15L8.99999 0.999999L6.99999 1Z" fill="#E41713"/>
</svg>
