<svg width="13" height="13" viewBox="0 0 13 13" fill="none" xmlns="http://www.w3.org/2000/svg">
<path d="M2.15634 11.4631C1.85984 11.9291 1.99719 12.5472 2.46313 12.8437C2.92907 13.1402 3.54716 13.0028 3.84367 12.5369L2.15634 11.4631ZM10.9762 0.783074C10.8564 0.24394 10.3222 -0.0959899 9.78308 0.0238169L0.997394 1.97619C0.458261 2.096 0.11833 2.63017 0.238137 3.16931C0.357944 3.70844 0.892121 4.04837 1.43125 3.92856L9.24075 2.19312L10.9762 10.0026C11.096 10.5418 11.6302 10.8817 12.1693 10.7619C12.7084 10.6421 13.0484 10.1079 12.9286 9.56876L10.9762 0.783074ZM3.84367 12.5369L10.8437 1.53688L9.15635 0.463129L2.15634 11.4631L3.84367 12.5369Z" fill="#E41713"/>
</svg>
