<svg width="228" height="34" viewBox="0 0 228 34" fill="none" xmlns="http://www.w3.org/2000/svg">
<path d="M9.25988 1.25999C7.26988 0.909988 5.35988 2.23999 5.00988 4.23999L0.639883 28.9C0.289883 30.89 1.61988 32.8 3.60988 33.15C5.59988 33.5 7.50988 32.17 7.85988 30.17L12.2299 5.50999C12.5799 3.51999 11.2499 1.61999 9.25988 1.25999Z" fill="white"/>
<path d="M42.9407 1.87988H21.1507H21.1407C19.1107 1.87988 17.4707 3.51988 17.4707 5.54988C17.4707 7.57988 19.1107 9.21988 21.1407 9.21988H42.9507C44.9807 9.21988 46.6207 7.57988 46.6207 5.54988C46.6207 3.51988 44.9707 1.87988 42.9407 1.87988Z" fill="white"/>
<path d="M76.4893 1.89014H65.5893H54.6893C53.6793 1.89014 52.7593 2.30014 52.0993 2.96014C51.4393 3.62014 51.0293 4.54014 51.0293 5.55014C51.0293 6.56014 51.4393 7.48014 52.0993 8.14014C52.7593 8.80014 53.6793 9.21014 54.6893 9.21014H65.5893H76.4893C77.4993 9.21014 78.4193 8.80014 79.0793 8.14014C79.7393 7.48014 80.1493 6.56014 80.1493 5.55014C80.1493 4.54014 79.7393 3.62014 79.0793 2.96014C78.4193 2.30014 77.4993 1.89014 76.4893 1.89014Z" fill="white"/>
<path d="M72.3394 25.4299H50.5294C48.4994 25.4299 46.8594 27.0699 46.8594 29.0999C46.8594 31.1299 48.4994 32.7699 50.5294 32.7699H72.3394C74.3694 32.7699 76.0094 31.1299 76.0094 29.0999C75.9994 27.0699 74.3594 25.4299 72.3394 25.4299Z" fill="white"/>
<path d="M74.5003 13.6599H52.4903C50.4603 13.6599 48.8203 15.2999 48.8203 17.3299C48.8203 19.3599 50.4703 20.9999 52.4903 20.9999H74.5003C76.5303 20.9999 78.1703 19.3599 78.1703 17.3299C78.1703 15.2999 76.5303 13.6599 74.5003 13.6599Z" fill="white"/>
<path d="M110.39 1.89014H88.5802C86.5502 1.89014 84.9102 3.53014 84.9102 5.56014C84.9102 7.59014 86.5502 9.23014 88.5802 9.23014H110.39C112.42 9.23014 114.06 7.59014 114.06 5.56014C114.06 3.53014 112.41 1.89014 110.39 1.89014Z" fill="white"/>
<path d="M108.28 13.6599H86.3998C84.3698 13.6599 82.7298 15.2999 82.7298 17.3299C82.7298 19.3599 84.3698 20.9999 86.3998 20.9999H103.95L103.17 25.4399H84.4298C82.3998 25.4399 80.7598 27.0799 80.7598 29.1099C80.7598 31.1399 82.3998 32.7799 84.4298 32.7799H106.07C108 32.7799 109.59 31.0799 109.88 29.6299C109.88 29.6299 111.83 18.5399 111.98 17.5199C112.27 15.4999 110.3 13.6599 108.28 13.6599Z" fill="white"/>
<path d="M40.7997 13.6599H18.9197C16.9897 13.6599 15.5897 15.1399 15.2697 17.0299C15.2497 17.1199 13.2297 28.8999 13.2297 28.8999C12.8797 30.8899 14.2097 32.7999 16.1997 33.1499C18.1897 33.4999 20.0997 32.1699 20.4497 30.1699L21.9997 20.9999H40.7997C42.8297 20.9999 44.4697 19.3599 44.4697 17.3299C44.4697 15.2999 42.8297 13.6599 40.7997 13.6599Z" fill="white"/>
<path d="M124.039 2.83008H123.029V9.22008H124.039V2.83008Z" fill="white"/>
<path d="M128.781 6.57994V9.21994H129.771V6.34994C129.771 6.08994 129.751 5.84994 129.711 5.61994C129.671 5.38994 129.591 5.18994 129.491 5.00994C129.391 4.82994 129.241 4.68994 129.061 4.58994C128.881 4.48994 128.651 4.43994 128.371 4.43994C127.961 4.43994 127.581 4.52994 127.241 4.70994C126.901 4.88994 126.641 5.13994 126.461 5.45994V4.50994H125.561V9.21994H126.551V6.41994C126.601 6.25994 126.681 6.10994 126.781 5.96994C126.881 5.82994 126.991 5.71994 127.121 5.61994C127.251 5.51994 127.381 5.43994 127.521 5.38994C127.661 5.33994 127.811 5.30994 127.951 5.30994C128.231 5.30994 128.431 5.40994 128.581 5.60994C128.711 5.80994 128.781 6.13994 128.781 6.57994Z" fill="white"/>
<path d="M133.53 8.18996C133.47 8.21996 133.38 8.25996 133.25 8.30996C133.12 8.35996 132.99 8.37996 132.85 8.37996C132.71 8.37996 132.6 8.33996 132.5 8.26996C132.4 8.19996 132.35 8.06996 132.34 7.89996V5.26996H133.37V4.50996H132.34V2.95996H131.35V4.50996H130.73V5.26996H131.35V8.20996C131.35 8.39996 131.38 8.56996 131.44 8.69996C131.5 8.83996 131.58 8.94996 131.69 9.02996C131.79 9.10996 131.92 9.17996 132.05 9.21996C132.18 9.25996 132.34 9.27996 132.49 9.27996C132.74 9.27996 132.98 9.23996 133.2 9.16996C133.42 9.08996 133.6 9.02996 133.72 8.96996L133.53 8.18996Z" fill="white"/>
<path d="M137.639 8.15993C137.559 8.24993 137.459 8.32993 137.349 8.38993C137.239 8.44993 137.119 8.49993 136.989 8.52993C136.859 8.55993 136.729 8.57993 136.599 8.57993C136.419 8.57993 136.249 8.54993 136.079 8.47993C135.909 8.40993 135.769 8.31993 135.639 8.19993C135.509 8.07993 135.409 7.92993 135.319 7.75993C135.229 7.58993 135.189 7.39993 135.169 7.18993H138.939C138.949 7.14993 138.949 7.09993 138.959 7.02993C138.969 6.96993 138.969 6.89993 138.969 6.82993C138.969 6.50993 138.909 6.20993 138.799 5.91993C138.689 5.62993 138.529 5.36993 138.319 5.15993C138.109 4.94993 137.859 4.76993 137.559 4.62993C137.259 4.48993 136.929 4.42993 136.569 4.42993C136.199 4.42993 135.859 4.48993 135.559 4.61993C135.259 4.74993 134.999 4.92993 134.789 5.14993C134.579 5.36993 134.409 5.63993 134.289 5.92993C134.169 6.22993 134.109 6.53993 134.109 6.86993C134.109 7.19993 134.169 7.50993 134.289 7.80993C134.409 8.09993 134.569 8.35993 134.789 8.57993C134.999 8.79993 135.259 8.97993 135.559 9.10993C135.859 9.23993 136.189 9.29993 136.559 9.29993C137.059 9.29993 137.489 9.18993 137.869 8.95993C138.249 8.72993 138.509 8.44993 138.679 8.08993L137.829 7.84993C137.789 7.96993 137.729 8.05993 137.639 8.15993ZM135.299 5.95993C135.379 5.78993 135.479 5.64993 135.609 5.52993C135.739 5.40993 135.879 5.31993 136.049 5.25993C136.219 5.19993 136.389 5.15993 136.579 5.15993C136.769 5.15993 136.939 5.18993 137.109 5.25993C137.279 5.32993 137.429 5.41993 137.549 5.52993C137.669 5.63993 137.779 5.78993 137.859 5.95993C137.939 6.12993 137.989 6.30993 138.009 6.50993H135.169C135.179 6.30993 135.229 6.12993 135.299 5.95993Z" fill="white"/>
<path d="M140.98 6.33997C141.11 6.02997 141.32 5.79997 141.61 5.62997C141.91 5.46997 142.25 5.37997 142.63 5.36997V4.47997C142.6 4.46997 142.57 4.46997 142.53 4.46997C142.49 4.46997 142.44 4.46997 142.38 4.46997C142.08 4.48997 141.8 4.59997 141.54 4.78997C141.28 4.98997 141.07 5.24997 140.91 5.56997V4.51997H139.99V9.22997H140.98V6.33997V6.33997Z" fill="white"/>
<path d="M144.55 6.41994C144.6 6.25994 144.68 6.10994 144.78 5.96994C144.88 5.82994 144.99 5.71994 145.12 5.61994C145.25 5.51994 145.38 5.43994 145.52 5.38994C145.66 5.33994 145.81 5.30994 145.95 5.30994C146.23 5.30994 146.43 5.40994 146.58 5.60994C146.72 5.80994 146.79 6.12994 146.79 6.57994V9.21994H147.78V6.34994C147.78 6.08994 147.76 5.84994 147.72 5.61994C147.68 5.38994 147.6 5.18994 147.5 5.00994C147.4 4.82994 147.25 4.68994 147.07 4.58994C146.89 4.48994 146.66 4.43994 146.38 4.43994C145.97 4.43994 145.59 4.52994 145.25 4.70994C144.91 4.88994 144.65 5.13994 144.47 5.45994V4.50994H143.57V9.21994H144.56V6.41994H144.55Z" fill="white"/>
<path d="M152.331 8.44992L152.361 8.74992C152.381 8.89992 152.451 9.01992 152.551 9.11992C152.651 9.21992 152.801 9.25992 153.001 9.25992C153.071 9.25992 153.131 9.25992 153.201 9.24992C153.271 9.23992 153.351 9.22992 153.451 9.20992V8.35992C153.281 8.34992 153.191 8.24992 153.191 8.03992V6.33992C153.191 5.71992 153.011 5.24992 152.651 4.91992C152.291 4.58992 151.791 4.41992 151.141 4.41992C150.491 4.41992 149.861 4.61992 149.251 5.02992L149.561 5.65992C149.821 5.48992 150.071 5.34992 150.311 5.25992C150.551 5.16992 150.801 5.11992 151.051 5.11992C151.421 5.11992 151.711 5.21992 151.901 5.40992C152.101 5.60992 152.201 5.87992 152.201 6.22992V6.54992C152.031 6.47992 151.831 6.42992 151.621 6.38992C151.401 6.34992 151.181 6.32993 150.961 6.32993C150.671 6.32993 150.401 6.36992 150.151 6.43992C149.911 6.50992 149.701 6.60992 149.521 6.74992C149.341 6.88992 149.211 7.03992 149.111 7.21992C149.011 7.39992 148.971 7.59992 148.971 7.81992C148.971 8.02992 149.011 8.21993 149.091 8.39993C149.171 8.57993 149.281 8.73992 149.421 8.86992C149.561 8.99992 149.731 9.10992 149.921 9.17992C150.111 9.25992 150.331 9.28992 150.551 9.28992C150.901 9.28992 151.241 9.21992 151.551 9.06992C151.861 8.93992 152.121 8.72992 152.331 8.44992ZM151.511 8.44992C151.301 8.53992 151.071 8.57993 150.831 8.57993C150.561 8.57993 150.341 8.49992 150.161 8.33992C149.991 8.17992 149.901 7.97992 149.901 7.74992C149.901 7.49992 150.011 7.28992 150.241 7.13992C150.471 6.98992 150.751 6.90992 151.111 6.90992C151.291 6.90992 151.481 6.92992 151.661 6.95992C151.851 6.99992 152.031 7.04992 152.201 7.10992V7.72992C152.201 7.84992 152.141 7.95992 152.011 8.06992C151.891 8.23992 151.721 8.35992 151.511 8.44992Z" fill="white"/>
<path d="M156.709 8.30996C156.579 8.35996 156.449 8.37996 156.309 8.37996C156.169 8.37996 156.059 8.33996 155.959 8.26996C155.859 8.19996 155.809 8.06996 155.799 7.89996V5.26996H156.829V4.50996H155.799V2.95996H154.809V4.50996H154.189V5.26996H154.809V8.20996C154.809 8.39996 154.839 8.56996 154.899 8.69996C154.959 8.83996 155.039 8.94996 155.149 9.02996C155.249 9.10996 155.379 9.17996 155.509 9.21996C155.639 9.25996 155.799 9.27996 155.949 9.27996C156.199 9.27996 156.439 9.23996 156.659 9.16996C156.879 9.08996 157.059 9.02996 157.179 8.96996L156.969 8.18996C156.929 8.21996 156.839 8.25996 156.709 8.30996Z" fill="white"/>
<path d="M159.07 4.51001H158.08V9.22001H159.07V4.51001Z" fill="white"/>
<path d="M159.07 2.6499H158.08V3.7399H159.07V2.6499Z" fill="white"/>
<path d="M160.81 8.57993C161.02 8.79993 161.27 8.97993 161.57 9.10993C161.87 9.23993 162.2 9.30993 162.57 9.30993C162.94 9.30993 163.27 9.23993 163.56 9.10993C163.86 8.97993 164.11 8.79993 164.33 8.57993C164.54 8.35993 164.71 8.09993 164.82 7.79993C164.93 7.49993 164.99 7.18993 164.99 6.86993C164.99 6.54993 164.93 6.23993 164.82 5.93993C164.71 5.63993 164.54 5.37993 164.33 5.15993C164.12 4.93993 163.86 4.75993 163.56 4.62993C163.26 4.49993 162.93 4.42993 162.57 4.42993C162.21 4.42993 161.87 4.49993 161.58 4.62993C161.29 4.75993 161.03 4.93993 160.81 5.15993C160.6 5.37993 160.43 5.63993 160.32 5.93993C160.21 6.23993 160.15 6.54993 160.15 6.86993C160.15 7.18993 160.21 7.49993 160.32 7.79993C160.44 8.09993 160.6 8.35993 160.81 8.57993ZM161.28 6.24993C161.35 6.05993 161.45 5.88993 161.58 5.73993C161.71 5.59993 161.85 5.47993 162.03 5.39993C162.2 5.31993 162.38 5.26993 162.57 5.26993C162.77 5.26993 162.95 5.30993 163.12 5.38993C163.29 5.46993 163.44 5.57993 163.57 5.72993C163.7 5.86993 163.79 6.03993 163.87 6.23993C163.94 6.43993 163.98 6.63993 163.98 6.86993C163.98 7.09993 163.94 7.30993 163.87 7.49993C163.8 7.68993 163.7 7.85993 163.57 7.99993C163.44 8.13993 163.3 8.25993 163.12 8.33993C162.94 8.41993 162.76 8.45993 162.57 8.45993C162.38 8.45993 162.19 8.41993 162.02 8.33993C161.85 8.25993 161.7 8.14993 161.57 8.00993C161.44 7.86993 161.35 7.69993 161.27 7.50993C161.19 7.31993 161.16 7.10993 161.16 6.87993C161.17 6.65993 161.21 6.44993 161.28 6.24993Z" fill="white"/>
<path d="M166.88 6.41994C166.93 6.25994 167.01 6.10994 167.11 5.96994C167.21 5.82994 167.32 5.71994 167.45 5.61994C167.58 5.51994 167.71 5.43994 167.85 5.38994C167.99 5.33994 168.14 5.30994 168.28 5.30994C168.56 5.30994 168.76 5.40994 168.91 5.60994C169.05 5.80994 169.12 6.12994 169.12 6.57994V9.21994H170.11V6.34994C170.11 6.08994 170.09 5.84994 170.05 5.61994C170.01 5.38994 169.93 5.18994 169.83 5.00994C169.73 4.82994 169.58 4.68994 169.4 4.58994C169.22 4.48994 168.99 4.43994 168.71 4.43994C168.3 4.43994 167.92 4.52994 167.58 4.70994C167.24 4.88994 166.98 5.13994 166.8 5.45994V4.50994H165.9V9.21994H166.89V6.41994H166.88Z" fill="white"/>
<path d="M171.579 8.87992C171.719 9.00992 171.889 9.11992 172.079 9.18992C172.269 9.26992 172.489 9.29992 172.709 9.29992C173.059 9.29992 173.399 9.22993 173.709 9.07993C174.019 8.92993 174.279 8.71992 174.489 8.44992L174.519 8.74992C174.539 8.89992 174.609 9.01992 174.709 9.11992C174.809 9.21992 174.959 9.25992 175.159 9.25992C175.229 9.25992 175.289 9.25992 175.359 9.24992C175.429 9.23992 175.509 9.22992 175.609 9.20992V8.35992C175.439 8.34992 175.349 8.24992 175.349 8.03992V6.33992C175.349 5.71992 175.169 5.24992 174.809 4.91992C174.449 4.58992 173.949 4.41992 173.299 4.41992C172.649 4.41992 172.019 4.61992 171.409 5.02992L171.719 5.65992C171.979 5.48992 172.229 5.34992 172.469 5.25992C172.709 5.16992 172.959 5.11992 173.209 5.11992C173.579 5.11992 173.869 5.21992 174.059 5.40992C174.259 5.60992 174.359 5.87992 174.359 6.22992V6.54992C174.189 6.47992 173.989 6.42992 173.779 6.38992C173.559 6.34992 173.339 6.32993 173.119 6.32993C172.829 6.32993 172.559 6.36992 172.309 6.43992C172.069 6.50992 171.859 6.60992 171.679 6.74992C171.499 6.88992 171.369 7.03992 171.269 7.21992C171.169 7.39992 171.129 7.59992 171.129 7.81992C171.129 8.02992 171.169 8.21993 171.249 8.39993C171.319 8.59993 171.439 8.74992 171.579 8.87992ZM172.399 7.13992C172.629 6.98992 172.909 6.90992 173.269 6.90992C173.449 6.90992 173.639 6.92992 173.819 6.95992C174.009 6.99992 174.189 7.04992 174.359 7.10992V7.72992C174.359 7.84992 174.299 7.95992 174.169 8.06992C174.049 8.22992 173.879 8.34992 173.669 8.42992C173.459 8.51992 173.229 8.55993 172.989 8.55993C172.719 8.55993 172.499 8.47992 172.319 8.31992C172.149 8.15992 172.059 7.95992 172.059 7.72992C172.059 7.49992 172.169 7.29992 172.399 7.13992Z" fill="white"/>
<path d="M177.83 9.2899C177.99 9.2899 178.16 9.2699 178.36 9.2299C178.56 9.1899 178.73 9.1399 178.87 9.0699L178.73 8.2999C178.65 8.3299 178.57 8.3599 178.48 8.3799C178.39 8.3999 178.32 8.4199 178.25 8.4199C178.09 8.4199 177.96 8.3699 177.87 8.2699C177.78 8.1699 177.74 8.0299 177.74 7.8599V2.6499H176.75V8.2199C176.75 8.5599 176.84 8.8299 177.03 9.0099C177.22 9.1999 177.49 9.2899 177.83 9.2899Z" fill="white"/>
<path d="M182.84 6.46008H185.56V5.63008H182.84V3.72008H186.09V2.83008H181.83V9.22008H182.84V6.46008Z" fill="white"/>
<path d="M190.649 5.14993C190.439 4.92993 190.189 4.75992 189.889 4.61992C189.589 4.47992 189.259 4.41992 188.899 4.41992C188.529 4.41992 188.189 4.47992 187.889 4.60992C187.589 4.73992 187.329 4.91992 187.119 5.13992C186.909 5.35992 186.739 5.62992 186.619 5.91992C186.499 6.21992 186.439 6.52992 186.439 6.85992C186.439 7.18992 186.499 7.49992 186.619 7.79992C186.739 8.08992 186.899 8.34992 187.119 8.56992C187.329 8.78992 187.589 8.96992 187.889 9.09992C188.189 9.22992 188.519 9.28992 188.889 9.28992C189.389 9.28992 189.819 9.17992 190.199 8.94992C190.579 8.71992 190.839 8.43993 191.009 8.07993L190.159 7.83992C190.109 7.94992 190.049 8.04992 189.959 8.13992C189.879 8.22992 189.779 8.30992 189.669 8.36992C189.559 8.42992 189.439 8.47992 189.309 8.50992C189.179 8.53992 189.049 8.55993 188.919 8.55993C188.739 8.55993 188.569 8.52992 188.399 8.45992C188.229 8.38992 188.089 8.29992 187.959 8.17992C187.829 8.05992 187.729 7.90993 187.639 7.73993C187.549 7.56993 187.509 7.37992 187.489 7.16992H191.259C191.269 7.12992 191.269 7.07992 191.279 7.00992C191.289 6.94992 191.289 6.87993 191.289 6.80993C191.289 6.48993 191.229 6.18993 191.119 5.89993C191.019 5.62993 190.859 5.36993 190.649 5.14993ZM187.479 6.50992C187.499 6.30992 187.549 6.12992 187.619 5.95992C187.689 5.78992 187.799 5.64992 187.929 5.52992C188.059 5.40992 188.199 5.31992 188.369 5.25992C188.539 5.19992 188.709 5.15992 188.899 5.15992C189.089 5.15992 189.259 5.18992 189.429 5.25992C189.599 5.32992 189.749 5.41992 189.869 5.52992C189.989 5.63992 190.099 5.78992 190.179 5.95992C190.259 6.12992 190.309 6.30992 190.329 6.50992H187.479Z" fill="white"/>
<path d="M196.829 9.26014C196.869 9.26014 196.919 9.26014 196.989 9.25014C197.049 9.24014 197.139 9.23014 197.239 9.21014V8.36014C197.139 8.35014 197.069 8.33014 197.029 8.28014C196.989 8.23014 196.969 8.15014 196.969 8.04014V2.64014H195.979V5.39014C195.819 5.11014 195.589 4.88014 195.309 4.69014C195.019 4.51014 194.689 4.42014 194.309 4.42014C193.999 4.42014 193.719 4.48014 193.469 4.61014C193.219 4.74014 192.989 4.91014 192.799 5.14014C192.609 5.36014 192.459 5.62014 192.359 5.91014C192.259 6.20014 192.199 6.51014 192.199 6.84014C192.199 7.18014 192.259 7.50014 192.369 7.80014C192.479 8.10014 192.629 8.36014 192.829 8.58014C193.029 8.80014 193.259 8.98014 193.529 9.11014C193.799 9.24014 194.089 9.30014 194.409 9.30014C194.779 9.30014 195.109 9.22014 195.409 9.05014C195.709 8.88014 195.949 8.65014 196.119 8.36014L196.139 8.71014C196.149 8.87014 196.219 9.00014 196.349 9.11014C196.469 9.21014 196.629 9.26014 196.829 9.26014ZM195.969 7.52014C195.929 7.65014 195.869 7.78014 195.789 7.89014C195.699 8.00014 195.599 8.10014 195.479 8.19014C195.359 8.28014 195.229 8.34014 195.079 8.39014C194.939 8.44014 194.789 8.46014 194.649 8.46014C194.449 8.46014 194.269 8.42014 194.099 8.33014C193.929 8.24014 193.779 8.13014 193.649 7.99014C193.519 7.85014 193.409 7.68014 193.339 7.49014C193.259 7.30014 193.229 7.09014 193.229 6.88014C193.229 6.68014 193.259 6.48014 193.329 6.29014C193.399 6.10014 193.489 5.93014 193.609 5.78014C193.729 5.63014 193.869 5.51014 194.039 5.42014C194.209 5.33014 194.389 5.28014 194.579 5.28014C194.719 5.28014 194.869 5.30014 195.009 5.35014C195.149 5.40014 195.279 5.47014 195.409 5.56014C195.539 5.65014 195.649 5.76014 195.749 5.88014C195.849 6.01014 195.929 6.14014 195.979 6.29014V7.52014H195.969Z" fill="white"/>
<path d="M198.78 8.58993C198.99 8.80993 199.25 8.98993 199.55 9.11993C199.85 9.24993 200.18 9.30993 200.55 9.30993C201.05 9.30993 201.48 9.19993 201.86 8.96993C202.24 8.73993 202.5 8.45993 202.67 8.09993L201.82 7.85993C201.77 7.96993 201.71 8.06993 201.62 8.15993C201.54 8.24993 201.44 8.32993 201.33 8.38993C201.22 8.44993 201.1 8.49993 200.97 8.52993C200.84 8.55993 200.71 8.57993 200.58 8.57993C200.4 8.57993 200.23 8.54993 200.06 8.47993C199.89 8.40993 199.75 8.31993 199.62 8.19993C199.49 8.07993 199.39 7.92993 199.3 7.75993C199.21 7.58993 199.17 7.39993 199.15 7.18993H202.92C202.93 7.14993 202.93 7.09993 202.94 7.02993C202.95 6.96993 202.95 6.89993 202.95 6.82993C202.95 6.50993 202.89 6.20993 202.78 5.91993C202.67 5.62993 202.51 5.36993 202.3 5.15993C202.09 4.94993 201.84 4.76993 201.54 4.62993C201.24 4.48993 200.91 4.42993 200.55 4.42993C200.18 4.42993 199.84 4.48993 199.54 4.61993C199.24 4.74993 198.98 4.92993 198.77 5.14993C198.56 5.36993 198.39 5.63993 198.27 5.92993C198.15 6.22993 198.09 6.53993 198.09 6.86993C198.09 7.19993 198.15 7.50993 198.27 7.80993C198.41 8.10993 198.57 8.36993 198.78 8.58993ZM199.28 5.95993C199.36 5.78993 199.46 5.64993 199.59 5.52993C199.72 5.40993 199.86 5.31993 200.03 5.25993C200.2 5.19993 200.37 5.15993 200.56 5.15993C200.75 5.15993 200.92 5.18993 201.09 5.25993C201.26 5.32993 201.41 5.41993 201.53 5.52993C201.65 5.63993 201.76 5.78993 201.84 5.95993C201.92 6.12993 201.97 6.30993 201.99 6.50993H199.15C199.16 6.30993 199.21 6.12993 199.28 5.95993Z" fill="white"/>
<path d="M206.37 4.46997C206.07 4.48997 205.79 4.59997 205.53 4.78997C205.27 4.98997 205.06 5.24997 204.9 5.56997V4.51997H203.98V9.22997H204.97V6.34997C205.1 6.03997 205.31 5.80997 205.6 5.63997C205.9 5.47997 206.24 5.38997 206.62 5.37997V4.48997C206.59 4.47997 206.56 4.47997 206.52 4.47997C206.48 4.47997 206.43 4.46997 206.37 4.46997Z" fill="white"/>
<path d="M211.23 8.04993V6.34993C211.23 5.72993 211.05 5.25993 210.69 4.92993C210.33 4.59993 209.83 4.42993 209.18 4.42993C208.53 4.42993 207.9 4.62993 207.29 5.03993L207.6 5.66993C207.86 5.49993 208.11 5.35993 208.35 5.26993C208.59 5.17993 208.84 5.12993 209.09 5.12993C209.46 5.12993 209.75 5.22993 209.94 5.41993C210.14 5.61993 210.24 5.88993 210.24 6.23993V6.55993C210.07 6.48993 209.87 6.43993 209.66 6.39993C209.44 6.35993 209.22 6.33993 209 6.33993C208.71 6.33993 208.44 6.37993 208.19 6.44993C207.95 6.51993 207.74 6.61993 207.56 6.75993C207.38 6.89993 207.25 7.04993 207.15 7.22993C207.05 7.40993 207.01 7.60993 207.01 7.82993C207.01 8.03993 207.05 8.22993 207.13 8.40993C207.21 8.58993 207.32 8.74993 207.46 8.87993C207.6 9.00993 207.77 9.11993 207.96 9.18993C208.15 9.26993 208.37 9.29993 208.59 9.29993C208.94 9.29993 209.28 9.22993 209.59 9.07993C209.9 8.92993 210.16 8.71993 210.37 8.44993L210.4 8.74993C210.42 8.89993 210.49 9.01993 210.59 9.11993C210.69 9.21993 210.84 9.25993 211.04 9.25993C211.11 9.25993 211.17 9.25993 211.24 9.24993C211.31 9.23993 211.39 9.22993 211.49 9.20993V8.35993C211.32 8.36993 211.23 8.25993 211.23 8.04993ZM210.25 7.73993C210.25 7.85993 210.19 7.96993 210.06 8.07993C209.94 8.23993 209.77 8.35993 209.56 8.43993C209.35 8.52993 209.12 8.56993 208.88 8.56993C208.61 8.56993 208.39 8.48993 208.21 8.32993C208.04 8.16993 207.95 7.96993 207.95 7.73993C207.95 7.48993 208.06 7.27993 208.29 7.12993C208.52 6.97993 208.8 6.89993 209.16 6.89993C209.34 6.89993 209.53 6.91993 209.71 6.94993C209.9 6.98993 210.08 7.03993 210.25 7.09993V7.73993V7.73993Z" fill="white"/>
<path d="M214.581 8.30996C214.451 8.35996 214.321 8.37996 214.181 8.37996C214.041 8.37996 213.931 8.33996 213.831 8.26996C213.731 8.19996 213.681 8.06996 213.671 7.89996V5.26996H214.701V4.50996H213.671V2.95996H212.681V4.50996H212.061V5.26996H212.681V8.20996C212.681 8.39996 212.711 8.56996 212.771 8.69996C212.831 8.83996 212.911 8.94996 213.021 9.02996C213.121 9.10996 213.251 9.17996 213.381 9.21996C213.511 9.25996 213.671 9.27996 213.821 9.27996C214.071 9.27996 214.311 9.23996 214.531 9.16996C214.751 9.08996 214.931 9.02996 215.051 8.96996L214.841 8.18996C214.801 8.21996 214.711 8.25996 214.581 8.30996Z" fill="white"/>
<path d="M216.939 4.51001H215.949V9.22001H216.939V4.51001Z" fill="white"/>
<path d="M216.939 2.6499H215.949V3.7399H216.939V2.6499Z" fill="white"/>
<path d="M222.02 5.15993C221.81 4.93993 221.55 4.75993 221.25 4.62993C220.95 4.49993 220.62 4.42993 220.26 4.42993C219.9 4.42993 219.56 4.49993 219.27 4.62993C218.98 4.75993 218.72 4.93993 218.5 5.15993C218.29 5.37993 218.12 5.63993 218.01 5.93993C217.9 6.23993 217.84 6.54993 217.84 6.86993C217.84 7.18993 217.9 7.49993 218.01 7.79993C218.12 8.09993 218.29 8.35993 218.5 8.57993C218.71 8.79993 218.96 8.97993 219.26 9.10993C219.56 9.23993 219.89 9.30993 220.26 9.30993C220.63 9.30993 220.96 9.23993 221.25 9.10993C221.55 8.97993 221.8 8.79993 222.02 8.57993C222.23 8.35993 222.4 8.09993 222.51 7.79993C222.62 7.49993 222.68 7.18993 222.68 6.86993C222.68 6.54993 222.62 6.23993 222.51 5.93993C222.4 5.63993 222.23 5.37993 222.02 5.15993ZM221.56 7.49993C221.49 7.68993 221.39 7.85993 221.26 7.99993C221.13 8.13993 220.99 8.25993 220.81 8.33993C220.63 8.41993 220.45 8.45993 220.26 8.45993C220.07 8.45993 219.88 8.41993 219.71 8.33993C219.54 8.25993 219.39 8.14993 219.26 8.00993C219.13 7.86993 219.04 7.69993 218.96 7.50993C218.88 7.31993 218.85 7.10993 218.85 6.87993C218.85 6.65993 218.89 6.44993 218.96 6.24993C219.03 6.05993 219.13 5.88993 219.26 5.73993C219.39 5.59993 219.53 5.47993 219.71 5.39993C219.88 5.31993 220.06 5.26993 220.25 5.26993C220.45 5.26993 220.63 5.30993 220.8 5.38993C220.97 5.46993 221.12 5.57993 221.25 5.72993C221.38 5.86993 221.47 6.03993 221.55 6.23993C221.62 6.43993 221.66 6.63993 221.66 6.86993C221.67 7.09993 221.63 7.30993 221.56 7.49993Z" fill="white"/>
<path d="M227.74 5.60993C227.7 5.37993 227.62 5.17993 227.52 4.99993C227.42 4.81993 227.27 4.67993 227.09 4.57993C226.91 4.47993 226.68 4.42993 226.4 4.42993C225.99 4.42993 225.61 4.51993 225.27 4.69993C224.93 4.87993 224.67 5.12993 224.49 5.44993V4.49993H223.59V9.20993H224.58V6.40993C224.63 6.24993 224.71 6.09993 224.81 5.95993C224.91 5.81993 225.02 5.70993 225.15 5.60993C225.28 5.50993 225.41 5.42993 225.55 5.37993C225.69 5.32993 225.84 5.29993 225.98 5.29993C226.26 5.29993 226.46 5.39993 226.61 5.59993C226.75 5.79993 226.82 6.11993 226.82 6.56993V9.20993H227.81V6.33993C227.8 6.08993 227.78 5.83993 227.74 5.60993Z" fill="white"/>
<path d="M126.78 16.95C126.57 16.73 126.31 16.55 126.01 16.42C125.71 16.29 125.38 16.22 125.02 16.22C124.66 16.22 124.32 16.29 124.03 16.42C123.74 16.55 123.48 16.73 123.26 16.95C123.05 17.17 122.88 17.43 122.77 17.73C122.66 18.03 122.6 18.34 122.6 18.66C122.6 18.98 122.66 19.29 122.77 19.59C122.88 19.89 123.05 20.15 123.26 20.37C123.47 20.59 123.72 20.77 124.02 20.9C124.32 21.03 124.65 21.1 125.02 21.1C125.39 21.1 125.72 21.03 126.01 20.9C126.31 20.77 126.56 20.59 126.78 20.37C126.99 20.15 127.16 19.89 127.27 19.59C127.38 19.29 127.44 18.98 127.44 18.66C127.44 18.34 127.38 18.03 127.27 17.73C127.16 17.43 126.99 17.17 126.78 16.95ZM126.31 19.29C126.24 19.48 126.14 19.65 126.01 19.79C125.88 19.93 125.74 20.05 125.56 20.13C125.38 20.21 125.2 20.25 125.01 20.25C124.82 20.25 124.63 20.21 124.46 20.13C124.29 20.05 124.14 19.94 124.01 19.8C123.88 19.66 123.79 19.49 123.71 19.3C123.63 19.11 123.6 18.9 123.6 18.67C123.6 18.45 123.64 18.24 123.71 18.04C123.78 17.85 123.88 17.68 124.01 17.53C124.14 17.39 124.28 17.27 124.46 17.19C124.63 17.11 124.81 17.06 125 17.06C125.2 17.06 125.38 17.1 125.55 17.18C125.72 17.26 125.87 17.37 126 17.52C126.13 17.66 126.22 17.83 126.3 18.03C126.37 18.23 126.41 18.43 126.41 18.66C126.42 18.88 126.38 19.09 126.31 19.29Z" fill="white"/>
<path d="M128.61 21.0001H129.6V17.1701H130.81V16.4101H129.6V16.2001C129.6 15.8701 129.66 15.6201 129.78 15.4401C129.9 15.2701 130.08 15.1801 130.32 15.1801C130.43 15.1801 130.55 15.2001 130.68 15.2301C130.8 15.2701 130.91 15.3101 131 15.3601L131.22 14.6201C131.05 14.5301 130.88 14.4601 130.69 14.4101C130.5 14.3601 130.31 14.3301 130.12 14.3301C129.66 14.3301 129.29 14.5001 129.02 14.8301C128.75 15.1701 128.62 15.6201 128.62 16.2101V16.4001H127.99V17.1601H128.62V21.0001H128.61Z" fill="white"/>
<path d="M138.259 20.1099H134.889V18.1599H137.739V17.3199H134.889V15.5099H138.179V14.6099H133.879V20.9999H138.259V20.1099Z" fill="white"/>
<path d="M143.29 21L141.56 18.66L143.28 16.3H142.24L141.1 17.91L141.02 18.0601L140.94 17.91L139.79 16.3H138.76L140.48 18.66L138.74 21H139.78L140.94 19.4001L141.02 19.26L141.1 19.4001L142.26 21H143.29Z" fill="white"/>
<path d="M147.281 18.3699V20.9999H148.271V18.1299C148.271 17.8699 148.251 17.6299 148.201 17.3999C148.161 17.1699 148.081 16.9699 147.961 16.7899C147.841 16.6099 147.691 16.4799 147.511 16.3699C147.321 16.2699 147.081 16.2099 146.791 16.2099C146.421 16.2099 146.091 16.2999 145.781 16.4799C145.471 16.6599 145.231 16.9099 145.051 17.2399V14.4299H144.061V20.9999H145.051V18.1999C145.101 18.0399 145.171 17.8899 145.271 17.7499C145.371 17.6099 145.481 17.4999 145.601 17.3999C145.721 17.2999 145.851 17.2199 145.991 17.1699C146.131 17.1199 146.271 17.0899 146.401 17.0899C146.691 17.0899 146.911 17.1899 147.061 17.3999C147.211 17.6199 147.281 17.9299 147.281 18.3699Z" fill="white"/>
<path d="M150.679 16.3H149.689V21.0101H150.679V16.3Z" fill="white"/>
<path d="M150.679 14.4299H149.689V15.5199H150.679V14.4299Z" fill="white"/>
<path d="M156.511 16.9599C156.331 16.7399 156.111 16.5599 155.851 16.4199C155.591 16.2899 155.311 16.2199 154.991 16.2199C154.611 16.2199 154.281 16.3099 154.001 16.4799C153.721 16.6499 153.491 16.8899 153.301 17.1899V14.4399H152.311V20.9999H153.181V20.1399C153.351 20.4299 153.581 20.6599 153.871 20.8299C154.161 20.9999 154.491 21.0899 154.851 21.0899C155.161 21.0899 155.451 21.0299 155.731 20.8999C156.001 20.7699 156.241 20.5999 156.441 20.3799C156.641 20.1599 156.791 19.8999 156.911 19.6099C157.021 19.3199 157.081 18.9999 157.081 18.6599C157.081 18.3399 157.031 18.0299 156.931 17.7299C156.841 17.4399 156.691 17.1799 156.511 16.9599ZM155.961 19.2699C155.891 19.4599 155.791 19.6299 155.661 19.7699C155.531 19.9099 155.381 20.0299 155.201 20.1199C155.021 20.2099 154.821 20.2499 154.611 20.2499C154.481 20.2499 154.351 20.2299 154.211 20.1799C154.071 20.1399 153.941 20.0699 153.821 19.9899C153.701 19.9099 153.601 19.8099 153.511 19.6999C153.421 19.5899 153.361 19.4599 153.321 19.3299V18.0899C153.451 17.8099 153.631 17.5699 153.861 17.3699C154.101 17.1699 154.371 17.0699 154.671 17.0699C154.871 17.0699 155.061 17.1099 155.231 17.2099C155.401 17.2999 155.551 17.4199 155.671 17.5699C155.791 17.7199 155.891 17.8899 155.961 18.0799C156.031 18.2699 156.061 18.4799 156.061 18.6899C156.061 18.8999 156.031 19.0799 155.961 19.2699Z" fill="white"/>
<path d="M159.23 16.3H158.24V21.0101H159.23V16.3Z" fill="white"/>
<path d="M159.23 14.4299H158.24V15.5199H159.23V14.4299Z" fill="white"/>
<path d="M163.49 20.76L163.28 19.98C163.22 20.01 163.13 20.05 163 20.1C162.87 20.15 162.74 20.17 162.6 20.17C162.46 20.17 162.35 20.13 162.25 20.06C162.16 19.98 162.1 19.86 162.09 19.69V17.06H163.12V16.3H162.09V14.75H161.1V16.3H160.48V17.06H161.1V20C161.1 20.19 161.13 20.36 161.19 20.49C161.25 20.63 161.33 20.74 161.44 20.82C161.54 20.9 161.67 20.97 161.8 21.01C161.93 21.05 162.09 21.07 162.24 21.07C162.49 21.07 162.73 21.03 162.95 20.96C163.19 20.89 163.36 20.82 163.49 20.76Z" fill="white"/>
<path d="M165.609 14.4299H164.619V15.5199H165.609V14.4299Z" fill="white"/>
<path d="M165.609 16.3H164.619V21.0101H165.609V16.3Z" fill="white"/>
<path d="M170 20.9C170.3 20.77 170.55 20.59 170.77 20.37C170.98 20.15 171.15 19.89 171.26 19.59C171.37 19.29 171.43 18.98 171.43 18.66C171.43 18.34 171.37 18.03 171.26 17.73C171.15 17.43 170.98 17.17 170.77 16.95C170.56 16.73 170.3 16.55 170 16.42C169.7 16.29 169.37 16.22 169.01 16.22C168.65 16.22 168.31 16.29 168.02 16.42C167.73 16.55 167.47 16.73 167.25 16.95C167.04 17.17 166.87 17.43 166.76 17.73C166.65 18.03 166.59 18.34 166.59 18.66C166.59 18.98 166.65 19.29 166.76 19.59C166.87 19.89 167.04 20.15 167.25 20.37C167.46 20.59 167.71 20.77 168.01 20.9C168.31 21.03 168.64 21.1 169.01 21.1C169.37 21.09 169.71 21.03 170 20.9ZM168.01 19.79C167.88 19.65 167.79 19.48 167.71 19.29C167.63 19.1 167.6 18.89 167.6 18.66C167.6 18.44 167.64 18.23 167.71 18.03C167.78 17.84 167.88 17.67 168.01 17.52C168.14 17.38 168.28 17.26 168.46 17.18C168.63 17.1 168.81 17.05 169 17.05C169.2 17.05 169.38 17.09 169.55 17.17C169.72 17.25 169.87 17.36 170 17.51C170.13 17.65 170.22 17.82 170.3 18.02C170.37 18.22 170.41 18.42 170.41 18.65C170.41 18.88 170.37 19.09 170.3 19.28C170.23 19.47 170.13 19.64 170 19.78C169.87 19.92 169.73 20.04 169.55 20.12C169.37 20.2 169.19 20.24 169 20.24C168.81 20.24 168.62 20.2 168.45 20.12C168.28 20.04 168.13 19.93 168.01 19.79Z" fill="white"/>
<path d="M174.79 17.1C175.07 17.1 175.27 17.2 175.42 17.4C175.56 17.6 175.63 17.92 175.63 18.37V21H176.62V18.13C176.62 17.87 176.6 17.63 176.56 17.4C176.52 17.17 176.44 16.97 176.34 16.79C176.24 16.61 176.09 16.47 175.91 16.37C175.73 16.27 175.5 16.22 175.22 16.22C174.81 16.22 174.43 16.31 174.09 16.49C173.75 16.67 173.49 16.92 173.31 17.24V16.3H172.41V21H173.4V18.2C173.45 18.04 173.53 17.89 173.63 17.75C173.73 17.61 173.84 17.5 173.97 17.4C174.1 17.3 174.23 17.22 174.37 17.17C174.51 17.13 174.65 17.1 174.79 17.1Z" fill="white"/>
<path d="M126.781 31.61V29.91C126.781 29.29 126.601 28.82 126.241 28.49C125.881 28.16 125.381 27.99 124.731 27.99C124.081 27.99 123.451 28.19 122.841 28.6L123.151 29.23C123.411 29.06 123.661 28.92 123.901 28.83C124.141 28.74 124.391 28.69 124.641 28.69C125.011 28.69 125.301 28.79 125.491 28.98C125.691 29.18 125.791 29.45 125.791 29.8V30.12C125.621 30.05 125.421 30 125.211 29.96C124.991 29.92 124.771 29.9 124.551 29.9C124.261 29.9 123.991 29.94 123.741 30.01C123.501 30.08 123.291 30.18 123.111 30.32C122.931 30.46 122.801 30.61 122.701 30.79C122.601 30.97 122.561 31.17 122.561 31.39C122.561 31.6 122.601 31.79 122.681 31.97C122.761 32.15 122.871 32.31 123.011 32.44C123.151 32.57 123.321 32.68 123.511 32.75C123.701 32.83 123.921 32.86 124.141 32.86C124.491 32.86 124.831 32.79 125.141 32.64C125.451 32.49 125.711 32.28 125.921 32.01L125.951 32.31C125.971 32.46 126.041 32.58 126.141 32.68C126.241 32.78 126.391 32.82 126.591 32.82C126.661 32.82 126.721 32.82 126.791 32.81C126.861 32.8 126.941 32.79 127.041 32.77V31.92C126.871 31.93 126.781 31.82 126.781 31.61ZM125.791 31.31C125.791 31.43 125.731 31.54 125.601 31.65C125.481 31.81 125.311 31.93 125.101 32.01C124.891 32.1 124.661 32.14 124.421 32.14C124.151 32.14 123.931 32.06 123.751 31.9C123.581 31.74 123.491 31.54 123.491 31.31C123.491 31.06 123.601 30.85 123.831 30.7C124.061 30.55 124.341 30.47 124.701 30.47C124.881 30.47 125.071 30.49 125.251 30.52C125.441 30.56 125.621 30.61 125.791 30.67V31.31V31.31Z" fill="white"/>
<path d="M132.369 28.56C132.269 28.38 132.119 28.24 131.939 28.14C131.759 28.04 131.529 27.99 131.249 27.99C130.839 27.99 130.459 28.08 130.119 28.26C129.779 28.44 129.519 28.69 129.339 29.01V28.06H128.439V32.77H129.429V29.97C129.479 29.81 129.559 29.66 129.659 29.52C129.759 29.38 129.869 29.27 129.999 29.17C130.129 29.07 130.259 28.99 130.399 28.94C130.539 28.89 130.689 28.86 130.829 28.86C131.109 28.86 131.309 28.96 131.459 29.16C131.599 29.36 131.669 29.68 131.669 30.13V32.77H132.659V29.9C132.659 29.64 132.639 29.4 132.599 29.17C132.539 28.95 132.469 28.74 132.369 28.56Z" fill="white"/>
<path d="M138.18 31.61V26.21H137.19V28.96C137.03 28.68 136.8 28.45 136.52 28.26C136.23 28.08 135.9 27.99 135.52 27.99C135.21 27.99 134.93 28.05 134.68 28.18C134.43 28.31 134.2 28.48 134.01 28.71C133.82 28.93 133.67 29.19 133.57 29.48C133.47 29.77 133.41 30.08 133.41 30.41C133.41 30.75 133.47 31.07 133.58 31.37C133.69 31.67 133.84 31.93 134.04 32.15C134.24 32.37 134.47 32.55 134.74 32.68C135.01 32.81 135.3 32.87 135.62 32.87C135.99 32.87 136.32 32.79 136.62 32.62C136.92 32.45 137.16 32.22 137.33 31.93L137.35 32.28C137.36 32.44 137.43 32.57 137.56 32.68C137.69 32.78 137.85 32.83 138.05 32.83C138.09 32.83 138.14 32.83 138.21 32.82C138.27 32.81 138.36 32.8 138.46 32.78V31.93C138.36 31.92 138.29 31.9 138.25 31.85C138.2 31.81 138.18 31.73 138.18 31.61ZM137.19 31.09C137.15 31.22 137.09 31.35 137.01 31.46C136.92 31.57 136.82 31.67 136.7 31.76C136.58 31.85 136.45 31.91 136.3 31.96C136.16 32.01 136.01 32.03 135.87 32.03C135.67 32.03 135.49 31.99 135.32 31.9C135.15 31.81 135 31.7 134.87 31.56C134.74 31.42 134.63 31.25 134.56 31.06C134.48 30.87 134.45 30.66 134.45 30.45C134.45 30.25 134.48 30.05 134.55 29.86C134.62 29.67 134.71 29.5 134.83 29.35C134.95 29.2 135.09 29.08 135.26 28.99C135.43 28.9 135.61 28.85 135.8 28.85C135.94 28.85 136.09 28.87 136.23 28.92C136.37 28.97 136.5 29.04 136.63 29.13C136.76 29.22 136.87 29.33 136.97 29.45C137.07 29.58 137.15 29.71 137.2 29.86V31.09H137.19Z" fill="white"/>
<path d="M142.959 29.9401H145.819V29.1001H142.959V27.2801H146.259V26.3901H141.949V32.7801H146.339V31.8901H142.959V29.9401Z" fill="white"/>
<path d="M148.97 31.9401L147.62 28.0701H146.6L148.4 32.7801H149.46L151.26 28.0701H150.32L148.97 31.9401Z" fill="white"/>
<path d="M155.8 28.72C155.59 28.5 155.34 28.33 155.04 28.19C154.74 28.05 154.41 27.99 154.05 27.99C153.68 27.99 153.34 28.05 153.04 28.18C152.74 28.31 152.48 28.49 152.27 28.71C152.06 28.93 151.89 29.2 151.77 29.49C151.65 29.79 151.59 30.1 151.59 30.43C151.59 30.76 151.65 31.07 151.77 31.37C151.89 31.66 152.05 31.92 152.27 32.14C152.48 32.36 152.74 32.54 153.04 32.67C153.34 32.8 153.67 32.86 154.04 32.86C154.54 32.86 154.97 32.75 155.35 32.52C155.73 32.29 155.99 32.01 156.16 31.65L155.31 31.41C155.26 31.52 155.2 31.62 155.11 31.71C155.03 31.8 154.93 31.88 154.82 31.94C154.71 32 154.59 32.05 154.46 32.08C154.33 32.11 154.2 32.13 154.07 32.13C153.89 32.13 153.72 32.1 153.55 32.03C153.38 31.96 153.24 31.87 153.11 31.75C152.98 31.63 152.88 31.48 152.79 31.31C152.7 31.14 152.66 30.95 152.64 30.74H156.41C156.42 30.7 156.42 30.65 156.43 30.58C156.44 30.52 156.44 30.45 156.44 30.38C156.44 30.06 156.38 29.76 156.27 29.47C156.17 29.19 156.01 28.94 155.8 28.72ZM152.62 30.07C152.64 29.87 152.69 29.69 152.76 29.52C152.83 29.35 152.94 29.21 153.07 29.09C153.2 28.97 153.34 28.88 153.51 28.82C153.68 28.76 153.85 28.72 154.04 28.72C154.23 28.72 154.4 28.75 154.57 28.82C154.74 28.89 154.89 28.98 155.01 29.09C155.13 29.2 155.24 29.35 155.32 29.52C155.4 29.69 155.45 29.87 155.47 30.07H152.62Z" fill="white"/>
<path d="M161.459 28.56C161.359 28.38 161.209 28.24 161.029 28.14C160.849 28.04 160.619 27.99 160.339 27.99C159.929 27.99 159.549 28.08 159.209 28.26C158.869 28.44 158.609 28.69 158.429 29.01V28.06H157.529V32.77H158.519V29.97C158.569 29.81 158.649 29.66 158.749 29.52C158.849 29.38 158.959 29.27 159.089 29.17C159.219 29.07 159.349 28.99 159.489 28.94C159.629 28.89 159.779 28.86 159.919 28.86C160.199 28.86 160.399 28.96 160.549 29.16C160.689 29.36 160.759 29.68 160.759 30.13V32.77H161.749V29.9C161.749 29.64 161.729 29.4 161.689 29.17C161.639 28.95 161.569 28.74 161.459 28.56Z" fill="white"/>
<path d="M165.43 31.87C165.3 31.92 165.17 31.94 165.03 31.94C164.89 31.94 164.78 31.9 164.68 31.83C164.58 31.76 164.53 31.63 164.52 31.46V28.83H165.55V28.07H164.52V26.52H163.53V28.07H162.91V28.83H163.53V31.77C163.53 31.96 163.56 32.13 163.62 32.26C163.68 32.4 163.76 32.51 163.87 32.59C163.97 32.67 164.1 32.74 164.23 32.78C164.36 32.82 164.52 32.84 164.67 32.84C164.92 32.84 165.16 32.8 165.38 32.73C165.6 32.65 165.78 32.59 165.9 32.53L165.69 31.75C165.65 31.79 165.56 31.82 165.43 31.87Z" fill="white"/>
<path d="M173.06 29.7701C172.88 29.6301 172.66 29.5201 172.4 29.4201C172.14 29.3201 171.85 29.2401 171.52 29.1601C171.26 29.0901 171.02 29.0301 170.83 28.9801C170.64 28.9301 170.47 28.8601 170.33 28.7801C170.2 28.7101 170.1 28.6201 170.04 28.5201C169.98 28.4201 169.95 28.2901 169.95 28.1401C169.95 27.8601 170.05 27.6501 170.25 27.4901C170.45 27.3301 170.76 27.2601 171.19 27.2601C171.38 27.2601 171.57 27.2801 171.75 27.3201C171.93 27.3601 172.1 27.4201 172.25 27.4801C172.4 27.5501 172.54 27.6201 172.65 27.6901C172.76 27.7701 172.85 27.8401 172.91 27.9001L173.37 27.0701C173.09 26.8701 172.77 26.6901 172.41 26.5601C172.04 26.4201 171.65 26.3501 171.21 26.3501C170.88 26.3501 170.57 26.3901 170.29 26.4801C170.01 26.5701 169.76 26.6901 169.56 26.8501C169.36 27.0101 169.19 27.2201 169.07 27.4601C168.95 27.7001 168.89 27.9801 168.89 28.2901C168.89 28.5401 168.93 28.7601 169.01 28.9301C169.09 29.1001 169.21 29.2601 169.37 29.3901C169.53 29.5201 169.72 29.6301 169.96 29.7301C170.2 29.8201 170.47 29.9101 170.79 30.0001C171.07 30.0701 171.31 30.1401 171.53 30.2101C171.75 30.2801 171.93 30.3501 172.08 30.4301C172.23 30.5101 172.35 30.6101 172.43 30.7101C172.51 30.8201 172.55 30.9501 172.55 31.1201C172.55 31.3901 172.44 31.5901 172.23 31.7301C172.01 31.8701 171.71 31.9401 171.31 31.9401C171.06 31.9401 170.83 31.9101 170.6 31.8501C170.37 31.7901 170.16 31.7201 169.97 31.6401C169.77 31.5601 169.6 31.4701 169.46 31.3701C169.31 31.2701 169.2 31.1901 169.12 31.1101L168.66 31.9701C169.03 32.2501 169.44 32.4701 169.89 32.6101C170.34 32.7601 170.81 32.8301 171.3 32.8301C171.62 32.8301 171.93 32.7901 172.21 32.7301C172.49 32.6601 172.74 32.5501 172.95 32.4101C173.16 32.2601 173.33 32.0701 173.45 31.8401C173.57 31.6101 173.63 31.3301 173.63 31.0001C173.63 30.7101 173.58 30.4701 173.48 30.2701C173.38 30.0701 173.24 29.9001 173.06 29.7701Z" fill="white"/>
<path d="M178.489 28.72C178.279 28.5 178.029 28.33 177.729 28.19C177.429 28.05 177.099 27.99 176.739 27.99C176.369 27.99 176.029 28.05 175.729 28.18C175.429 28.31 175.169 28.49 174.959 28.71C174.749 28.93 174.579 29.2 174.459 29.49C174.339 29.79 174.279 30.1 174.279 30.43C174.279 30.76 174.339 31.07 174.459 31.37C174.579 31.66 174.739 31.92 174.959 32.14C175.169 32.36 175.429 32.54 175.729 32.67C176.029 32.8 176.359 32.86 176.729 32.86C177.229 32.86 177.659 32.75 178.039 32.52C178.419 32.29 178.679 32.01 178.849 31.65L177.999 31.42C177.949 31.53 177.889 31.63 177.799 31.72C177.719 31.81 177.619 31.89 177.509 31.95C177.399 32.01 177.279 32.06 177.149 32.09C177.019 32.12 176.889 32.14 176.759 32.14C176.579 32.14 176.409 32.11 176.239 32.04C176.069 31.97 175.929 31.88 175.799 31.76C175.669 31.64 175.569 31.49 175.479 31.32C175.389 31.15 175.349 30.96 175.329 30.75H179.099C179.109 30.71 179.109 30.66 179.119 30.59C179.129 30.53 179.129 30.46 179.129 30.39C179.129 30.07 179.069 29.77 178.959 29.48C178.859 29.19 178.699 28.94 178.489 28.72ZM175.319 30.07C175.339 29.87 175.389 29.69 175.459 29.52C175.529 29.35 175.639 29.21 175.769 29.09C175.899 28.97 176.039 28.88 176.209 28.82C176.379 28.76 176.549 28.72 176.739 28.72C176.929 28.72 177.099 28.75 177.269 28.82C177.439 28.89 177.589 28.98 177.709 29.09C177.829 29.2 177.939 29.35 178.019 29.52C178.099 29.69 178.149 29.87 178.169 30.07H175.319Z" fill="white"/>
<path d="M182.62 28.03C182.32 28.05 182.04 28.16 181.78 28.35C181.52 28.55 181.31 28.81 181.15 29.13V28.08H180.23V32.79H181.22V29.9C181.35 29.59 181.56 29.36 181.85 29.19C182.15 29.03 182.49 28.94 182.87 28.93V28.04C182.84 28.03 182.81 28.03 182.77 28.03C182.73 28.03 182.68 28.03 182.62 28.03Z" fill="white"/>
<path d="M185.749 31.9401L184.399 28.0701H183.379L185.179 32.7801H186.239L188.039 28.0701H187.109L185.749 31.9401Z" fill="white"/>
<path d="M190.179 28.0701H189.189V32.7801H190.179V28.0701Z" fill="white"/>
<path d="M190.179 26.21H189.189V27.3H190.179V26.21Z" fill="white"/>
<path d="M194.71 31.63C194.63 31.71 194.55 31.78 194.45 31.84C194.35 31.9 194.24 31.95 194.12 31.98C194 32.01 193.88 32.03 193.76 32.03C193.57 32.03 193.39 31.99 193.22 31.91C193.05 31.83 192.9 31.72 192.77 31.57C192.64 31.43 192.54 31.26 192.46 31.06C192.38 30.87 192.35 30.65 192.35 30.43C192.35 30.2 192.39 29.98 192.46 29.79C192.53 29.6 192.63 29.43 192.76 29.29C192.89 29.15 193.03 29.04 193.21 28.96C193.39 28.88 193.57 28.84 193.76 28.84C193.99 28.84 194.21 28.9 194.4 29.01C194.59 29.12 194.75 29.28 194.86 29.47L195.82 29.16C195.65 28.81 195.38 28.52 195.03 28.31C194.68 28.1 194.26 27.99 193.77 27.99C193.4 27.99 193.06 28.05 192.76 28.18C192.46 28.31 192.2 28.48 191.99 28.71C191.78 28.93 191.61 29.19 191.5 29.48C191.39 29.77 191.33 30.09 191.33 30.42C191.33 30.75 191.39 31.06 191.51 31.36C191.63 31.65 191.79 31.91 192.01 32.14C192.22 32.36 192.48 32.54 192.78 32.68C193.08 32.81 193.41 32.88 193.78 32.88C194.28 32.88 194.71 32.77 195.08 32.54C195.45 32.31 195.71 32.03 195.86 31.67L194.89 31.38C194.84 31.47 194.78 31.55 194.71 31.63Z" fill="white"/>
<path d="M200.431 28.72C200.221 28.5 199.971 28.33 199.671 28.19C199.371 28.05 199.041 27.99 198.681 27.99C198.311 27.99 197.971 28.05 197.671 28.18C197.371 28.31 197.111 28.49 196.901 28.71C196.691 28.93 196.521 29.2 196.401 29.49C196.281 29.79 196.221 30.1 196.221 30.43C196.221 30.76 196.281 31.07 196.401 31.37C196.521 31.66 196.681 31.92 196.901 32.14C197.111 32.36 197.371 32.54 197.671 32.67C197.971 32.8 198.301 32.86 198.671 32.86C199.171 32.86 199.601 32.75 199.981 32.52C200.361 32.29 200.621 32.01 200.791 31.65L199.941 31.41C199.891 31.52 199.831 31.62 199.741 31.71C199.661 31.8 199.561 31.88 199.451 31.94C199.341 32 199.221 32.05 199.091 32.08C198.961 32.11 198.831 32.13 198.701 32.13C198.521 32.13 198.351 32.1 198.181 32.03C198.011 31.96 197.871 31.87 197.741 31.75C197.611 31.63 197.511 31.48 197.421 31.31C197.331 31.14 197.291 30.95 197.271 30.74H201.041C201.051 30.7 201.051 30.65 201.061 30.58C201.071 30.52 201.071 30.45 201.071 30.38C201.071 30.06 201.011 29.76 200.901 29.47C200.801 29.19 200.641 28.94 200.431 28.72ZM197.251 30.07C197.271 29.87 197.321 29.69 197.391 29.52C197.461 29.35 197.571 29.21 197.701 29.09C197.831 28.97 197.971 28.88 198.141 28.82C198.311 28.76 198.481 28.72 198.671 28.72C198.861 28.72 199.031 28.75 199.201 28.82C199.371 28.89 199.521 28.98 199.641 29.09C199.761 29.2 199.871 29.35 199.951 29.52C200.031 29.69 200.081 29.87 200.101 30.07H197.251Z" fill="white"/>
<path d="M205.31 30.54C205.16 30.43 204.97 30.34 204.74 30.27C204.51 30.19 204.23 30.11 203.92 30.04C203.73 29.99 203.57 29.95 203.44 29.91C203.31 29.87 203.21 29.83 203.12 29.78C203.03 29.73 202.98 29.67 202.94 29.61C202.9 29.54 202.89 29.46 202.89 29.37C202.89 29.14 202.98 28.98 203.15 28.87C203.32 28.77 203.53 28.71 203.78 28.71C204.27 28.71 204.74 28.88 205.18 29.23L205.6 28.64C205.36 28.44 205.09 28.28 204.78 28.17C204.47 28.06 204.14 28.01 203.79 28.01C203.53 28.01 203.29 28.04 203.07 28.11C202.85 28.18 202.65 28.27 202.49 28.4C202.33 28.53 202.2 28.69 202.1 28.87C202.01 29.06 201.96 29.27 201.96 29.51C201.96 29.69 201.99 29.84 202.05 29.97C202.11 30.1 202.21 30.21 202.34 30.3C202.47 30.4 202.64 30.48 202.85 30.55C203.06 30.62 203.31 30.7 203.61 30.78C204.02 30.89 204.32 30.99 204.51 31.08C204.7 31.17 204.8 31.31 204.8 31.51C204.8 31.72 204.71 31.88 204.54 32C204.37 32.12 204.14 32.17 203.84 32.17C203.55 32.17 203.27 32.12 202.99 32.01C202.71 31.9 202.43 31.75 202.15 31.55L201.75 32.18C202.02 32.41 202.34 32.58 202.72 32.71C203.1 32.84 203.47 32.89 203.85 32.89C204.43 32.89 204.89 32.76 205.23 32.5C205.57 32.24 205.74 31.88 205.74 31.43C205.74 31.23 205.7 31.06 205.63 30.92C205.57 30.76 205.46 30.64 205.31 30.54Z" fill="white"/>
</svg>
