<?xml version="1.0" encoding="UTF-8"?>
<!DOCTYPE svg PUBLIC "-//W3C//DTD SVG 1.1//EN" "http://www.w3.org/Graphics/SVG/1.1/DTD/svg11.dtd">
<!-- Creator: CorelDRAW 2020 (64-Bit) -->
<svg xmlns="http://www.w3.org/2000/svg" xml:space="preserve" width="879.702mm" height="351.61mm" version="1.1" style="shape-rendering:geometricPrecision; text-rendering:geometricPrecision; image-rendering:optimizeQuality; fill-rule:evenodd; clip-rule:evenodd"
viewBox="0 0 76072.09 30405.42"
 xmlns:xlink="http://www.w3.org/1999/xlink"
 xmlns:xodm="http://www.corel.com/coreldraw/odm/2003">
 <defs>
  <style type="text/css">
   <![CDATA[
    .fil3 {fill:#171550}
    .fil2 {fill:#9D0111}
    .fil0 {fill:white}
    .fil1 {fill:#D12421}
   ]]>
  </style>
 </defs>
 <g id="Слой_x0020_1">
  <metadata id="CorelCorpID_0Corel-Layer"/>
  <polygon class="fil0" points="38860.6,14192.65 40500.28,14192.65 40500.28,8299.98 38860.6,8299.98 "/>
  <polygon class="fil0" points="47474.85,14192.65 45835.19,14192.65 43671.22,10905.04 43671.22,14192.65 42031.56,14192.65 42031.56,8308.27 43671.22,8308.27 45835.19,11637.49 45835.19,8308.27 47474.85,8308.27 "/>
  <path class="fil0" d="M53150.88 13385.29c-166.47,266.26 -410.67,477.23 -732.32,632.56 -321.89,155.37 -707.48,232.99 -1156.91,232.99 -682.56,0 -1244.36,-163.56 -1685.42,-491.02 -441.1,-327.34 -681.21,-793.43 -719.9,-1398.28l1739.47 0c16.61,205.34 80.31,357.92 191.33,457.77 111.06,99.94 246.98,149.79 407.87,149.79 144.28,0 256.62,-36.03 337.1,-108.15 80.38,-72.07 120.68,-174.74 120.68,-307.96 0,-177.52 -80.46,-314.81 -241.38,-412.01 -160.97,-96.94 -416.09,-203.92 -765.64,-320.39 -371.84,-127.59 -678.41,-252.43 -919.71,-374.56 -241.38,-121.96 -449.44,-305.07 -624.23,-549.34 -174.83,-244.08 -262.19,-557.58 -262.19,-940.5 0,-366.21 94.3,-681.05 282.99,-944.64 188.56,-263.46 446.54,-463.15 774.08,-599.3 327.29,-135.78 699.11,-203.85 1115.22,-203.85 676.81,0 1216.49,159.57 1618.86,478.6 402.17,319.07 622.78,767.11 661.68,1344.15l-1756.17 0c-22.19,-183.08 -79.12,-319 -170.66,-407.85 -91.52,-88.67 -212.24,-133.15 -361.98,-133.15 -127.75,0 -227.66,33.27 -299.68,99.84 -72.16,66.66 -108.17,166.45 -108.17,299.67 0,166.47 79.09,296.91 237.19,391.14 158.13,94.4 406.38,199.81 744.88,316.31 371.63,133.15 679.6,263.56 923.85,391.13 244.08,127.75 454.96,313.51 632.54,557.71 177.5,244.16 266.35,560.5 266.35,948.82 0,327.37 -83.28,624.18 -249.71,890.53z"/>
  <polygon class="fil0" points="54740.58,14192.65 56380.29,14192.65 56380.29,8299.98 54740.58,8299.98 "/>
  <path class="fil0" d="M62555.85 8799.33c482.65,366.16 774.01,860.1 873.91,1481.46l-1722.86 0c-88.78,-160.87 -219.29,-288.45 -391.13,-382.77 -172.13,-94.35 -374.53,-141.59 -607.56,-141.59 -399.58,0 -717.28,134.72 -953,403.69 -235.9,269.21 -353.71,628.46 -353.71,1077.89 0,510.51 126.07,897.57 378.68,1161.06 252.33,263.58 622.77,395.32 1111.11,395.32 277.41,0 521.5,-66.57 732.32,-199.79 210.96,-133.13 377.42,-330.1 499.42,-590.98l-1631.22 0 0 -1165.14 2987.89 0 0 1622.99c-210.95,488.31 -548.03,905.82 -1011.23,1252.61 -463.35,346.83 -1047.33,520.15 -1751.99,520.15 -599.19,0 -1123.56,-126.15 -1573.1,-378.66 -449.36,-252.48 -794.72,-606.16 -1036.2,-1061.18 -241.3,-454.96 -362,-973.8 -362,-1556.38 0,-582.59 120.7,-1099.98 362,-1552.21 241.48,-452.25 583.98,-804.46 1027.94,-1057.12 443.88,-252.33 965.46,-378.69 1564.75,-378.69 754.51,0 1373.31,183.11 1855.98,549.34z"/>
  <polygon class="fil0" points="70104.74,8299.95 70104.74,14192.65 68473.35,14192.65 68473.35,11812.2 66475.94,11812.2 66475.94,14192.65 64836.29,14192.65 64836.29,8299.95 66475.94,8299.95 66475.94,10505.56 68473.35,10505.56 68473.35,8299.95 "/>
  <polygon class="fil0" points="76072.09,8299.95 76072.09,9606.69 74482.38,9606.69 74482.38,14192.65 72851.17,14192.65 72851.17,9606.69 71278.05,9606.69 71278.05,8299.95 "/>
  <polygon class="fil0" points="39709.54,17219.96 39709.54,19067.58 42772.36,19067.58 42772.36,19675.14 39709.54,19675.14 39709.54,21531.28 43138.6,21531.28 43138.6,22130.57 39085.27,22130.57 39085.27,16620.66 43138.6,16620.66 43138.6,17219.96 "/>
  <polygon class="fil0" points="47025.22,19284.05 49222.48,22130.57 48431.77,22130.57 46642.32,19766.81 44861.19,22130.57 44070.66,22130.57 46267.92,19284.05 44220.39,16620.66 45011.11,16620.66 46642.32,18784.74 48282.01,16620.66 49072.73,16620.66 "/>
  <path class="fil0" d="M51120.05 17211.65l0 2371.98 1814.4 0c432.82,0 760.19,-105.39 982.16,-316.24 221.81,-210.82 332.84,-500.68 332.84,-869.7 0,-368.95 -111.03,-658.78 -332.84,-869.83 -221.97,-210.77 -549.34,-316.2 -982.16,-316.2l-1814.4 0zm0 4918.92l0 0 -624.14 0 0 -5509.91 2480.23 0c582.58,0 1045.76,161.02 1389.83,482.73 338.4,321.87 507.76,751.98 507.76,1290.19 0,543.79 -170.66,975.22 -511.97,1294.11 -341.08,319.17 -803.05,478.52 -1385.63,478.52l-1856.09 0 0 1964.36z"/>
  <path class="fil0" d="M58793.83 21589.42c654.62,0 1184.54,-213.44 1589.62,-640.74 388.25,-410.58 582.59,-934.95 582.59,-1573.02 0,-638.12 -194.33,-1162.38 -582.59,-1573.12 -405.08,-427.12 -935,-640.86 -1589.62,-640.86 -654.8,0 -1184.72,213.74 -1589.73,640.86 -388.43,410.74 -582.67,935 -582.67,1573.12 0,638.07 194.24,1162.44 582.67,1573.02 405,427.3 934.92,640.74 1589.73,640.74zm0 -5035.29l0 0c820.99,0 1495.19,274.64 2022.46,823.96 516,532.63 774,1198.47 774,1997.58 0,798.92 -258.01,1464.75 -774,1997.48 -527.26,549.21 -1201.46,823.86 -2022.46,823.86 -821.28,0 -1495.48,-274.65 -2022.53,-823.86 -516.02,-532.74 -774,-1198.57 -774,-1997.48 0,-799.11 257.98,-1464.94 774,-1997.58 527.06,-549.31 1201.26,-823.96 2022.53,-823.96z"/>
  <polygon class="fil1" points="30006.39,16817.11 30006.39,10742.37 15004.21,0 15002.16,0 -0,10742.37 -0,17494.08 2854.2,18636.05 2854.2,24181.81 24088.06,30405.42 32256.09,24181.88 32256.09,18547.09 "/>
  <polygon class="fil2" points="15002.18,11479.26 15003.17,0 15002.16,0 -0,10742.37 -0,17494.08 "/>
  <polygon class="fil2" points="2854.2,24181.81 24088.06,30405.42 24088.06,12266.09 2854.2,18547.22 "/>
  <polygon class="fil3" points="2854.2,18547.22 19989.29,13478.56 15002.18,11479.26 -0,17494.08 2854.2,18636.05 "/>
  <polygon class="fil1" points="62863.72,22130.85 64536.16,22130.85 64536.16,20458.41 62863.72,20458.41 "/>
 </g>
</svg>
