<svg width="232" height="143" viewBox="0 0 232 143" fill="none" xmlns="http://www.w3.org/2000/svg">
<path fill-rule="evenodd" clip-rule="evenodd" d="M36.4702 98.6019C27.9021 98.6019 20.4844 92.4207 16.9994 83.4885H12.2154C13.5021 87.6169 15.4915 91.4049 18.1056 94.6269C23.0118 100.672 29.5339 104 36.4702 104C43.4065 104 49.9286 100.672 54.8312 94.6269C59.6861 88.6468 62.3817 80.7144 62.4365 72.2654V71.0768C62.4365 71.0768 58.2171 72.9673 58.0419 72.9955C57.6171 87.2042 48.1038 98.6019 36.4702 98.6019ZM82.148 56.4819H83.1002V60.6262L85.1463 56.4819H86.1622V62.7071H85.21V58.6299L83.164 62.7071H82.148V56.4819ZM87.1551 58.1943H88.1232V59.8449H89.5197V58.1943H90.4861V62.7054H89.5197V60.8113H88.1232V62.7071H87.1551V58.1943ZM94.6489 59.5328L93.6967 59.7409C93.6648 59.5081 93.5923 59.3317 93.479 59.2136C93.3657 59.0954 93.217 59.0355 93.0365 59.0355C92.7958 59.0355 92.6029 59.1377 92.4595 59.3441C92.3162 59.5504 92.2454 59.8943 92.2454 60.3757C92.2454 60.9136 92.3179 61.291 92.4648 61.5132C92.61 61.7354 92.8047 61.8448 93.0489 61.8448C93.233 61.8448 93.3834 61.7813 93.5002 61.6508C93.617 61.522 93.7002 61.2998 93.748 60.9842L94.7002 61.1834C94.6011 61.7231 94.4117 62.1304 94.1321 62.4056C93.8524 62.6807 93.4772 62.8182 93.0047 62.8182C92.4701 62.8182 92.0436 62.6101 91.725 62.1922C91.4064 61.7742 91.2471 61.1993 91.2471 60.4622C91.2471 59.7144 91.4082 59.1342 91.725 58.7198C92.0436 58.3036 92.4754 58.0955 93.0206 58.0955C93.4648 58.0955 93.8188 58.2154 94.0825 58.45C94.3445 58.6898 94.5339 59.0496 94.6489 59.5328ZM94.9462 58.1943H98.256V59.1589H97.0843V62.7054H96.1179V59.1589H94.9462V58.1943ZM98.81 58.1943H99.7409V61.0282L101.229 58.1943H102.182V62.7054H101.251V59.829L99.7409 62.7054H98.81V58.1943ZM102.737 58.1943H106.047V59.1589H104.875V62.7054H103.909V59.1589H102.737V58.1943ZM106.339 58.1943H107.369L108.247 61.3933L109.104 58.1943H110.106L108.813 62.5361L108.582 63.3208C108.495 63.5818 108.415 63.7829 108.336 63.9222C108.26 64.0597 108.171 64.1726 108.07 64.2573C107.969 64.3454 107.847 64.4107 107.7 64.4583C107.553 64.5059 107.387 64.5306 107.203 64.5306C107.017 64.5306 106.835 64.5059 106.654 64.4583L106.569 63.5272C106.72 63.5642 106.86 63.5818 106.982 63.5818C107.206 63.5818 107.375 63.5007 107.483 63.3367C107.59 63.1727 107.674 62.9646 107.732 62.7106L106.339 58.1943ZM110.378 58.1943H113.686V59.1589H112.516V62.7054H111.548V59.1589H110.378V58.1943ZM120.789 62.7054H119.686L119.251 61.2892H117.224L116.805 62.7054H115.723L117.684 56.4801H118.766L120.789 62.7054ZM118.918 60.2364L118.215 57.9333L117.534 60.2364H118.918ZM121.332 58.1943H123.452C123.888 58.1943 124.212 58.2913 124.429 58.487C124.645 58.681 124.753 58.9773 124.753 59.3723C124.753 59.6245 124.695 59.8432 124.576 60.0319C124.459 60.2188 124.311 60.3422 124.132 60.4057C124.383 60.4833 124.571 60.6244 124.697 60.8343C124.821 61.0424 124.882 61.2734 124.882 61.522C124.882 61.873 124.778 62.1587 124.569 62.3773C124.36 62.596 124.051 62.7054 123.642 62.7054H121.334V58.1943H121.332ZM122.298 60.0724H122.927C123.229 60.0724 123.447 60.0266 123.583 59.9313C123.718 59.8379 123.787 59.6897 123.787 59.4887C123.787 59.2982 123.723 59.1624 123.598 59.0831C123.472 59.002 123.249 58.9614 122.927 58.9614H122.298V60.0724ZM122.298 61.9418H123.068C123.346 61.9418 123.548 61.9012 123.675 61.8183C123.803 61.7354 123.865 61.589 123.865 61.3757C123.865 61.1535 123.792 61.0018 123.647 60.9189C123.502 60.8343 123.219 60.7919 122.798 60.7919H122.3V61.9418H122.298ZM125.633 58.1943H126.564V61.0282L128.052 58.1943H129.005V62.7054H128.074V59.829L126.564 62.7054H125.633V58.1943ZM130.718 59.5857L129.844 59.3935C129.943 58.9526 130.113 58.6281 130.353 58.4165C130.596 58.2048 130.953 58.099 131.429 58.099C131.861 58.099 132.182 58.1608 132.394 58.2877C132.605 58.4147 132.753 58.5734 132.838 58.7674C132.925 58.9614 132.967 59.3176 132.967 59.8361L132.953 61.2275C132.953 61.6226 132.967 61.9153 132.999 62.104C133.029 62.2909 133.088 62.4937 133.173 62.7071H132.213C132.189 62.6295 132.157 62.5131 132.12 62.3597C132.105 62.2892 132.093 62.2433 132.086 62.2222C131.921 62.4214 131.744 62.5696 131.557 62.6718C131.369 62.7706 131.167 62.8217 130.957 62.8217C130.582 62.8217 130.284 62.6948 130.068 62.4444C129.852 62.1922 129.743 61.8747 129.743 61.4903C129.743 61.2363 129.792 61.0088 129.891 60.8078C129.989 60.6103 130.129 60.4551 130.307 60.351C130.484 60.2452 130.741 60.1518 131.077 60.0724C131.529 59.9684 131.842 59.8696 132.015 59.7797V59.6598C132.015 59.427 131.971 59.2612 131.877 59.1624C131.785 59.0637 131.61 59.0143 131.355 59.0143C131.182 59.0143 131.049 59.0549 130.953 59.1413C130.856 59.2242 130.778 59.3723 130.718 59.5857ZM132.015 60.5503C131.891 60.5997 131.697 60.6614 131.428 60.732C131.159 60.8025 130.983 60.8731 130.9 60.9401C130.775 61.0529 130.709 61.1905 130.709 61.3598C130.709 61.5273 130.76 61.6702 130.861 61.7936C130.962 61.9135 131.091 61.9753 131.247 61.9753C131.421 61.9753 131.587 61.9047 131.746 61.7636C131.863 61.6561 131.939 61.5256 131.976 61.3686C132.001 61.2681 132.013 61.0723 132.013 60.7866V60.5503H132.015ZM133.888 58.1943H134.854V61.7407H136.244V58.1943H137.212V61.7407H137.592V63.8957H136.81V62.7054H133.89V58.1943H133.888ZM138.231 58.1943H139.162V61.0282L140.651 58.1943H141.603V62.7054H140.672V59.829L139.162 62.7054H138.231V58.1943ZM142.369 60.3951C142.369 59.9966 142.449 59.6139 142.606 59.2436C142.766 58.8715 142.99 58.5893 143.281 58.3918C143.571 58.1978 143.895 58.0973 144.252 58.0973C144.806 58.0973 145.259 58.3195 145.613 58.7621C145.967 59.2065 146.144 59.7673 146.144 60.4445C146.144 61.1288 145.966 61.6949 145.61 62.1446C145.252 62.5943 144.803 62.82 144.261 62.82C143.927 62.82 143.606 62.7248 143.302 62.5378C142.999 62.3509 142.767 62.0775 142.608 61.716C142.449 61.3545 142.369 60.9136 142.369 60.3951ZM143.364 60.4586C143.364 60.9083 143.451 61.2504 143.622 61.4885C143.794 61.7266 144.006 61.8448 144.259 61.8448C144.511 61.8448 144.723 61.7266 144.893 61.4885C145.063 61.2504 145.15 60.9048 145.15 60.4498C145.15 60.0072 145.065 59.6686 144.893 59.4305C144.723 59.1924 144.511 59.0743 144.259 59.0743C144.006 59.0743 143.794 59.1924 143.622 59.4305C143.451 59.6686 143.364 60.0107 143.364 60.4586ZM146.863 58.1943H147.829V59.8449H149.228V58.1943H150.194V62.7054H149.228V60.8113H147.829V62.7071H146.863V58.1943ZM151.125 58.1943H152.091V59.8449H153.488V58.1943H154.456V62.7054H153.488V60.8113H152.091V62.7071H151.125V58.1943ZM155.203 60.3951C155.203 59.9966 155.281 59.6139 155.44 59.2436C155.599 58.8715 155.824 58.5893 156.113 58.3918C156.403 58.1978 156.727 58.0973 157.086 58.0973C157.64 58.0973 158.093 58.3195 158.447 58.7621C158.801 59.2065 158.978 59.7673 158.978 60.4445C158.978 61.1288 158.799 61.6949 158.444 62.1446C158.086 62.5943 157.636 62.82 157.095 62.82C156.759 62.82 156.44 62.7248 156.136 62.5378C155.833 62.3509 155.601 62.0775 155.442 61.716C155.281 61.3545 155.203 60.9136 155.203 60.3951ZM156.198 60.4586C156.198 60.9083 156.282 61.2504 156.454 61.4885C156.628 61.7266 156.84 61.8448 157.091 61.8448C157.343 61.8448 157.555 61.7266 157.725 61.4885C157.895 61.2504 157.982 60.9048 157.982 60.4498C157.982 60.0072 157.895 59.6686 157.725 59.4305C157.555 59.1924 157.343 59.0743 157.091 59.0743C156.838 59.0743 156.626 59.1924 156.454 59.4305C156.282 59.6686 156.198 60.0107 156.198 60.4586ZM159.697 58.1943H162.173V59.1589H160.663V62.7054H159.697V58.1943ZM162.357 60.3951C162.357 59.9966 162.436 59.6139 162.594 59.2436C162.753 58.8715 162.978 58.5893 163.268 58.3918C163.559 58.1978 163.882 58.0973 164.24 58.0973C164.794 58.0973 165.247 58.3195 165.601 58.7621C165.955 59.2065 166.132 59.7673 166.132 60.4445C166.132 61.1288 165.953 61.6949 165.597 62.1446C165.24 62.5943 164.79 62.82 164.249 62.82C163.914 62.82 163.594 62.7248 163.29 62.5378C162.987 62.3509 162.755 62.0775 162.596 61.716C162.436 61.3545 162.357 60.9136 162.357 60.3951ZM163.353 60.4586C163.353 60.9083 163.44 61.2504 163.612 61.4885C163.783 61.7266 163.996 61.8448 164.249 61.8448C164.5 61.8448 164.713 61.7266 164.882 61.4885C165.052 61.2504 165.139 60.9048 165.139 60.4498C165.139 60.0072 165.054 59.6686 164.882 59.4305C164.711 59.1924 164.5 59.0743 164.249 59.0743C163.996 59.0743 163.783 59.1924 163.612 59.4305C163.438 59.6686 163.353 60.0107 163.353 60.4586ZM168.875 56.4819H172.89V62.7071H171.867V57.5347H169.898V62.7071H168.875V56.4819ZM173.897 58.1943H174.801V58.8556C174.918 58.6299 175.075 58.4464 175.275 58.3054C175.475 58.166 175.697 58.0973 175.941 58.0973C176.366 58.0973 176.727 58.3036 177.022 58.7145C177.318 59.1236 177.467 59.6985 177.467 60.4304C177.467 61.1852 177.318 61.7707 177.019 62.1886C176.72 62.6084 176.359 62.8165 175.932 62.8165C175.728 62.8165 175.546 62.7671 175.382 62.6666C175.219 62.5678 175.045 62.3985 174.863 62.1587V64.416H173.895V58.1943H173.897ZM174.849 60.3793C174.849 60.8872 174.93 61.2628 175.095 61.5079C175.256 61.7495 175.456 61.8712 175.69 61.8712C175.913 61.8712 176.1 61.7583 176.251 61.5361C176.399 61.3139 176.474 60.9471 176.474 60.4392C176.474 59.9648 176.396 59.6121 176.243 59.3829C176.09 59.1519 175.9 59.0372 175.674 59.0372C175.436 59.0372 175.242 59.1501 175.086 59.3776C174.927 59.6033 174.849 59.9366 174.849 60.3793ZM178.206 58.1943H179.137V61.0282L180.626 58.1943H181.578V62.7054H180.647V59.829L179.137 62.7054H178.206V58.1943ZM185.323 56.3337H185.98C185.959 56.6917 185.882 56.9633 185.75 57.1485C185.617 57.3337 185.291 57.4254 184.771 57.4254C184.709 57.4254 184.647 57.4236 184.585 57.4218H184.461C184.153 57.4218 183.904 57.4642 183.709 57.5488C183.516 57.6317 183.357 57.7939 183.235 58.0338C183.111 58.2772 183.047 58.6651 183.044 59.1995C183.187 58.8697 183.371 58.6228 183.597 58.4588C183.824 58.2948 184.095 58.2137 184.406 58.2137C184.888 58.2137 185.295 58.4447 185.629 58.905C185.962 59.367 186.128 59.9014 186.128 60.508C186.128 61.1411 185.953 61.6843 185.603 62.1393C185.251 62.5943 184.794 62.8217 184.228 62.8217C183.838 62.8217 183.498 62.7071 183.203 62.4761C182.909 62.2468 182.698 61.9329 182.571 61.5344C182.445 61.1358 182.382 60.478 182.382 59.5557C182.382 58.4711 182.544 57.6952 182.867 57.219C183.19 56.7464 183.755 56.5101 184.56 56.5101H185.051C185.187 56.5083 185.277 56.4501 185.323 56.3337ZM183.376 60.4868C183.376 60.8995 183.459 61.2275 183.626 61.4674C183.792 61.709 183.994 61.8289 184.233 61.8289C184.493 61.8289 184.704 61.7037 184.87 61.455C185.036 61.2064 185.118 60.8854 185.118 60.4921C185.118 60.0901 185.035 59.7673 184.867 59.5222C184.698 59.2753 184.49 59.1536 184.243 59.1536C184.003 59.1536 183.799 59.2735 183.629 59.5169C183.459 59.7567 183.376 60.0795 183.376 60.4868ZM186.704 60.3951C186.704 59.9966 186.782 59.6139 186.941 59.2436C187.098 58.8715 187.323 58.5893 187.613 58.3918C187.904 58.1978 188.228 58.0973 188.585 58.0973C189.139 58.0973 189.592 58.3195 189.946 58.7621C190.3 59.2065 190.477 59.7673 190.477 60.4445C190.477 61.1288 190.298 61.6949 189.943 62.1446C189.585 62.5943 189.137 62.82 188.594 62.82C188.259 62.82 187.939 62.7248 187.635 62.5378C187.332 62.3509 187.1 62.0775 186.941 61.716C186.782 61.3545 186.704 60.9136 186.704 60.3951ZM187.698 60.4586C187.698 60.9083 187.785 61.2504 187.957 61.4885C188.13 61.7266 188.341 61.8448 188.594 61.8448C188.847 61.8448 189.058 61.7266 189.228 61.4885C189.397 61.2504 189.484 60.9048 189.484 60.4498C189.484 60.0072 189.399 59.6686 189.228 59.4305C189.058 59.1924 188.845 59.0743 188.594 59.0743C188.341 59.0743 188.13 59.1924 187.957 59.4305C187.783 59.6686 187.698 60.0107 187.698 60.4586ZM191.21 58.1943H192.114V58.8556C192.231 58.6299 192.389 58.4464 192.589 58.3054C192.789 58.166 193.01 58.0973 193.254 58.0973C193.679 58.0973 194.04 58.3036 194.336 58.7145C194.631 59.1236 194.78 59.6985 194.78 60.4304C194.78 61.1852 194.631 61.7707 194.332 62.1886C194.033 62.6084 193.672 62.8165 193.245 62.8165C193.042 62.8165 192.859 62.7671 192.695 62.6666C192.532 62.5678 192.359 62.3985 192.176 62.1587V64.416H191.208V58.1943H191.21ZM192.162 60.3793C192.162 60.8872 192.243 61.2628 192.408 61.5079C192.569 61.7495 192.769 61.8712 193.003 61.8712C193.226 61.8712 193.413 61.7583 193.564 61.5361C193.713 61.3139 193.787 60.9471 193.787 60.4392C193.787 59.9648 193.709 59.6121 193.557 59.3829C193.403 59.1519 193.213 59.0372 192.987 59.0372C192.75 59.0372 192.555 59.1501 192.399 59.3776C192.242 59.6033 192.162 59.9366 192.162 60.3793ZM195.323 60.3951C195.323 59.9966 195.401 59.6139 195.56 59.2436C195.718 58.8715 195.943 58.5893 196.233 58.3918C196.523 58.1978 196.847 58.0973 197.205 58.0973C197.759 58.0973 198.212 58.3195 198.566 58.7621C198.92 59.2065 199.097 59.7673 199.097 60.4445C199.097 61.1288 198.918 61.6949 198.562 62.1446C198.205 62.5943 197.755 62.82 197.213 62.82C196.879 62.82 196.559 62.7248 196.254 62.5378C195.951 62.3509 195.72 62.0775 195.56 61.716C195.401 61.3545 195.323 60.9136 195.323 60.3951ZM196.318 60.4586C196.318 60.9083 196.405 61.2504 196.576 61.4885C196.75 61.7266 196.96 61.8448 197.213 61.8448C197.466 61.8448 197.677 61.7266 197.847 61.4885C198.017 61.2504 198.104 60.9048 198.104 60.4498C198.104 60.0072 198.019 59.6686 197.847 59.4305C197.675 59.1924 197.465 59.0743 197.213 59.0743C196.962 59.0743 196.75 59.1924 196.576 59.4305C196.403 59.6686 196.318 60.0107 196.318 60.4586ZM202.955 59.5328L202.003 59.7409C201.971 59.5081 201.898 59.3317 201.783 59.2136C201.668 59.0954 201.523 59.0355 201.341 59.0355C201.1 59.0355 200.905 59.1377 200.764 59.3441C200.62 59.5504 200.548 59.8943 200.548 60.3757C200.548 60.9136 200.622 61.291 200.767 61.5132C200.914 61.7354 201.109 61.8448 201.353 61.8448C201.537 61.8448 201.688 61.7813 201.803 61.6508C201.92 61.522 202.003 61.2998 202.052 60.9842L203.005 61.1834C202.905 61.7231 202.716 62.1304 202.436 62.4056C202.157 62.6807 201.782 62.8182 201.309 62.8182C200.774 62.8182 200.348 62.6101 200.031 62.1922C199.713 61.7742 199.553 61.1993 199.553 60.4622C199.553 59.7144 199.713 59.1342 200.031 58.7198C200.35 58.3036 200.78 58.0955 201.325 58.0955C201.769 58.0955 202.123 58.2154 202.387 58.45C202.651 58.6898 202.838 59.0496 202.955 59.5328ZM203.252 58.1943H206.56V59.1589H205.39V62.7054H204.424V59.1589H203.252V58.1943ZM207.116 58.1943H208.019V58.8556C208.136 58.6299 208.295 58.4464 208.493 58.3054C208.693 58.166 208.914 58.0973 209.159 58.0973C209.583 58.0973 209.944 58.3036 210.24 58.7145C210.535 59.1236 210.684 59.6985 210.684 60.4304C210.684 61.1852 210.534 61.7707 210.236 62.1886C209.937 62.6084 209.576 62.8165 209.15 62.8165C208.948 62.8165 208.764 62.7671 208.599 62.6666C208.435 62.5678 208.261 62.3985 208.081 62.1587V64.416H207.114V58.1943H207.116ZM208.068 60.3793C208.068 60.8872 208.15 61.2628 208.313 61.5079C208.475 61.7495 208.674 61.8712 208.907 61.8712C209.132 61.8712 209.32 61.7583 209.468 61.5361C209.619 61.3139 209.691 60.9471 209.691 60.4392C209.691 59.9648 209.615 59.6121 209.461 59.3829C209.309 59.1519 209.118 59.0372 208.891 59.0372C208.654 59.0372 208.458 59.1501 208.304 59.3776C208.146 59.6033 208.068 59.9366 208.068 60.3793ZM211.228 60.3951C211.228 59.9966 211.305 59.6139 211.465 59.2436C211.624 58.8715 211.847 58.5893 212.137 58.3918C212.428 58.1978 212.751 58.0973 213.111 58.0973C213.665 58.0973 214.118 58.3195 214.47 58.7621C214.824 59.2065 215.001 59.7673 215.001 60.4445C215.001 61.1288 214.822 61.6949 214.466 62.1446C214.109 62.5943 213.661 62.82 213.118 62.82C212.782 62.82 212.463 62.7248 212.159 62.5378C211.854 62.3509 211.624 62.0775 211.465 61.716C211.305 61.3545 211.228 60.9136 211.228 60.3951ZM212.222 60.4586C212.222 60.9083 212.307 61.2504 212.479 61.4885C212.652 61.7266 212.863 61.8448 213.116 61.8448C213.367 61.8448 213.578 61.7266 213.75 61.4885C213.921 61.2504 214.006 60.9048 214.006 60.4498C214.006 60.0072 213.92 59.6686 213.75 59.4305C213.58 59.1924 213.367 59.0743 213.116 59.0743C212.863 59.0743 212.651 59.1924 212.479 59.4305C212.309 59.6686 212.222 60.0107 212.222 60.4586ZM217.881 61.2804L218.847 61.4797C218.723 61.9153 218.528 62.2486 218.259 62.4779C217.992 62.7054 217.656 62.82 217.256 62.82C216.62 62.82 216.15 62.5625 215.843 62.0493C215.603 61.6384 215.481 61.1199 215.481 60.4921C215.481 59.7444 215.64 59.1571 215.955 58.7339C216.272 58.3089 216.672 58.0973 217.159 58.0973C217.702 58.0973 218.13 58.3195 218.445 58.7621C218.76 59.2048 218.911 59.8855 218.897 60.8008H216.475C216.482 61.1552 216.56 61.4303 216.709 61.6261C216.858 61.8236 217.043 61.9223 217.263 61.9223C217.415 61.9223 217.543 61.873 217.645 61.7707C217.75 61.6702 217.828 61.5062 217.881 61.2804ZM217.937 60.0724C217.93 59.725 217.858 59.4622 217.721 59.2824C217.583 59.1025 217.417 59.0125 217.22 59.0125C217.01 59.0125 216.835 59.1078 216.698 59.2982C216.56 59.4869 216.493 59.7479 216.495 60.0724H217.937ZM219.643 58.1943H220.612V59.8449H222.008V58.1943H222.974V62.7054H222.008V60.8113H220.612V62.7071H219.643V58.1943ZM223.92 58.1943H224.851V61.0282L226.339 58.1943H227.291V62.7054H226.36V59.829L224.851 62.7054H223.92V58.1943ZM231.424 58.1943V62.7054H230.458V60.8378H230.369C230.159 60.8378 230.006 60.8713 229.907 60.9365C229.808 61.0036 229.7 61.1446 229.58 61.358L229.521 61.4462L228.884 62.7054H227.757L228.451 61.4003C228.649 61.0265 228.828 60.8113 228.987 60.7567C228.718 60.7355 228.497 60.6103 228.327 60.374C228.16 60.1412 228.074 59.8432 228.074 59.4781C228.074 59.1854 228.13 58.9367 228.242 58.7286C228.353 58.5205 228.502 58.3812 228.686 58.3054C228.872 58.2295 229.148 58.1925 229.512 58.1925H231.424V58.1943ZM230.458 58.9596H229.762C229.505 58.9596 229.327 59.0055 229.222 59.0954C229.12 59.1854 229.068 59.3335 229.068 59.5398C229.068 59.7479 229.127 59.8978 229.245 59.9895C229.362 60.0812 229.555 60.1253 229.822 60.1253H230.459V58.9596H230.458ZM149.782 91.2462V70.7541C149.782 69.4738 150.624 68.4368 151.663 68.4368H161.882V72.9408H154.831C154.352 72.9408 153.964 73.4205 153.964 74.0095V91.2462H149.782ZM224.647 79.1802C226.766 79.1467 227.382 78.4201 227.382 75.5773C227.383 72.7345 226.764 72.0079 224.647 72.0079L221.803 72.0414V79.1819H224.647V79.1802ZM217.698 68.4386C219.925 68.174 221.428 68.1405 224.753 68.1405C229.851 68.1405 231.488 69.7594 231.488 75.5791C231.488 81.4639 229.852 83.0494 225.291 83.0494C224.084 83.0494 222.877 82.9506 221.803 82.7848V91.248H217.698V68.4386ZM201.659 79.8433C201.659 85.8921 202.49 87.6116 205.281 87.6116C208.072 87.6116 208.902 85.8921 208.902 79.8433C208.902 73.7926 208.07 72.075 205.281 72.075C202.491 72.0732 201.659 73.7926 201.659 79.8433ZM213.222 79.8433C213.222 88.9995 211.13 91.6783 205.281 91.6783C199.433 91.6783 197.367 88.9995 197.367 79.8433C197.367 70.6853 199.433 68.0083 205.281 68.0083C211.13 68.0065 213.222 70.6853 213.222 79.8433ZM188.946 72.537V91.2462H184.842V72.537H179.314V68.4386H194.474V72.537H188.946ZM171.054 74.3887C170.92 73.6939 170.759 72.9338 170.679 72.239H169.953C169.821 72.9338 169.686 73.6939 169.551 74.3887L167.994 81.3634H172.608L171.054 74.3887ZM167.137 85.2626L165.796 91.2462H161.612L166.95 69.7594C167.111 68.9341 167.7 68.4386 168.371 68.4386H172.235C172.932 68.4386 173.495 68.9341 173.658 69.7594L178.996 91.2462H174.838L173.497 85.2626H167.137ZM140.744 91.2462V77.6283C140.744 76.6019 140.826 75.5773 140.987 74.5527H140.799C140.53 75.5773 140.155 76.6354 139.753 77.5613L133.502 91.2462H129.451V68.4386H133.341V81.8272C133.341 82.8518 133.259 83.9082 133.127 84.9998H133.288C133.583 83.9435 133.959 82.9841 134.36 82.0247L140.612 68.4386H144.663V91.248H140.744V91.2462ZM118.051 87.7103C120.306 87.7103 120.948 87.1495 120.948 84.603C120.948 81.8272 120.251 81.1324 117.969 81.0989H114.939V87.7103H118.051ZM117.943 77.7605C119.9 77.7605 120.518 77.1645 120.518 74.8172C120.518 72.5035 119.874 71.9744 117.7 71.9744L114.937 71.9409V77.7588H117.943V77.7605ZM121.215 79.4782C124.059 79.7763 125.026 81.9242 125.026 85.5624C125.026 90.2551 123.175 91.5107 118.776 91.5107C115.208 91.5107 113.302 91.4772 110.943 91.2462V68.4386C113.061 68.2075 114.806 68.174 117.918 68.174C122.746 68.174 124.436 69.4297 124.436 74.1242C124.436 77.3955 123.525 79.0814 121.217 79.3477V79.4782H121.215ZM99.7321 74.3887C99.5976 73.6939 99.4365 72.9338 99.3569 72.239H98.6312C98.4967 72.9338 98.3639 73.6939 98.2294 74.3887L96.6737 81.3634H101.288L99.7321 74.3887ZM95.8135 85.2626L94.4719 91.2462H90.2878L95.6259 69.7594C95.7869 68.9341 96.3781 68.4386 97.0489 68.4386H100.913C101.61 68.4386 102.175 68.9341 102.334 69.7594L107.672 91.2462H103.514L102.173 85.2626H95.8135ZM86.9905 91.2462H82.8861V81.0636H76.3657V91.2462H72.2879V68.4386H76.3657V77.1662H82.8861V68.4386H86.9905V91.2462ZM15.3516 66.4705C17.4207 54.4468 26.1056 45.3981 36.4702 45.3981C43.81 45.3981 50.3056 49.9357 54.2065 56.8522H59.3534C59.3534 56.8522 59.0773 56.2121 58.8312 55.7077C57.7321 53.4257 56.3941 51.2989 54.8312 49.3731C49.9268 43.3295 43.4047 40 36.4702 40C29.5339 40 23.0118 43.3295 18.1056 49.3731C14.0508 54.3709 11.5021 60.7267 10.741 67.6097H15.1994C15.1994 67.6115 15.2861 66.832 15.3516 66.4705ZM39.1817 67.9994C43.672 68.5303 57.4383 70.1157 57.4383 70.1157C57.5941 70.024 66.5003 66.3382 66.5003 66.3382L41.5569 64.4883L39.1817 67.9994ZM55.8047 71.3748L38.3321 69.2586L36.3587 72.1772L48.9781 75.02L55.8047 71.3748ZM33.6136 76.2316L42.2012 78.5294L47.1905 75.9036L35.5481 73.3694L33.6136 76.2316ZM33.0596 58.7339C33.0596 58.7339 26.5976 63.3226 25.3941 64.088C24.1888 64.8516 24.0065 65.8867 24.4083 66.6962C24.81 67.5057 29.518 76.5931 29.518 76.5931L32.4755 77.4925L27.4012 66.6962L33.9729 62.8729L69.2383 64.4918C69.2383 64.4918 75.0064 59.4534 75.1887 59.2735C75.3728 59.0937 33.0596 58.7339 33.0596 58.7339ZM30.3799 58.5099L25.7888 58.3248C25.7888 58.3248 21.7445 61.2434 20.7446 62.1375C19.7446 63.0316 19.2808 64.2802 19.7729 65.5129C20.2649 66.7456 21.1976 68.6678 21.1976 68.6678H24.1003C24.1003 68.6678 22.4578 65.43 22.5251 64.2643C22.5923 63.0986 30.3799 58.5099 30.3799 58.5099ZM18.0738 80.6756C24.4277 81.2135 33.2136 84.1815 41.456 87.2994L46.8596 83.9558C46.8596 83.9558 27.1251 78.5806 19.7941 77.7464C16.01 77.3161 8.56226 77.1786 8.56226 77.1786C8.56226 77.1786 12.1994 74.1471 12.61 73.775C13.0207 73.4046 13.7729 73.0167 15.58 73.0678C17.387 73.1172 26.341 73.8949 26.341 73.8949L24.6153 70.1157C24.6153 70.1157 14.8401 70.1157 14.2118 70.1157C13.5817 70.1157 11.3906 70.1827 10.1322 71.2302C8.87199 72.276 2.27377 77.6054 1.47908 78.2473C0.686163 78.8874 0.709172 80.531 1.28793 81.3158C1.67731 81.8466 2.72156 83.3298 2.95873 83.2398C3.24014 83.134 3.24191 82.1976 3.58881 81.7884C4.00651 81.2946 4.65607 80.7427 6.62775 80.6739C8.59943 80.6086 14.0313 80.3335 18.0738 80.6756Z" fill="#0067AF" stroke="#141515" stroke-width="0.5669" stroke-miterlimit="10"/>
</svg>
