<svg width="70" height="53" viewBox="0 0 70 53" fill="none" xmlns="http://www.w3.org/2000/svg">
<path d="M19.2949 0.691406L20.9103 4.06093C17.4402 5.63945 14.3889 7.97687 11.7564 11.0732C9.18376 14.1088 7.62821 17.2658 7.08974 20.5443C6.73077 22.0621 6.55128 23.4888 6.55128 24.8245C6.55128 26.0995 6.67094 27.253 6.91026 28.2851C9.66239 25.3102 13.2521 23.8228 17.6795 23.8228C21.9872 23.8228 25.4573 25.0977 28.0897 27.6476C30.7821 30.1975 32.1282 33.7188 32.1282 38.2115C32.1282 42.5221 30.6923 46.0131 27.8205 48.6844C25.0085 51.3557 21.4188 52.6914 17.0513 52.6914C11.1282 52.6914 6.7906 50.5058 4.03846 46.1345C1.34615 42.1882 0 36.9973 0 30.5618C0 24.1263 1.61538 18.2979 4.84615 13.0767C8.07692 7.79473 12.8932 3.6663 19.2949 0.691406ZM57.0769 0.691406L58.7821 4.06093C55.312 5.63945 52.2607 7.97687 49.6282 11.0732C47.0556 14.1088 45.4701 17.2658 44.8718 20.5443C44.5726 21.7585 44.4231 23.1549 44.4231 24.7334C44.4231 26.0691 44.5427 27.253 44.7821 28.2851C47.5342 25.3102 51.1239 23.8228 55.5513 23.8228C59.859 23.8228 63.3291 25.0977 65.9615 27.6476C68.6538 30.1975 70 33.7188 70 38.2115C70 42.5221 68.5641 46.0131 65.6923 48.6844C62.8803 51.3557 59.2906 52.6914 54.9231 52.6914C49.0598 52.6914 44.6923 50.5058 41.8205 46.1345C39.188 42.1275 37.8718 36.9366 37.8718 30.5618C37.8718 24.1263 39.4872 18.2979 42.7179 13.0767C45.9487 7.79473 50.735 3.6663 57.0769 0.691406Z" fill="#4B5061"/>
</svg>
