<svg width="19" height="19" viewBox="0 0 19 19" fill="none" xmlns="http://www.w3.org/2000/svg">
<path d="M7.37443 10.5084H5.2V8.03619H7.37443H7.57443V7.83619V5.64709C7.57443 4.43857 7.91274 3.52616 8.48523 2.91732C9.05645 2.30982 9.88264 1.98125 10.9067 1.98125C11.407 1.98125 11.9214 2.02879 12.3127 2.0768C12.5079 2.10074 12.6714 2.12468 12.7859 2.14259C12.7907 2.14334 12.7954 2.14408 12.8 2.14481V4.22058H11.8208C11.1924 4.22058 10.7491 4.43043 10.468 4.77599C10.193 5.11417 10.0968 5.55368 10.0968 5.97313V7.83619V8.03619H10.2968H12.6595L12.3026 10.5084H10.2968H10.0968V10.7084V17.4806C9.25996 17.6031 8.41128 17.6031 7.57443 17.4806V10.7084V10.5084H7.37443Z" fill="#E41713" stroke="#F4F4F8" stroke-width="0.4"/>
</svg>
