<svg width="19" height="15" viewBox="0 0 19 15" fill="none" xmlns="http://www.w3.org/2000/svg">
<path d="M17.9728 3.19828L17.9728 3.19858C18.1535 3.90765 18.2514 5.05049 18.3011 6.06068C18.3256 6.55646 18.3378 7.00489 18.3439 7.32942C18.347 7.49154 18.3485 7.6224 18.3492 7.71237L18.3499 7.81537L18.35 7.84156L18.35 7.84794L18.35 7.84939V7.84963V7.84967V7.84971V7.84995L18.35 7.85141L18.35 7.85778L18.3499 7.88397L18.3492 7.98697C18.3485 8.07694 18.347 8.2078 18.3439 8.36992C18.3378 8.69445 18.3256 9.14288 18.3011 9.63866C18.2514 10.6489 18.1535 11.7917 17.9728 12.5008L17.9728 12.5011C17.8922 12.8178 17.7343 13.1038 17.5177 13.3316C17.3016 13.559 17.0349 13.7203 16.7459 13.8029C16.4444 13.8874 15.8562 13.9626 15.0867 14.0216C14.3351 14.0792 13.4646 14.118 12.6341 14.144C11.8047 14.1699 11.0207 14.1829 10.4436 14.1893C10.1552 14.1926 9.91889 14.1942 9.75482 14.195L9.56553 14.1957L9.51634 14.1958L9.50395 14.1958L9.5009 14.1958L9.50018 14.1958H9.50002L9.5 14.8458L9.49998 14.1958H9.49982L9.4991 14.1958L9.49605 14.1958L9.48366 14.1958L9.43447 14.1957L9.24518 14.195C9.08111 14.1942 8.84475 14.1926 8.55637 14.1893C7.97933 14.1829 7.19528 14.1699 6.36587 14.144C5.53537 14.118 4.66487 14.0792 3.91326 14.0216C3.14376 13.9626 2.55559 13.8874 2.25414 13.8029C1.96507 13.7203 1.69844 13.559 1.4823 13.3316C1.26572 13.1038 1.10776 12.8178 1.02723 12.5011L1.02716 12.5008C0.846521 11.7917 0.748641 10.6489 0.698872 9.63866C0.674446 9.14288 0.66221 8.69445 0.656092 8.36992C0.653035 8.2078 0.651512 8.07694 0.650753 7.98697L0.650092 7.88397L0.650011 7.85778L0.650001 7.85141L0.65 7.84995L0.65 7.84971V7.84968V7.84966V7.84963L0.65 7.84939L0.650001 7.84794L0.650011 7.84157L0.650092 7.81537L0.650753 7.71237C0.651512 7.6224 0.653035 7.49154 0.656092 7.32942C0.66221 7.00489 0.674446 6.55646 0.698872 6.06068C0.748641 5.05049 0.846521 3.90765 1.02716 3.19858L1.02723 3.19828C1.10776 2.88155 1.26572 2.59555 1.4823 2.36771C1.69842 2.14036 1.96502 1.97905 2.25405 1.89646C2.55549 1.81197 3.1437 1.73677 3.91326 1.67775C4.66487 1.62011 5.53537 1.58134 6.36587 1.55539C7.19528 1.52947 7.97933 1.51649 8.55637 1.51C8.84475 1.50675 9.08111 1.50513 9.24518 1.50432L9.43447 1.50362L9.48366 1.50353L9.49605 1.50352L9.4991 1.50352L9.49982 1.50352H9.49998L9.5 0.853516L9.50002 1.50352H9.50018L9.5009 1.50352L9.50395 1.50352L9.51634 1.50353L9.56553 1.50362L9.75482 1.50432C9.91889 1.50513 10.1552 1.50675 10.4436 1.51C11.0207 1.51649 11.8047 1.52947 12.6341 1.55539C13.4646 1.58134 14.3351 1.62011 15.0867 1.67775C15.8563 1.73677 16.4446 1.81197 16.746 1.89647C17.035 1.97906 17.3016 2.14037 17.5177 2.36771C17.7343 2.59555 17.8922 2.88155 17.9728 3.19828Z" stroke="#fff" stroke-width="1.3"/>
<path d="M8 10.8483V4.85156L12 7.84991L8 10.8483Z" fill="#fff"/>
</svg>
