<svg width="19" height="19" viewBox="0 0 19 19" fill="none" xmlns="http://www.w3.org/2000/svg">
<path d="M12.1719 9.5C12.1719 13.3594 16.9219 13.3594 16.9219 9.5C16.9219 8.0321 16.4866 6.59715 15.6711 5.37663C14.8555 4.15611 13.6964 3.20483 12.3402 2.64308C10.9841 2.08134 9.49177 1.93436 8.05207 2.22074C6.61236 2.50711 5.28991 3.21398 4.25195 4.25195C3.21398 5.28991 2.50711 6.61236 2.22074 8.05207C1.93436 9.49177 2.08134 10.9841 2.64308 12.3402C3.20483 13.6964 4.15611 14.8555 5.37663 15.6711C6.59715 16.4866 8.0321 16.9219 9.5 16.9219C12.1719 16.9219 13.3594 15.7344 13.3594 15.7344" stroke="#E41713" stroke-width="1.5" stroke-linecap="round" stroke-linejoin="round"/>
<path d="M9.5 12.1719C10.9756 12.1719 12.1719 10.9756 12.1719 9.5C12.1719 8.02436 10.9756 6.82812 9.5 6.82812C8.02436 6.82812 6.82812 8.02436 6.82812 9.5C6.82812 10.9756 8.02436 12.1719 9.5 12.1719Z" stroke="#E41713" stroke-width="1.5" stroke-linecap="round" stroke-linejoin="round"/>
</svg>
