<svg width="23" height="23" viewBox="0 0 23 23" fill="none" xmlns="http://www.w3.org/2000/svg">
<path d="M14.7344 11.499C14.7344 16.1709 20.4844 16.1709 20.4844 11.499C20.4844 9.72209 19.9575 7.98505 18.9702 6.50758C17.983 5.0301 16.5799 3.87855 14.9382 3.19855C13.2965 2.51854 11.49 2.34062 9.74724 2.68728C8.00444 3.03395 6.40358 3.88963 5.14709 5.14612C3.8906 6.4026 3.03493 8.00346 2.68826 9.74626C2.3416 11.4891 2.51952 13.2955 3.19952 14.9372C3.87953 16.5789 5.03108 17.982 6.50855 18.9693C7.98603 19.9565 9.72306 20.4834 11.5 20.4834C14.7344 20.4834 16.1719 19.0459 16.1719 19.0459" stroke="white" stroke-width="1.5" stroke-linecap="round" stroke-linejoin="round"/>
<path d="M11.5 14.7334C13.2863 14.7334 14.7344 13.2853 14.7344 11.499C14.7344 9.71273 13.2863 8.26465 11.5 8.26465C9.7137 8.26465 8.26562 9.71273 8.26562 11.499C8.26562 13.2853 9.7137 14.7334 11.5 14.7334Z" stroke="white" stroke-width="1.5" stroke-linecap="round" stroke-linejoin="round"/>
</svg>
