<svg width="22" height="22" viewBox="0 0 22 22" fill="none" xmlns="http://www.w3.org/2000/svg">
<path d="M14.666 3.66699H7.33268C5.30764 3.66699 3.66602 5.30861 3.66602 7.33366V14.667C3.66602 16.692 5.30764 18.3337 7.33268 18.3337H14.666C16.6911 18.3337 18.3327 16.692 18.3327 14.667V7.33366C18.3327 5.30861 16.6911 3.66699 14.666 3.66699Z" stroke="#E41713" stroke-width="1.5" stroke-linecap="round" stroke-linejoin="round"/>
<path d="M11 13.75C12.5188 13.75 13.75 12.5188 13.75 11C13.75 9.48122 12.5188 8.25 11 8.25C9.48122 8.25 8.25 9.48122 8.25 11C8.25 12.5188 9.48122 13.75 11 13.75Z" stroke="#E41713" stroke-width="1.5" stroke-linecap="round" stroke-linejoin="round"/>
<path d="M15.125 6.875V6.876" stroke="#E41713" stroke-width="1.5" stroke-linecap="round" stroke-linejoin="round"/>
</svg>
