<svg width="28" height="27" viewBox="0 0 28 27" fill="none" xmlns="http://www.w3.org/2000/svg">
<path d="M18.346 5.0293H9.65699C7.25759 5.0293 5.3125 6.97439 5.3125 9.37379V18.0628C5.3125 20.4622 7.25759 22.4073 9.65699 22.4073H18.346C20.7454 22.4073 22.6905 20.4622 22.6905 18.0628V9.37379C22.6905 6.97439 20.7454 5.0293 18.346 5.0293Z" stroke="white" stroke-width="1.5" stroke-linecap="round" stroke-linejoin="round"/>
<path d="M14.0006 16.9757C15.8001 16.9757 17.2589 15.5169 17.2589 13.7174C17.2589 11.9178 15.8001 10.459 14.0006 10.459C12.201 10.459 10.7422 11.9178 10.7422 13.7174C10.7422 15.5169 12.201 16.9757 14.0006 16.9757Z" stroke="white" stroke-width="1.5" stroke-linecap="round" stroke-linejoin="round"/>
<path d="M18.8887 8.83008V8.83108" stroke="white" stroke-width="1.5" stroke-linecap="round" stroke-linejoin="round"/>
</svg>
