<svg width="213" height="143" viewBox="0 0 213 143" fill="none" xmlns="http://www.w3.org/2000/svg">
<path fill-rule="evenodd" clip-rule="evenodd" d="M0.514972 50.082L51.7719 50.238C51.7719 50.238 56.5974 49.8581 61.3052 55.2717C66.0131 60.6854 66.0595 64.7004 65.9585 65.8767C65.8575 67.053 66.0893 77.3195 66.0893 77.3195C65.9568 84.588 58.6898 93.8193 52.3513 93.9487C49.4776 94.0084 35.4566 93.8608 35.4566 93.8608C35.4566 93.8608 33.9188 93.5837 33.1043 92.6314C32.2899 91.6807 32.2518 91.3721 32.2137 90.443C32.1756 89.5139 32.1558 84.1849 32.1558 84.1849L46.6502 84.2927C46.6502 84.2927 51.5203 84.3856 53.1923 82.6038C54.8658 80.8219 55.725 79.1644 55.8508 78.1988C55.9766 77.2332 55.9766 77.1171 55.9766 77.1171L35.9449 76.9611C35.9449 76.9611 32.121 76.4866 32.121 72.3522C32.121 68.216 32.2319 67.0264 32.2319 67.0264L56.0676 66.8937L56.0494 65.3872C56.0494 65.3872 54.3858 61.9911 52.0964 60.7467C49.8087 59.5008 41.7983 59.9471 40.2737 59.8575C38.7491 59.7679 26.8884 59.9471 26.8884 59.9471L26.8967 93.2369C26.8967 93.2369 26.9082 93.9902 26.112 93.9902C25.3158 93.9902 20.2205 93.9819 20.2205 93.9819C20.2205 93.9819 17.7573 92.998 17.226 90.9192C16.6946 88.8403 16.7906 87.9129 16.7906 87.9129L16.6234 59.9686L4.53587 60.0217C4.53587 60.0217 0.433859 59.2071 0.476899 55.8258C0.521594 52.4429 0.514972 50.082 0.514972 50.082Z" fill="#003A78" stroke="#141515" stroke-width="0.1984" stroke-miterlimit="10"/>
<path fill-rule="evenodd" clip-rule="evenodd" d="M69.7208 93.9818L69.6777 54.1036C69.6777 54.1036 69.8433 51.9633 71.2454 50.9679C72.6491 49.9724 73.6159 50.0836 75.2083 50.0836C76.8008 50.0836 86.3904 50.2196 86.3904 50.2196L95.4006 78.1042L104.911 50.2146L117.535 50.0753C117.535 50.0753 119.695 50.0437 120.569 51.4092C121.443 52.7746 121.642 53.9659 121.708 54.6776C121.774 55.3894 121.708 56.9091 121.708 56.9091L121.696 93.9785C121.696 93.9785 116.856 93.9702 116.326 93.9702C115.795 93.9702 113.055 93.5404 112.259 91.2409C111.461 88.9414 111.595 87.1811 111.595 85.1288C111.595 83.0781 111.423 61.6641 111.423 61.6641L100.756 93.9834L90.6778 93.9718L79.5735 61.5612L79.8301 84.4967C79.8301 84.4967 80.1281 90.1376 78.3883 92.2381C76.973 93.9502 74.4518 93.9702 72.1095 93.9751C71.2536 93.9785 70.4342 93.9818 69.7208 93.9818Z" fill="#003A78" stroke="#141515" stroke-width="0.1984" stroke-miterlimit="10"/>
<path fill-rule="evenodd" clip-rule="evenodd" d="M125.139 93.9778L125.086 54.1561C125.081 50.5591 127.629 50 130.368 50C131.848 50 162.509 50.1443 162.509 50.1443C162.509 50.1443 163.906 50.1925 164.845 51.4899C165.782 52.7873 166.219 53.8043 166.262 54.6953C166.305 55.5862 166.392 60.3661 166.392 60.3661L166.26 93.9795L160.625 93.9911C160.625 93.9911 156.737 93.6311 156.409 88.8993C156.081 84.1692 156.066 70.9495 156.066 70.9495V60.1156H135.23V86.9515C135.23 86.9515 135.069 89.2378 134.871 90.2382C134.672 91.2387 133.22 93.9679 131.373 93.9778C130.683 93.9812 129.825 93.9795 129.024 93.9795C127.693 93.9778 126.5 93.9795 126.375 93.9795C126.038 93.9762 125.49 93.9778 125.139 93.9778Z" fill="#003A78" stroke="#141515" stroke-width="0.1984" stroke-miterlimit="10"/>
<path fill-rule="evenodd" clip-rule="evenodd" d="M184.371 50.1602L197.361 50.1784C205.668 50.19 212.533 58.4325 212.533 68.1183V75.8514C212.533 85.5389 205.714 93.9953 197.407 93.997L184.366 94.0003C176.06 94.0036 169.301 85.5372 169.301 75.8514V68.1183C169.302 58.4308 176.065 50.1469 184.371 50.1602ZM187.462 60.2558H194.616C199.179 60.2558 202.911 64.6093 202.911 69.93V74.1773C202.911 79.4981 199.179 83.8516 194.616 83.8516H187.462C182.898 83.8516 179.165 79.4981 179.165 74.1773V69.93C179.165 64.6093 182.898 60.2558 187.462 60.2558Z" fill="#003A78" stroke="#141515" stroke-width="0.1984" stroke-miterlimit="10"/>
</svg>
