<svg width="165" height="143" viewBox="0 0 165 143" fill="none" xmlns="http://www.w3.org/2000/svg">
<g clip-path="url(#clip0_583_1416)">
<path d="M38.2017 87.1877C52.3102 88.1622 71.8121 93.5289 90.1146 99.1676L102.11 93.1201C102.11 93.1201 58.2906 83.3984 42.0174 81.8908C33.6184 81.113 17.0832 80.8628 17.0832 80.8628C17.0832 80.8628 25.158 75.3801 26.0701 74.7093C26.9823 74.0384 28.654 73.3368 32.6629 73.4284C36.6718 73.5199 56.5521 74.9232 56.5521 74.9232L52.7229 68.0889H29.6221C28.2241 68.0889 23.3617 68.2113 20.5647 70.1023C17.7678 71.9933 3.12287 81.6352 1.35999 82.7928C-0.402897 83.9505 -0.350516 86.923 0.934618 88.3454C1.80071 89.3045 4.11539 91.986 4.64191 91.8237C5.26777 91.6306 5.27409 89.939 6.03993 89.1993C6.96743 88.3055 8.41152 87.3083 12.788 87.1859C17.1645 87.0635 29.222 86.5676 38.2017 87.1877Z" fill="#0060AA" stroke="#2B2A29" stroke-miterlimit="22.93"/>
<path d="M65.5198 47.102L55.3227 46.7656C55.3227 46.7656 46.3412 52.0444 44.1241 53.6607C41.9069 55.2771 40.8729 57.5362 41.9665 59.7626C43.0602 61.989 45.1275 65.4683 45.1275 65.4683H51.5658C51.5658 65.4683 47.919 59.6103 48.0707 57.5053C48.2224 55.4004 65.518 47.1029 65.5198 47.102Z" fill="#0060AA" stroke="#2B2A29" stroke-miterlimit="22.93"/>
<path d="M72.6992 79.1545L91.7676 83.3092L102.844 78.559L76.9981 73.9746L72.6992 79.1545Z" fill="#0060AA" stroke="#2B2A29" stroke-miterlimit="22.93"/>
<path d="M121.963 70.3663L83.1737 66.5371L78.7891 71.8158L106.807 76.9568L121.963 70.3663Z" fill="#0060AA" stroke="#2B2A29" stroke-miterlimit="22.93"/>
<path d="M32.1503 61.4982C36.748 39.7541 56.0269 23.3893 79.0392 23.3893C95.335 23.3893 109.756 31.5944 118.415 44.1036H129.842C129.842 44.1036 129.232 42.9433 128.684 42.034C126.211 37.859 123.229 34.0105 119.806 30.5782C108.915 19.6472 94.4382 13.626 79.0392 13.626C63.6401 13.626 49.1605 19.6472 38.2698 30.5782C29.2684 39.6145 23.6077 51.1129 21.918 63.5606H31.8134C31.8134 63.5606 32.0085 62.1527 32.1503 61.4982Z" fill="#0060AA" stroke="#2B2A29" stroke-miterlimit="22.93"/>
<path d="M79.0402 119.609C60.0205 119.609 43.5477 108.43 35.8152 92.275H25.1973C28.0989 99.8371 32.5543 106.701 38.2735 112.421C49.1642 123.353 63.6411 129.373 79.0429 129.373C94.4446 129.373 108.921 123.355 119.81 112.421C130.588 101.603 136.573 87.2564 136.698 71.9777V69.8301C136.698 69.8301 127.332 73.2477 126.944 73.3012C125.985 98.9969 104.867 119.609 79.0402 119.609Z" fill="#0060AA" stroke="#2B2A29" stroke-miterlimit="22.93"/>
<path d="M85.0586 64.2615C95.0254 65.2207 125.589 68.0907 125.589 68.0907C125.934 67.9276 145.707 61.2573 145.707 61.2573L90.3292 57.9131L85.0586 64.2615Z" fill="#0060AA" stroke="#2B2A29" stroke-miterlimit="22.93"/>
<path d="M71.4666 47.5078C71.4666 47.5078 57.1206 55.8062 54.4464 57.1887C51.7723 58.5712 51.3668 60.4431 52.2582 61.9081C53.1496 63.3731 63.6049 79.8031 63.6049 79.8031L70.1706 81.4348L58.9042 61.9081L73.4932 54.9922L151.788 57.9212C151.788 57.9212 164.594 48.8087 164.998 48.4841C165.402 48.1596 71.4666 47.5078 71.4666 47.5078Z" fill="#0060AA" stroke="#2B2A29" stroke-miterlimit="22.93"/>
</g>
<defs>
<clipPath id="clip0_583_1416">
<rect width="165" height="143" fill="white"/>
</clipPath>
</defs>
</svg>
